<?xml version="1.0" encoding="iso-8859-1"?>
<!-- Generator: Adobe Illustrator 19.0.0, SVG Export Plug-In . SVG Version: 6.00 Build 0)  -->
<svg version="1.1" id="Capa_1" xmlns="http://www.w3.org/2000/svg" xmlns:xlink="http://www.w3.org/1999/xlink" x="0px" y="0px"
	 viewBox="0 0 512.002 512.002" style="enable-background:new 0 0 512.002 512.002;" xml:space="preserve">
<g>
	<g>
		<path d="M508.185,413.215l-1.699-1.699c5.231-7.657,6.122-17.888,1.427-26.533c-3.227-5.942-8.578-10.264-15.071-12.172
			c-6.535-1.919-13.439-1.168-19.434,2.123l-2.263,1.242l-21.531-21.531c5.231-7.657,6.123-17.888,1.427-26.534
			c-3.228-5.942-8.58-10.265-15.074-12.172c-6.534-1.919-13.436-1.166-19.431,2.124l-2.263,1.241l-21.532-21.531
			c5.231-7.657,6.122-17.888,1.427-26.533c-3.227-5.942-8.578-10.264-15.071-12.172c-6.535-1.92-13.439-1.168-19.434,2.123
			l-2.263,1.241l-21.532-21.531c5.231-7.657,6.123-17.888,1.427-26.533c-3.227-5.942-8.579-10.265-15.072-12.172
			c-6.536-1.92-13.437-1.167-19.432,2.123l-2.263,1.241l-21.532-21.531c5.231-7.657,6.122-17.888,1.427-26.533
			c-3.227-5.942-8.578-10.264-15.071-12.172c-6.534-1.92-13.438-1.168-19.434,2.123l-2.263,1.241l-36.247-36.246l10.851-10.851
			c2.929-2.929,2.929-7.678,0-10.607c-2.93-2.929-7.678-2.929-10.608,0L58.076,240.555c-1.728,1.728-4.025,2.679-6.468,2.679
			s-4.741-0.952-6.469-2.679L17.67,213.086c-3.567-3.567-3.567-9.37,0-12.937L200.143,17.68c1.728-1.729,4.025-2.68,6.468-2.68
			s4.741,0.952,6.469,2.679l27.469,27.469c3.567,3.567,3.567,9.371,0,12.938l-9.733,9.733c-2.929,2.929-2.929,7.678,0,10.607
			c2.93,2.929,7.678,2.929,10.608,0l9.733-9.733c9.414-9.416,9.414-24.735,0-34.151l-27.47-27.469
			C219.127,2.512,213.062,0,206.611,0c-6.451,0-12.515,2.512-17.076,7.073l-7.776,7.776C157.057-4.588,121.066-2.94,98.298,19.826
			L19.815,98.308C7.917,110.205,1.364,126.025,1.364,142.851c0,14.299,4.748,27.861,13.471,38.917l-7.774,7.774
			c-9.414,9.415-9.414,24.735,0,34.151l27.47,27.469c4.561,4.561,10.625,7.072,17.076,7.072s12.515-2.512,17.076-7.073l43.751-43.75
			l10.604,10.604c-5.231,7.657-6.123,17.888-1.428,26.533c3.227,5.942,8.579,10.265,15.073,12.172
			c2.369,0.696,4.785,1.041,7.19,1.041c4.23,0,8.42-1.067,12.243-3.164l2.264-1.242l2.201,2.2c1.464,1.464,3.384,2.196,5.303,2.196
			s3.839-0.732,5.304-2.197c2.632-2.632,2.891-6.73,0.791-9.66l95.353-52.312l19.494,19.494l-95.254,52.258l-0.119-0.119
			c-2.93-2.929-7.678-2.929-10.608,0c-2.604,2.604-2.887,6.643-0.861,9.566c-5.296,7.669-6.217,17.954-1.5,26.64
			c3.227,5.942,8.579,10.265,15.072,12.172c2.369,0.696,4.785,1.041,7.19,1.041c4.23,0,8.421-1.067,12.244-3.164l2.263-1.241
			l21.532,21.531c-5.231,7.657-6.123,17.888-1.428,26.533c3.227,5.942,8.579,10.265,15.073,12.172
			c2.369,0.696,4.785,1.041,7.19,1.041c4.23,0,8.42-1.067,12.243-3.164l2.263-1.241l21.532,21.532
			c-5.23,7.657-6.122,17.887-1.427,26.533c3.227,5.942,8.579,10.265,15.072,12.172c2.369,0.696,4.785,1.041,7.19,1.041
			c4.23,0,8.421-1.067,12.244-3.164l2.263-1.241l21.532,21.531c-5.231,7.657-6.123,17.888-1.428,26.533
			c3.227,5.942,8.579,10.265,15.072,12.172c2.369,0.696,4.786,1.041,7.191,1.041c4.23,0,8.42-1.066,12.243-3.164l2.263-1.242
			l27.341,27.341c2.545,2.544,5.887,3.816,9.23,3.816c3.342,0,6.684-1.272,9.229-3.816l76.513-76.512
			C513.273,426.584,513.273,418.304,508.185,413.215z M30.423,108.914l78.483-78.482c9.357-9.356,21.647-14.034,33.938-14.034
			c9.921,0,19.842,3.048,28.221,9.145L25.528,171.076c-5.95-8.15-9.163-17.941-9.163-28.225
			C16.365,130.031,21.357,117.979,30.423,108.914z M123.042,196.805l73.757-73.755l33.155,33.155l-95.253,52.258L123.042,196.805z
			 M262.977,178.863l-114.075,62.583c-2.472,1.356-5.31,1.669-7.99,0.882c-2.637-0.775-4.81-2.529-6.118-4.939
			c-2.738-5.043-0.826-11.416,4.263-14.208l114.074-62.582c1.579-0.867,3.308-1.308,5.049-1.308c0.984,0,1.974,0.141,2.942,0.425
			c2.636,0.775,4.809,2.528,6.117,4.939C269.977,169.698,268.065,176.071,262.977,178.863z M213.105,294.297
			c-0.014,0.007-0.028,0.015-0.042,0.023l-7.287,3.998c-2.47,1.356-5.306,1.672-7.99,0.882c-2.637-0.774-4.81-2.528-6.118-4.938
			c-2.738-5.043-0.826-11.416,4.262-14.208l106.723-58.55c0.038-0.02,0.075-0.042,0.113-0.062l7.239-3.972
			c1.579-0.866,3.308-1.307,5.049-1.307c0.983,0,1.973,0.141,2.94,0.425c2.637,0.774,4.81,2.528,6.118,4.939
			c2.739,5.042,0.827,11.416-4.262,14.208L213.105,294.297z M228.953,302.712l95.253-52.258l19.495,19.494l-95.253,52.258
			L228.953,302.712z M269.983,351.166c-0.02,0.01-0.04,0.022-0.059,0.032l-7.276,3.992c-2.472,1.356-5.31,1.67-7.99,0.883
			c-2.637-0.775-4.81-2.529-6.118-4.939c-2.738-5.043-0.826-11.416,4.263-14.208l106.734-58.556
			c0.026-0.014,0.052-0.029,0.078-0.043l7.262-3.984c1.579-0.867,3.308-1.308,5.049-1.308c0.984,0,1.974,0.141,2.942,0.425
			c2.636,0.775,4.809,2.528,6.117,4.939c2.738,5.043,0.826,11.416-4.262,14.208L269.983,351.166z M285.825,359.584l95.254-52.258
			l19.494,19.494l-95.254,52.258L285.825,359.584z M342.697,416.457l12.982-7.122c3.633-1.994,4.961-6.553,2.969-10.184
			c-1.991-3.631-6.549-4.961-10.183-2.968l-21.598,11.849c-0.031,0.016-0.062,0.035-0.094,0.052l-7.252,3.978
			c-2.47,1.355-5.307,1.671-7.99,0.882c-2.637-0.774-4.81-2.528-6.118-4.938c-2.738-5.043-0.826-11.416,4.262-14.208l106.74-58.56
			c0.02-0.01,0.039-0.022,0.059-0.032l7.276-3.992c2.472-1.356,5.309-1.668,7.989-0.882c2.637,0.774,4.811,2.528,6.119,4.939
			c2.738,5.043,0.826,11.416-4.263,14.208l-55.75,30.586c-3.632,1.992-4.96,6.551-2.968,10.183
			c1.991,3.631,6.549,4.961,10.183,2.968l52.891-29.017l19.494,19.494l-95.253,52.258L342.697,416.457z M383.752,464.897
			c-0.044,0.023-0.087,0.048-0.131,0.072l-7.227,3.965c-2.471,1.356-5.306,1.671-7.989,0.882c-2.637-0.775-4.81-2.528-6.118-4.939
			c-2.738-5.043-0.826-11.416,4.263-14.208L473.307,392.1l7.316-4.014c1.579-0.867,3.308-1.308,5.049-1.308
			c0.984,0,1.974,0.141,2.942,0.425c2.636,0.775,4.809,2.528,6.117,4.939c2.738,5.043,0.826,11.416-4.262,14.208L383.752,464.897z
			 M422.442,496.199l-22.871-22.872l95.254-52.258l1.374,1.374L422.442,496.199z"/>
	</g>
</g>
<g>
</g>
<g>
</g>
<g>
</g>
<g>
</g>
<g>
</g>
<g>
</g>
<g>
</g>
<g>
</g>
<g>
</g>
<g>
</g>
<g>
</g>
<g>
</g>
<g>
</g>
<g>
</g>
<g>
</g>
</svg>
