<?xml version="1.0" encoding="iso-8859-1"?>
<!-- Generator: Adobe Illustrator 19.0.0, SVG Export Plug-In . SVG Version: 6.00 Build 0)  -->
<svg version="1.1" id="Capa_1" xmlns="http://www.w3.org/2000/svg" xmlns:xlink="http://www.w3.org/1999/xlink" x="0px" y="0px"
	 viewBox="0 0 511.999 511.999" style="enable-background:new 0 0 511.999 511.999;" xml:space="preserve">
<g>
	<g>
		<g>
			<path d="M194.802,313.632c-3.572-2.096-8.169-0.896-10.264,2.677l-6.388,10.896c-2.095,3.573-0.896,8.169,2.677,10.264
				c1.192,0.699,2.498,1.031,3.786,1.031c2.574,0,5.082-1.326,6.478-3.708l6.388-10.897
				C199.574,320.323,198.375,315.727,194.802,313.632z"/>
			<path d="M271.224,237.943c0.646,3.634,3.809,6.188,7.376,6.188c0.436,0,0.879-0.038,1.323-0.117l30.825-5.486
				c4.078-0.726,6.796-4.62,6.07-8.699c-0.726-4.078-4.624-6.794-8.699-6.07l-30.825,5.486
				C273.215,229.969,270.498,233.863,271.224,237.943z"/>
			<path d="M260,205.855c1.038,0.491,2.131,0.725,3.208,0.725c2.807,0,5.501-1.584,6.783-4.289l12.425-26.211
				c1.774-3.743,0.178-8.217-3.564-9.991c-3.741-1.77-8.217-0.179-9.991,3.564l-12.424,26.211
				C254.661,199.607,256.257,204.08,260,205.855z"/>
			<path d="M169.026,278.301h-22.169c-4.142,0-7.501,3.357-7.501,7.501s3.358,7.501,7.501,7.501h22.169
				c4.142,0,7.501-3.357,7.501-7.501S173.169,278.301,169.026,278.301z"/>
			<path d="M230.33,254.008L230.33,254.008c6.378,0.001,11.699-5.172,11.874-11.553l0.727-26.608
				c0.141-5.135-2.453-10.056-6.768-12.843c-38.853-25.099-78.044-51.682-111.258-74.375c-1.098-0.751-1.725-1.993-1.596-3.165
				c1.941-17.636-7.603-35.839-24.316-46.377c-22.984-14.49-52.057-9.835-64.802,10.381c-5.06,8.024-6.977,17.46-5.546,27.286
				c0.05,0.342-0.117,0.606-0.446,0.709c-9.483,2.944-17.17,8.742-22.228,16.767c-12.745,20.217-4.414,48.453,18.571,62.946
				c16.713,10.537,37.253,11.301,52.328,1.945c1.002-0.624,2.394-0.593,3.544,0.075c3.833,2.224,7.82,4.538,11.939,6.935
				c3.58,2.082,8.172,0.868,10.254-2.713c2.083-3.581,0.868-8.173-2.713-10.255c-4.123-2.398-8.115-4.716-11.952-6.942
				c-5.973-3.464-13.246-3.405-18.982,0.154c-10.233,6.349-24.527,5.608-36.417-1.89c-15.989-10.08-22.216-29.035-13.883-42.255
				c3.127-4.96,7.964-8.57,13.987-10.44c7.4-2.298,11.959-9.531,10.843-17.198c-0.909-6.242,0.264-12.162,3.39-17.123
				c8.334-13.218,28.123-15.773,44.112-5.692c11.89,7.498,18.722,20.075,17.404,32.045c-0.738,6.71,2.344,13.298,8.044,17.193
				c33.266,22.729,72.525,49.359,111.49,74.531l-0.641,23.447l-12.236-0.054c-6.276-0.014-11.696,4.203-13.196,10.292l-0.982,3.988
				c-21.365-13.115-45.256-27.422-72.868-43.636c-3.571-2.095-8.169-0.902-10.266,2.67c-2.098,3.572-0.902,8.169,2.669,10.267
				c29.211,17.152,54.231,32.154,76.489,45.865c1.861,1.147,3.99,1.73,6.129,1.73c1.496,0,2.996-0.285,4.41-0.864
				c3.437-1.407,6.02-4.4,6.909-8.009l1.797-7.298l14.13,0.063H230.33z"/>
			<path d="M341.718,327.095c-3.956-1.224-8.159,0.991-9.384,4.948c-1.225,3.957,0.99,8.158,4.948,9.384
				c4.997,1.546,18.923,5.13,23.072,6.19c0.623,0.16,1.248,0.236,1.863,0.236c3.345,0,6.396-2.254,7.262-5.645
				c1.027-4.013-1.395-8.099-5.408-9.125C353.385,330.351,344.82,328.056,341.718,327.095z"/>
			<path d="M493.938,314.447c-3.26-2.559-7.976-1.99-10.531,1.268c-2.558,3.259-1.989,7.975,1.268,10.531
				c9.984,7.837,14.381,19.16,11.473,29.552c-1.678,5.998-5.603,11.046-11.346,14.598c-6.16,3.807-8.324,11.544-5.036,17.995
				c3.066,6.019,3.8,12.368,2.122,18.367c-1.98,7.077-7.151,12.877-14.56,16.331c-7.8,3.636-17.064,4.248-26.089,1.723
				c-13.536-3.787-23.677-13.891-25.832-25.738c-1.209-6.642-5.862-12.015-12.142-14.024
				c-48.105-15.398-104.215-33.077-155.647-47.468c-4.818-1.348-9.693-2.694-14.607-4.035l-0.374-7.773l14.073-4.126
				c5.86-1.717,9.338-7.913,7.754-13.81l-4.665-17.374c3.419,0.975,6.821,1.935,10.196,2.88
				c51.444,14.396,108.591,28.407,157.709,40.215c6.452,1.554,13.154-0.571,17.493-5.541c5.592-6.405,14.401-10.147,24.171-10.265
				c4.142-0.05,7.46-3.447,7.409-7.591c-0.049-4.111-3.397-7.41-7.498-7.41c-0.03,0-0.061,0-0.093,0.001
				c-14.031,0.169-26.895,5.781-35.29,15.399c-0.652,0.747-1.679,1.065-2.686,0.821c-48.984-11.776-105.963-25.747-157.172-40.076
				c-5.087-1.423-10.23-2.884-15.408-4.37c-4.107-1.177-8.557-0.051-11.606,2.947c-3.048,2.996-4.253,7.422-3.144,11.549
				l5.166,19.238l-12.285,3.602c-5.697,1.671-9.476,6.981-9.19,12.909l0.537,11.159c0.265,5.516,4.026,10.198,9.363,11.652
				c5.423,1.477,10.799,2.959,16.105,4.443c51.196,14.326,107.142,31.953,155.118,47.308c1.007,0.322,1.737,1.23,1.955,2.425
				c3.175,17.455,17.523,32.174,36.549,37.498c4.981,1.394,10.035,2.085,15.018,2.085c7.493-0.001,14.817-1.565,21.452-4.659
				c11.439-5.332,19.488-14.525,22.667-25.885c2.577-9.212,1.609-19.194-2.716-28.235c8.389-5.481,14.399-13.513,16.976-22.723
				C515.099,343.743,508.562,325.923,493.938,314.447z"/>
			<path d="M151.313,216.942c1.235,0.771,2.609,1.14,3.965,1.14c2.501,0,4.947-1.251,6.37-3.528
				c2.194-3.514,1.124-8.141-2.389-10.335l-13.123-8.195c-3.513-2.194-8.142-1.124-10.335,2.389
				c-2.194,3.514-1.124,8.141,2.389,10.335L151.313,216.942z"/>
		</g>
	</g>
</g>
<g>
</g>
<g>
</g>
<g>
</g>
<g>
</g>
<g>
</g>
<g>
</g>
<g>
</g>
<g>
</g>
<g>
</g>
<g>
</g>
<g>
</g>
<g>
</g>
<g>
</g>
<g>
</g>
<g>
</g>
</svg>
