<?xml version="1.0" encoding="iso-8859-1"?>
<!-- Generator: Adobe Illustrator 19.0.0, SVG Export Plug-In . SVG Version: 6.00 Build 0)  -->
<svg version="1.1" id="Capa_1" xmlns="http://www.w3.org/2000/svg" xmlns:xlink="http://www.w3.org/1999/xlink" x="0px" y="0px"
	 viewBox="0 0 512.001 512.001" style="enable-background:new 0 0 512.001 512.001;" xml:space="preserve">
<g>
	<g>
		<path d="M401.131,79.079L271.9,4.259c-9.807-5.678-21.991-5.678-31.798,0l-129.233,74.82
			c-9.766,5.654-15.832,16.176-15.832,27.461v149.755c-0.001,11.285,6.066,21.807,15.831,27.462l129.233,74.82
			c4.904,2.839,10.4,4.258,15.898,4.258c5.497,0,10.996-1.42,15.898-4.258l129.233-74.82c9.766-5.654,15.832-16.176,15.832-27.461
			V106.54C416.963,95.256,410.897,84.732,401.131,79.079z M248.5,346.067c-0.297-0.149-0.593-0.304-0.883-0.472l-129.233-74.821
			c-0.283-0.164-0.559-0.339-0.83-0.519l109.896-63.623c3.584-2.075,4.808-6.664,2.733-10.249
			c-2.076-3.585-6.664-4.809-10.249-2.733l-109.865,63.605c-0.019-0.319-0.032-0.639-0.032-0.961V106.54
			c0-0.316,0.014-0.63,0.031-0.943l130.034,75.283c2.656,1.538,5.489,2.644,8.398,3.349V346.067z M247.616,167.897L117.538,92.589
			c0.276-0.183,0.557-0.361,0.845-0.528l129.234-74.82c0.29-0.168,0.585-0.323,0.883-0.472v124.263c0,4.142,3.358,7.5,7.5,7.5
			s7.5-3.358,7.5-7.5V16.769c0.297,0.149,0.593,0.304,0.883,0.472l129.233,74.82c0.289,0.167,0.569,0.345,0.845,0.528
			l-130.079,75.309C259.211,170.892,252.786,170.891,247.616,167.897z M401.964,256.294c0,0.322-0.014,0.642-0.032,0.961
			l-109.853-63.598c-3.583-2.075-8.173-0.853-10.249,2.733c-2.075,3.585-0.852,8.173,2.733,10.249l109.883,63.615
			c-0.271,0.179-0.547,0.354-0.83,0.519l-129.232,74.82c-0.29,0.168-0.585,0.323-0.883,0.472V184.228
			c2.91-0.705,5.743-1.811,8.398-3.349l130.034-75.283c0.018,0.313,0.031,0.627,0.031,0.943V256.294z"/>
	</g>
</g>
<g>
	<g>
		<path d="M457.928,497h-19.595l-11.848-23.698c-1.974-3.949-5.433-6.783-9.518-7.978V359.116c0-4.142-3.358-7.5-7.5-7.5
			c-4.142,0-7.5,3.358-7.5,7.5v105.576h-36.154v-78.316c0-4.142-3.358-7.5-7.5-7.5s-7.5,3.358-7.5,7.5v78.316h-36.155v-51.56
			c0-4.142-3.358-7.5-7.5-7.5s-7.5,3.358-7.5,7.5v51.56H263.5v-24.81c0-4.142-3.358-7.5-7.5-7.5s-7.5,3.358-7.5,7.5v24.81h-36.155
			v-51.56c0-4.142-3.358-7.5-7.5-7.5s-7.5,3.358-7.5,7.5v51.56H161.19v-78.316c0-4.142-3.358-7.5-7.5-7.5s-7.5,3.358-7.5,7.5v78.316
			h-36.154V359.116c0-4.142-3.358-7.5-7.5-7.5s-7.5,3.358-7.5,7.5v106.21c-4.084,1.195-7.543,4.029-9.518,7.978l-11.848,23.698
			H54.073c-4.142,0-7.5,3.358-7.5,7.5s3.358,7.5,7.5,7.5h403.854c4.142,0,7.5-3.358,7.5-7.5S462.07,497,457.928,497z
			 M90.439,497.001l8.495-16.989c0.099-0.197,0.296-0.319,0.516-0.319h313.1c0.22,0,0.417,0.122,0.516,0.319l8.494,16.989H90.439z"
			/>
	</g>
</g>
<g>
	<g>
		<path d="M102.536,303.15c-4.142,0-7.5,3.358-7.5,7.5v16.154c0,4.142,3.358,7.5,7.5,7.5s7.5-3.358,7.5-7.5V310.65
			C110.036,306.508,106.678,303.15,102.536,303.15z"/>
	</g>
</g>
<g>
	<g>
		<path d="M153.691,330.41c-4.142,0-7.5,3.358-7.5,7.5v16.154c0,4.142,3.358,7.5,7.5,7.5s7.5-3.358,7.5-7.5V337.91
			C161.191,333.768,157.833,330.41,153.691,330.41z"/>
	</g>
</g>
<g>
	<g>
		<path d="M204.845,357.166c-4.142,0-7.5,3.358-7.5,7.5v16.154c0,4.142,3.358,7.5,7.5,7.5s7.5-3.358,7.5-7.5v-16.154
			C212.345,360.524,208.987,357.166,204.845,357.166z"/>
	</g>
</g>
<g>
	<g>
		<path d="M255.999,383.919c-4.142,0-7.5,3.358-7.5,7.5v16.157c0,4.142,3.358,7.5,7.5,7.5s7.5-3.358,7.5-7.5v-16.157
			C263.499,387.277,260.141,383.919,255.999,383.919z"/>
	</g>
</g>
<g>
	<g>
		<path d="M409.465,303.151c-4.142,0-7.5,3.357-7.5,7.5v16.154c0,4.142,3.358,7.5,7.5,7.5s7.5-3.358,7.5-7.5v-16.154
			C416.965,306.509,413.607,303.151,409.465,303.151z"/>
	</g>
</g>
<g>
	<g>
		<path d="M358.311,330.41c-4.142,0-7.5,3.358-7.5,7.5v16.154c0,4.142,3.358,7.5,7.5,7.5s7.5-3.358,7.5-7.5V337.91
			C365.811,333.768,362.453,330.41,358.311,330.41z"/>
	</g>
</g>
<g>
	<g>
		<path d="M307.155,357.166c-4.142,0-7.5,3.358-7.5,7.5v16.154c0,4.142,3.358,7.5,7.5,7.5s7.5-3.358,7.5-7.5v-16.154
			C314.656,360.524,311.298,357.166,307.155,357.166z"/>
	</g>
</g>
<g>
</g>
<g>
</g>
<g>
</g>
<g>
</g>
<g>
</g>
<g>
</g>
<g>
</g>
<g>
</g>
<g>
</g>
<g>
</g>
<g>
</g>
<g>
</g>
<g>
</g>
<g>
</g>
<g>
</g>
</svg>
