# Rhino

v 81.18183898925781 -231.2213287353516 -895.0489501953125
v 70.58414459228516 -178.6626434326172 -881.8795166015625
v 80.45933532714844 -231.3925323486328 -894.9470825195313
v 69.86164855957031 -178.8338470458984 -881.7776489257813
v 79.79392242431641 -231.6270294189453 -894.5466918945313
v 69.19622802734375 -179.0683441162109 -881.3772583007813
v 79.35684204101563 -231.8747406005859 -893.9097900390625
v 68.75914764404297 -179.3160552978516 -880.7403564453125
v 79.21902465820313 -232.0798187255859 -893.2022705078125
v 68.621337890625 -179.5211334228516 -880.0327758789063
v 79.35684204101563 -232.2326049804688 -892.4815673828125
v 68.75914764404297 -179.6739196777344 -879.3121337890625
v 79.79392242431641 -232.3144836425781 -891.8031005859375
v 69.19622802734375 -179.7557983398438 -878.6336669921875
v 80.45933532714844 -232.2964782714844 -891.3394775390625
v 69.86164855957031 -179.73779296875 -878.1699829101563
v 81.18183898925781 -232.1935424804688 -891.1688842773438
v 70.58414459228516 -179.6348571777344 -877.9994506835938
v 77.64926910400391 -214.6739807128906 -886.7791137695313
v 74.11670684814453 -197.1544189453125 -882.3892822265625
v 74.11670684814453 -196.1822052001953 -886.269287109375
v 77.64926910400391 -213.7017669677734 -890.6591186523438
v 75.16049194335938 -205.1131896972656 -888.3623657226563
v 74.05799102783203 -205.5953979492188 -887.3250732421875
v 73.92018127441406 -205.8004760742188 -886.6174926757813
v 74.05799102783203 -205.9532623291016 -885.8968505859375
v 74.49507141113281 -206.0351409912109 -885.2183837890625
v 75.16049194335938 -206.0171356201172 -884.7547607421875
v 81.18183898925781 -232.1935424804688 -891.1688842773438
v 80.45933532714844 -232.2964782714844 -891.3394775390625
v 79.79392242431641 -232.3144836425781 -891.8031005859375
v 79.35684204101563 -232.2326049804688 -892.4815673828125
v 79.21902465820313 -232.0798187255859 -893.2022705078125
v 79.35684204101563 -231.8747406005859 -893.9097900390625
v 79.79392242431641 -231.6270294189453 -894.5466918945313
v 80.45933532714844 -231.3925323486328 -894.9470825195313
v 81.18183898925781 -231.2213287353516 -895.0489501953125
v 81.90433502197266 -231.1183776855469 -894.87841796875
v 82.56974792480469 -231.1003875732422 -894.4147338867188
v 83.0068359375 -231.1822509765625 -893.7362670898438
v 83.14464569091797 -231.3350372314453 -893.015625
v 83.0068359375 -231.5401153564453 -892.3080444335938
v 82.56974792480469 -231.787841796875 -891.671142578125
v 81.90433502197266 -232.0223388671875 -891.270751953125
v 70.58414459228516 -178.6626434326172 -881.8795166015625
v 69.86164855957031 -178.8338470458984 -881.7776489257813
v 69.19622802734375 -179.0683441162109 -881.3772583007813
v 68.75914764404297 -179.3160552978516 -880.7403564453125
v 68.621337890625 -179.5211334228516 -880.0327758789063
v 68.75914764404297 -179.6739196777344 -879.3121337890625
v 69.19622802734375 -179.7557983398438 -878.6336669921875
v 69.86164855957031 -179.73779296875 -878.1699829101563
v 70.58414459228516 -179.6348571777344 -877.9994506835938
v 71.30664825439453 -179.4636535644531 -878.101318359375
v 71.97206115722656 -179.2291564941406 -878.5016479492188
v 72.40914154052734 -178.9814300537109 -879.1386108398438
v 72.54695129394531 -178.7763519287109 -879.8461303710938
v 72.40914154052734 -178.6235656738281 -880.5668334960938
v 71.97206115722656 -178.5417022705078 -881.2453002929688
v 71.30664825439453 -178.5596923828125 -881.7089233398438
v 81.18183898925781 -232.1935424804688 -891.1688842773438
v 70.58414459228516 -179.6348571777344 -877.9994506835938
v 81.90433502197266 -232.0223388671875 -891.270751953125
v 71.30664825439453 -179.4636535644531 -878.101318359375
v 82.56974792480469 -231.787841796875 -891.671142578125
v 71.97206115722656 -179.2291564941406 -878.5016479492188
v 83.0068359375 -231.5401153564453 -892.3080444335938
v 72.40914154052734 -178.9814300537109 -879.1386108398438
v 83.14464569091797 -231.3350372314453 -893.015625
v 72.54695129394531 -178.7763519287109 -879.8461303710938
v 83.0068359375 -231.1822509765625 -893.7362670898438
v 72.40914154052734 -178.6235656738281 -880.5668334960938
v 82.56974792480469 -231.1003875732422 -894.4147338867188
v 71.97206115722656 -178.5417022705078 -881.2453002929688
v 81.90433502197266 -231.1183776855469 -894.87841796875
v 71.30664825439453 -178.5596923828125 -881.7089233398438
v 81.18183898925781 -231.2213287353516 -895.0489501953125
v 70.58414459228516 -178.6626434326172 -881.8795166015625
v 74.11670684814453 -197.1544189453125 -882.3892822265625
v 77.64926910400391 -214.6739807128906 -886.7791137695313
v 77.64926910400391 -213.7017669677734 -890.6591186523438
v 74.11670684814453 -196.1822052001953 -886.269287109375
v 76.60549163818359 -205.7429962158203 -884.68603515625
v 77.70798492431641 -205.2607727050781 -885.7233276367188
v 77.84580230712891 -205.0556945800781 -886.430908203125
v 77.70798492431641 -204.9029083251953 -887.1515502929688
v 77.27090454101563 -204.821044921875 -887.8300170898438
v 76.60549163818359 -204.8390350341797 -888.2936401367188
vt 0.99853515625 0.5046318769454956
vt 0.1015851423144341 0.5046318769454956
vt 0.99853515625 0.5173299908638001
vt 0.1015851423144341 0.5173299908638001
vt 0.99853515625 0.5300281643867493
vt 0.1015851423144341 0.5300281643867493
vt 0.99853515625 0.5427262783050537
vt 0.1015851423144341 0.5427262783050537
vt 0.99853515625 0.5554244518280029
vt 0.1015851423144341 0.5554244518280029
vt 0.99853515625 0.5681225657463074
vt 0.1015851423144341 0.5681225657463074
vt 0.99853515625 0.5808207392692566
vt 0.1015851423144341 0.5808207392692566
vt 0.99853515625 0.593518853187561
vt 0.1015851423144341 0.593518853187561
vt 0.99853515625 0.6062170267105103
vt 0.1015851423144341 0.6062170267105103
vt 0.6995518207550049 0.6062170267105103
vt 0.4005684554576874 0.6062170267105103
vt 0.4005684554576874 0.5046318769454956
vt 0.6995518207550049 0.5046318769454956
vt 0.5500601530075073 0.5173299908638001
vt 0.5500601530075073 0.5427262783050537
vt 0.5500601530075073 0.5554244518280029
vt 0.5500601530075073 0.5681225657463074
vt 0.5500601530075073 0.5808207392692566
vt 0.5500601530075073 0.593518853187561
vt 0.1015851423144341 0.03254527226090431
vt 0.1038701981306076 0.02056553028523922
vt 0.1111174300312996 0.009532290510833263
vt 0.1221506670117378 0.002285059075802565
vt 0.1341304183006287 0
vt 0.1461101472377777 0.002285059075802565
vt 0.1571433991193771 0.009532290510833263
vt 0.1643906235694885 0.02056553028523922
vt 0.1666756868362427 0.03254527226090431
vt 0.1643906235694885 0.04452501609921455
vt 0.1571433991193771 0.05555825680494309
vt 0.1461101472377777 0.06280548870563507
vt 0.1341304183006287 0.06509054452180862
vt 0.1221506670117378 0.06280548870563507
vt 0.1111174300312996 0.05555825680494309
vt 0.1038701981306076 0.04452501609921455
vt 0.1015851423144341 0.2848612070083618
vt 0.1038701981306076 0.2728814780712128
vt 0.1111174300312996 0.2618482410907745
vt 0.1221506670117378 0.254601001739502
vt 0.1341304183006287 0.2523159384727478
vt 0.1461101472377777 0.254601001739502
vt 0.1571433991193771 0.2618482410907745
vt 0.1643906235694885 0.2728814780712128
vt 0.1666756868362427 0.2848612070083618
vt 0.1643906235694885 0.2968409657478333
vt 0.1571433991193771 0.3078742027282715
vt 0.1461101472377777 0.3151214122772217
vt 0.1341304183006287 0.3174064755439758
vt 0.1221506670117378 0.3151214122772217
vt 0.1111174300312996 0.3078742027282715
vt 0.1038701981306076 0.2968409657478333
vt 0 0
vt 0 0.8969500064849854
vt 0.01251503732055426 0
vt 0.01251503732055426 0.8969500064849854
vt 0.02503007464110851 0
vt 0.02503007464110851 0.8969500064849854
vt 0.0375451110303402 0
vt 0.0375451110303402 0.8969500064849854
vt 0.05006014928221703 0
vt 0.05006014928221703 0.8969500064849854
vt 0.06257518380880356 0
vt 0.06257518380880356 0.8969500064849854
vt 0.07509022206068039 0
vt 0.07509022206068039 0.8969500064849854
vt 0.08760526031255722 0
vt 0.08760526031255722 0.8969500064849854
vt 0.1001202985644341 0
vt 0.1001202985644341 0.8969500064849854
vt 0 0.5979666709899902
vt 0 0.2989833354949951
vt 0.1001202985644341 0.2989833354949951
vt 0.1001202985644341 0.5979666709899902
vt 0.01251503732055426 0.4484750032424927
vt 0.0375451110303402 0.4484750032424927
vt 0.05006014928221703 0.4484750032424927
vt 0.06257518380880356 0.4484750032424927
vt 0.07509022206068039 0.4484750032424927
vt 0.08760526031255722 0.4484750032424927
vn -5.997722392521443e-14 0.2430531829595566 -0.9700129628181458
vn -5.808896386908652e-14 0.2430531829595566 -0.9700129628181458
vn -0.3612497448921204 0.1574503481388092 -0.9190799593925476
vn -0.3612497448921204 0.1574503481388092 -0.9190799593925476
vn -0.6939576864242554 0.04020427912473679 -0.7188924551010132
vn -0.6939576864242554 0.04020427912473679 -0.7188924551010132
vn -0.9124982953071594 -0.08365604281425476 -0.4004354476928711
vn -0.9124982953071594 -0.08365604281425476 -0.4004354476928711
vn -0.9814043641090393 -0.1861957460641861 -0.04665450006723404
vn -0.9814043641090393 -0.1861957460641861 -0.04665450006723404
vn -0.9124982953071594 -0.2625892162322998 0.3136778175830841
vn -0.9124982953071594 -0.2625892162322998 0.3136778175830841
vn -0.6939576864242554 -0.3035248517990112 0.6529130339622498
vn -0.6939576864242554 -0.3035248517990112 0.6529130339622498
vn -0.3612497448921204 -0.294525682926178 0.8847334384918213
vn -0.3612497448921204 -0.294525682926178 0.8847334384918213
vn -3.896361586239877e-13 -0.2430531829595566 0.9700129628181458
vn -4.27216313540757e-13 -0.2430531829595566 0.9700129628181458
vn -3.952810301299792e-13 -0.2430531829595566 0.9700129628181458
vn -3.351693922404309e-13 -0.2430531829595566 0.9700129628181458
vn 3.885780586188048e-15 0.2430531829595566 -0.9700129628181458
vn -2.239181062790863e-14 0.2430531829595566 -0.9700129628181458
vn -0.3612497448921204 0.1574503481388092 -0.9190799593925476
vn -0.9124982953071594 -0.08365604281425476 -0.4004354476928711
vn -0.9814043641090393 -0.1861957460641861 -0.04665450006723404
vn -0.9124982953071594 -0.2625892162322998 0.3136778175830841
vn -0.6939576864242554 -0.3035248517990112 0.6529130339622498
vn -0.3612497448921204 -0.294525682926178 0.8847334384918213
vn 0.1919518262147903 -0.9519749283790588 -0.2385334521532059
vn 0.1919518262147903 -0.9519749283790588 -0.2385334521532059
vn 0.1919518262147903 -0.9519749283790588 -0.2385334521532059
vn 0.1919518262147903 -0.9519749283790588 -0.2385334521532059
vn 0.1919518262147903 -0.9519749283790588 -0.2385334521532059
vn 0.1919518262147903 -0.9519749283790588 -0.2385334521532059
vn 0.1919518262147903 -0.9519749283790588 -0.2385334521532059
vn 0.1919518262147903 -0.9519749283790588 -0.2385334521532059
vn 0.1919518262147903 -0.9519749283790588 -0.2385334521532059
vn 0.1919518262147903 -0.9519749283790588 -0.2385334521532059
vn 0.1919518262147903 -0.9519749283790588 -0.2385334521532059
vn 0.1919518262147903 -0.9519749283790588 -0.2385334521532059
vn 0.1919518262147903 -0.9519749283790588 -0.2385334521532059
vn 0.1919518262147903 -0.9519749283790588 -0.2385334521532059
vn 0.1919518262147903 -0.9519749283790588 -0.2385334521532059
vn 0.1919518262147903 -0.9519749283790588 -0.2385334521532059
vn -0.1919518262147903 0.9519749283790588 0.2385334521532059
vn -0.1919518262147903 0.9519749283790588 0.2385334521532059
vn -0.1919518262147903 0.9519749283790588 0.2385334521532059
vn -0.1919518262147903 0.9519749283790588 0.2385334521532059
vn -0.1919518262147903 0.9519749283790588 0.2385334521532059
vn -0.1919518262147903 0.9519749283790588 0.2385334521532059
vn -0.1919518262147903 0.9519749283790588 0.2385334521532059
vn -0.1919518262147903 0.9519749283790588 0.2385334521532059
vn -0.1919518262147903 0.9519749283790588 0.2385334521532059
vn -0.1919518262147903 0.9519749283790588 0.2385334521532059
vn -0.1919518262147903 0.9519749283790588 0.2385334521532059
vn -0.1919518262147903 0.9519749283790588 0.2385334521532059
vn -0.1919518262147903 0.9519749283790588 0.2385334521532059
vn -0.1919518262147903 0.9519749283790588 0.2385334521532059
vn -0.1919518262147903 0.9519749283790588 0.2385334521532059
vn -0.1919518262147903 0.9519749283790588 0.2385334521532059
vn -8.092532131639496e-16 -0.2430531829595566 0.9700129628181458
vn 2.736046523892088e-14 -0.2430531829595566 0.9700129628181458
vn 0.3612497448921204 -0.1574503481388092 0.9190799593925476
vn 0.3612497448921204 -0.1574503481388092 0.9190799593925476
vn 0.6939576864242554 -0.04020427912473679 0.7188924551010132
vn 0.6939576864242554 -0.04020427912473679 0.7188924551010132
vn 0.9124982953071594 0.08365604281425476 0.4004354476928711
vn 0.9124982953071594 0.08365604281425476 0.4004354476928711
vn 0.9814043641090393 0.1861957460641861 0.04665450006723404
vn 0.9814043641090393 0.1861957460641861 0.04665450006723404
vn 0.9124982953071594 0.2625892162322998 -0.3136778175830841
vn 0.9124982953071594 0.2625892162322998 -0.3136778175830841
vn 0.6939576864242554 0.3035248517990112 -0.6529130339622498
vn 0.6939576864242554 0.3035248517990112 -0.6529130339622498
vn 0.3612497448921204 0.294525682926178 -0.8847334384918213
vn 0.3612497448921204 0.294525682926178 -0.8847334384918213
vn -1.200854736829737e-13 0.2430531829595566 -0.9700129628181458
vn 6.050131031473498e-15 0.2430531829595566 -0.9700129628181458
vn 5.739159147921669e-14 -0.2430531829595566 0.9700129628181458
vn 1.475486399726833e-13 -0.2430531829595566 0.9700129628181458
vn -4.485301019485632e-14 0.2430531829595566 -0.9700129628181458
vn -7.195632978351796e-15 0.2430531829595566 -0.9700129628181458
vn 0.3612497448921204 -0.1574503481388092 0.9190799593925476
vn 0.9124982953071594 0.08365604281425476 0.4004354476928711
vn 0.9814043641090393 0.1861957460641861 0.04665450006723404
vn 0.9124982953071594 0.2625892162322998 -0.3136778175830841
vn 0.6939576864242554 0.3035248517990112 -0.6529130339622498
vn 0.3612497448921204 0.294525682926178 -0.8847334384918213
f 22/22/22 1/1/1 3/3/3 23/23/23
f 24/24/24 23/23/23 5/5/5
f 9/9/9 25/25/25 24/24/24 7/7/7
f 24/24/24 5/5/5 7/7/7
f 3/3/3 5/5/5 23/23/23
f 21/21/21 22/22/22 23/23/23
f 2/2/2 21/21/21 4/4/4
f 4/4/4 21/21/21 23/23/23
f 8/8/8 24/24/24 25/25/25 10/10/10
f 24/24/24 8/8/8 6/6/6
f 23/23/23 6/6/6 4/4/4
f 23/23/23 24/24/24 6/6/6
f 25/25/25 9/9/9 11/11/11 26/26/26
f 26/26/26 11/11/11 13/13/13 27/27/27
f 10/10/10 25/25/25 26/26/26 12/12/12
f 19/19/19 15/15/15 17/17/17
f 19/19/19 28/28/28 15/15/15
f 15/15/15 28/28/28 27/27/27 13/13/13
f 27/27/27 14/14/14 12/12/12 26/26/26
f 16/16/16 28/28/28 20/20/20 18/18/18
f 19/19/19 20/20/20 28/28/28
f 28/28/28 16/16/16 14/14/14 27/27/27
f 31/31/31 44/44/44 30/30/30
f 31/31/31 32/32/32 33/33/33
f 31/31/31 37/37/37 42/42/42
f 44/44/44 29/29/29 30/30/30
f 31/31/31 43/43/43 44/44/44
f 31/31/31 42/42/42 43/43/43
f 35/35/35 31/31/31 33/33/33
f 31/31/31 35/35/35 37/37/37
f 35/35/35 36/36/36 37/37/37
f 41/41/41 42/42/42 37/37/37
f 39/39/39 40/40/40 41/41/41
f 37/37/37 39/39/39 41/41/41
f 39/39/39 37/37/37 38/38/38
f 34/34/34 35/35/35 33/33/33
f 46/46/46 52/52/52 45/45/45
f 52/52/52 46/46/46 47/47/47
f 45/45/45 54/54/54 60/60/60
f 59/59/59 56/56/56 58/58/58
f 58/58/58 56/56/56 57/57/57
f 60/60/60 55/55/55 59/59/59
f 47/47/47 48/48/48 51/51/51
f 48/48/48 50/50/50 51/51/51
f 51/51/51 52/52/52 47/47/47
f 45/45/45 52/52/52 53/53/53
f 55/55/55 56/56/56 59/59/59
f 55/55/55 60/60/60 54/54/54
f 45/45/45 53/53/53 54/54/54
f 50/50/50 48/48/48 49/49/49
f 80/80/80 61/61/61 63/63/63
f 83/83/83 80/80/80 63/63/63
f 84/84/84 83/83/83 65/65/65
f 69/69/69 85/85/85 84/84/84 67/67/67
f 84/84/84 65/65/65 67/67/67
f 63/63/63 65/65/65 83/83/83
f 79/79/79 80/80/80 83/83/83
f 62/62/62 79/79/79 83/83/83 64/64/64
f 68/68/68 84/84/84 85/85/85 70/70/70
f 84/84/84 68/68/68 66/66/66
f 83/83/83 66/66/66 64/64/64
f 83/83/83 84/84/84 66/66/66
f 85/85/85 69/69/69 71/71/71 86/86/86
f 86/86/86 71/71/71 73/73/73 87/87/87
f 70/70/70 85/85/85 86/86/86 72/72/72
f 77/77/77 81/81/81 88/88/88 75/75/75
f 75/75/75 88/88/88 87/87/87 73/73/73
f 87/87/87 74/74/74 72/72/72 86/86/86
f 76/76/76 88/88/88 82/82/82 78/78/78
f 81/81/81 82/82/82 88/88/88
f 88/88/88 76/76/76 74/74/74 87/87/87
