# Rhino

v 124.7641143798828 -227.6104888916016 -870.5205078125
v 70.84519195556641 -187.5667724609375 -893.123046875
v 124.8689041137695 -227.8632354736328 -871.2182006835938
v 70.94998168945313 -187.8195037841797 -893.82080078125
v 124.776985168457 -228.3497161865234 -871.86083984375
v 70.85806274414063 -188.3059844970703 -894.46337890625
v 124.4867706298828 -228.9787445068359 -872.282958984375
v 70.56785583496094 -188.9350128173828 -894.885498046875
v 124.0837936401367 -229.5964660644531 -872.416015625
v 70.16487884521484 -189.5527496337891 -895.0185546875
v 123.6089019775391 -230.1607971191406 -872.282958984375
v 69.68998718261719 -190.1170654296875 -894.885498046875
v 123.0906066894531 -230.6204223632813 -871.86083984375
v 69.17168426513672 -190.5767059326172 -894.46337890625
v 122.6514511108398 -230.8490295410156 -871.2182006835938
v 68.73252868652344 -190.8053131103516 -893.82080078125
v 122.3792114257813 -230.8217620849609 -870.5205078125
v 68.46029663085938 -190.7780456542969 -893.123046875
v 95.41975402832031 -210.7998962402344 -881.82177734375
v 97.80465698242188 -207.5886383056641 -881.82177734375
v 122.3792114257813 -230.8217620849609 -870.5205078125
v 122.6514511108398 -230.8490295410156 -871.2182006835938
v 123.0906066894531 -230.6204223632813 -871.86083984375
v 123.6089019775391 -230.1607971191406 -872.282958984375
v 124.0837936401367 -229.5964660644531 -872.416015625
v 124.4867706298828 -228.9787445068359 -872.282958984375
v 124.776985168457 -228.3497161865234 -871.86083984375
v 124.8689041137695 -227.8632354736328 -871.2182006835938
v 124.7641143798828 -227.6104888916016 -870.5205078125
v 124.4918746948242 -227.5832214355469 -869.82275390625
v 124.0527191162109 -227.8118286132813 -869.1801147460938
v 123.534423828125 -228.2714691162109 -868.758056640625
v 123.0595321655273 -228.8357849121094 -868.6249389648438
v 122.6565551757813 -229.4535217285156 -868.758056640625
v 122.366340637207 -230.0825347900391 -869.1801147460938
v 122.2744293212891 -230.5690307617188 -869.82275390625
v 70.84519195556641 -187.5667724609375 -893.123046875
v 70.94998168945313 -187.8195037841797 -893.82080078125
v 70.85806274414063 -188.3059844970703 -894.46337890625
v 70.56785583496094 -188.9350128173828 -894.885498046875
v 70.16487884521484 -189.5527496337891 -895.0185546875
v 69.68998718261719 -190.1170654296875 -894.885498046875
v 69.17168426513672 -190.5767059326172 -894.46337890625
v 68.73252868652344 -190.8053131103516 -893.82080078125
v 68.46029663085938 -190.7780456542969 -893.123046875
v 68.35550689697266 -190.5252990722656 -892.42529296875
v 68.44742584228516 -190.038818359375 -891.78271484375
v 68.73763275146484 -189.4097900390625 -891.360595703125
v 69.14060974121094 -188.7920684814453 -891.2274780273438
v 69.61550140380859 -188.2277374267578 -891.360595703125
v 70.13380432128906 -187.7681121826172 -891.78271484375
v 70.57295989990234 -187.5395050048828 -892.42529296875
v 122.3792114257813 -230.8217620849609 -870.5205078125
v 68.46029663085938 -190.7780456542969 -893.123046875
v 122.2744293212891 -230.5690307617188 -869.82275390625
v 68.35550689697266 -190.5252990722656 -892.42529296875
v 122.366340637207 -230.0825347900391 -869.1801147460938
v 68.44742584228516 -190.038818359375 -891.78271484375
v 122.6565551757813 -229.4535217285156 -868.758056640625
v 68.73763275146484 -189.4097900390625 -891.360595703125
v 123.0595321655273 -228.8357849121094 -868.6249389648438
v 69.14060974121094 -188.7920684814453 -891.2274780273438
v 123.534423828125 -228.2714691162109 -868.758056640625
v 69.61550140380859 -188.2277374267578 -891.360595703125
v 124.0527191162109 -227.8118286132813 -869.1801147460938
v 70.13380432128906 -187.7681121826172 -891.78271484375
v 124.4918746948242 -227.5832214355469 -869.82275390625
v 70.57295989990234 -187.5395050048828 -892.42529296875
v 124.7641143798828 -227.6104888916016 -870.5205078125
v 70.84519195556641 -187.5667724609375 -893.123046875
v 95.41975402832031 -210.7998962402344 -881.82177734375
v 97.80465698242188 -207.5886383056641 -881.82177734375
vt 0 0
vt 0 0.9175727367401123
vt 0.009937195107340813 0
vt 0.009937195107340813 0.9175727367401123
vt 0.01987439021468163 0
vt 0.01987439021468163 0.9175727367401123
vt 0.02981158532202244 0
vt 0.02981158532202244 0.9175727367401123
vt 0.03974878042936325 0
vt 0.03974878042936325 0.9175727367401123
vt 0.04968597367405891 0
vt 0.04968597367405891 0.9175727367401123
vt 0.05962317064404488 0
vt 0.05962317064404488 0.9175727367401123
vt 0.06956036388874054 0
vt 0.06956036388874054 0.9175727367401123
vt 0.0794975608587265 0
vt 0.0794975608587265 0.9175727367401123
vt 0.0794975608587265 0.4587863683700562
vt 0 0.4587863683700562
vt 0.1069006770849228 0
vt 0.116448424756527 0.001821170561015606
vt 0.1252418160438538 0.007597146090120077
vt 0.1310177892446518 0.01639053598046303
vt 0.1328389644622803 0.02593827806413174
vt 0.1310177892446518 0.03548602014780045
vt 0.1252418160438538 0.04427941143512726
vt 0.116448424756527 0.05005538463592529
vt 0.1069006770849228 0.05187655612826347
vt 0.09735293686389923 0.05005538463592529
vt 0.08855954557657242 0.04427941143512726
vt 0.08278357237577438 0.03548602014780045
vt 0.0809624046087265 0.02593827806413174
vt 0.08278357237577438 0.01639053598046303
vt 0.08855954557657242 0.007597146090120077
vt 0.09735293686389923 0.001821170561015606
vt 0.0809624046087265 0.2840460240840912
vt 0.08278357237577438 0.2744982838630676
vt 0.08855954557657242 0.2657049000263214
vt 0.09735293686389923 0.2599289119243622
vt 0.1069006770849228 0.2581077516078949
vt 0.116448424756527 0.2599289119243622
vt 0.1252418160438538 0.2657049000263214
vt 0.1310177892446518 0.2744982838630676
vt 0.1328389644622803 0.2840460240840912
vt 0.1310177892446518 0.2935937643051148
vt 0.1252418160438538 0.302387148141861
vt 0.116448424756527 0.3081631362438202
vt 0.1069006770849228 0.3099842965602875
vt 0.09735293686389923 0.3081631362438202
vt 0.08855954557657242 0.302387148141861
vt 0.08278357237577438 0.2935937643051148
vt 0.99853515625 0.5162155032157898
vt 0.0809624046087265 0.5162155032157898
vt 0.99853515625 0.5263357758522034
vt 0.0809624046087265 0.5263357758522034
vt 0.99853515625 0.5364561080932617
vt 0.0809624046087265 0.5364561080932617
vt 0.99853515625 0.5465763807296753
vt 0.0809624046087265 0.5465763807296753
vt 0.99853515625 0.5566967129707336
vt 0.0809624046087265 0.5566967129707336
vt 0.99853515625 0.5668169856071472
vt 0.0809624046087265 0.5668169856071472
vt 0.99853515625 0.5769373178482056
vt 0.0809624046087265 0.5769373178482056
vt 0.99853515625 0.5870575904846191
vt 0.0809624046087265 0.5870575904846191
vt 0.99853515625 0.5971778631210327
vt 0.0809624046087265 0.5971778631210327
vt 0.5397487878799439 0.5162155032157898
vt 0.5397487878799439 0.5971778631210327
vn 0.5962249040603638 0.8028174638748169 -2.962637324051623e-14
vn 0.5962249040603638 0.8028174638748169 -1.208176489625804e-13
vn 0.6486194729804993 0.676449179649353 -0.3488685488700867
vn 0.6486194729804993 0.676449179649353 -0.3488685488700867
vn 0.6026607155799866 0.4332061409950256 -0.6701734662055969
vn 0.6026607155799866 0.4332061409950256 -0.6701734662055969
vn 0.4575544893741608 0.1186936497688294 -0.8812239766120911
vn 0.4575544893741608 0.1186936497688294 -0.8812239766120911
vn 0.2560661137104034 -0.190171480178833 -0.9477683901786804
vn 0.2560661137104034 -0.190171480178833 -0.9477683901786804
vn 0.01862004958093166 -0.472332090139389 -0.8812239766120911
vn 0.01862004958093166 -0.472332090139389 -0.8812239766120911
vn -0.2405285686254501 -0.7021492123603821 -0.6701734662055969
vn -0.2405285686254501 -0.7021492123603821 -0.6701734662055969
vn -0.4601063430309296 -0.8164514303207398 -0.3488685488700867
vn -0.4601063430309296 -0.8164514303207398 -0.3488685488700867
vn -0.5962249040603638 -0.8028174638748169 3.37389214873432e-13
vn -0.5962249040603638 -0.8028174638748169 \
 -2.913003226221594e-13
vn -0.5962249040603638 -0.8028174638748169 2.550737399076297e-14
vn 0.5962249040603638 0.8028174638748169 -7.355227538141662e-14
vn 0.7608850598335266 -0.5650830864906311 0.3189592957496643
vn 0.7608850598335266 -0.5650830864906311 0.3189592957496643
vn 0.7608850598335266 -0.5650830864906311 0.3189592957496643
vn 0.7608850598335266 -0.5650830864906311 0.3189592957496643
vn 0.7608850598335266 -0.5650830864906311 0.3189592957496643
vn 0.7608850598335266 -0.5650830864906311 0.3189592957496643
vn 0.7608850598335266 -0.5650830864906311 0.3189592957496643
vn 0.7608850598335266 -0.5650830864906311 0.3189592957496643
vn 0.7608850598335266 -0.5650830864906311 0.3189592957496643
vn 0.7608850598335266 -0.5650830864906311 0.3189592957496643
vn 0.7608850598335266 -0.5650830864906311 0.3189592957496643
vn 0.7608850598335266 -0.5650830864906311 0.3189592957496643
vn 0.7608850598335266 -0.5650830864906311 0.3189592957496643
vn 0.7608850598335266 -0.5650830864906311 0.3189592957496643
vn 0.7608850598335266 -0.5650830864906311 0.3189592957496643
vn 0.7608850598335266 -0.5650830864906311 0.3189592957496643
vn -0.7608850598335266 0.5650830864906311 -0.3189592957496643
vn -0.7608850598335266 0.5650830864906311 -0.3189592957496643
vn -0.7608850598335266 0.5650830864906311 -0.3189592957496643
vn -0.7608850598335266 0.5650830864906311 -0.3189592957496643
vn -0.7608850598335266 0.5650830864906311 -0.3189592957496643
vn -0.7608850598335266 0.5650830864906311 -0.3189592957496643
vn -0.7608850598335266 0.5650830864906311 -0.3189592957496643
vn -0.7608850598335266 0.5650830864906311 -0.3189592957496643
vn -0.7608850598335266 0.5650830864906311 -0.3189592957496643
vn -0.7608850598335266 0.5650830864906311 -0.3189592957496643
vn -0.7608850598335266 0.5650830864906311 -0.3189592957496643
vn -0.7608850598335266 0.5650830864906311 -0.3189592957496643
vn -0.7608850598335266 0.5650830864906311 -0.3189592957496643
vn -0.7608850598335266 0.5650830864906311 -0.3189592957496643
vn -0.7608850598335266 0.5650830864906311 -0.3189592957496643
vn -0.7608850598335266 0.5650830864906311 -0.3189592957496643
vn -0.5962249040603638 -0.8028174638748169 -3.65474171109062e-13
vn -0.5962249040603638 -0.8028174638748169 1.302512243027409e-13
vn -0.6486194729804993 -0.676449179649353 0.3488685488700867
vn -0.6486194729804993 -0.676449179649353 0.3488685488700867
vn -0.6026607155799866 -0.4332061409950256 0.6701734662055969
vn -0.6026607155799866 -0.4332061409950256 0.6701734662055969
vn -0.4575544893741608 -0.1186936497688294 0.8812239766120911
vn -0.4575544893741608 -0.1186936497688294 0.8812239766120911
vn -0.2560661137104034 0.190171480178833 0.9477683901786804
vn -0.2560661137104034 0.190171480178833 0.9477683901786804
vn -0.01862004958093166 0.472332090139389 0.8812239766120911
vn -0.01862004958093166 0.472332090139389 0.8812239766120911
vn 0.2405285686254501 0.7021492123603821 0.6701734662055969
vn 0.2405285686254501 0.7021492123603821 0.6701734662055969
vn 0.4601063430309296 0.8164514303207398 0.3488685488700867
vn 0.4601063430309296 0.8164514303207398 0.3488685488700867
vn 0.5962249040603638 0.8028174638748169 -1.917544695619923e-14
vn 0.5962249040603638 0.8028174638748169 -9.627800672592363e-14
vn -0.5962249040603638 -0.8028174638748169 -9.71445146547012e-14
vn 0.5962249040603638 0.8028174638748169 -6.397660179402465e-14
f 20/20/20 1/1/1 3/3/3
f 7/7/7 8/8/8 6/6/6 5/5/5
f 8/8/8 7/7/7 9/9/9 10/10/10
f 5/5/5 6/6/6 4/4/4 3/3/3
f 4/4/4 2/2/2 20/20/20
f 3/3/3 4/4/4 20/20/20
f 13/13/13 14/14/14 12/12/12 11/11/11
f 19/19/19 15/15/15 17/17/17
f 15/15/15 16/16/16 14/14/14 13/13/13
f 15/15/15 19/19/19 16/16/16
f 11/11/11 12/12/12 10/10/10 9/9/9
f 19/19/19 18/18/18 16/16/16
f 23/23/23 21/21/21 22/22/22
f 23/23/23 24/24/24 25/25/25
f 23/23/23 26/26/26 21/21/21
f 34/34/34 36/36/36 21/21/21
f 36/36/36 34/34/34 35/35/35
f 33/33/33 34/34/34 21/21/21
f 25/25/25 26/26/26 23/23/23
f 28/28/28 26/26/26 27/27/27
f 28/28/28 29/29/29 21/21/21
f 29/29/29 31/31/31 21/21/21
f 31/31/31 32/32/32 33/33/33
f 31/31/31 33/33/33 21/21/21
f 31/31/31 29/29/29 30/30/30
f 28/28/28 21/21/21 26/26/26
f 40/40/40 38/38/38 39/39/39
f 51/51/51 38/38/38 40/40/40
f 51/51/51 40/40/40 49/49/49
f 51/51/51 52/52/52 37/37/37
f 38/38/38 51/51/51 37/37/37
f 50/50/50 51/51/51 49/49/49
f 43/43/43 40/40/40 41/41/41
f 49/49/49 40/40/40 43/43/43
f 46/46/46 43/43/43 44/44/44
f 44/44/44 45/45/45 46/46/46
f 47/47/47 48/48/48 49/49/49
f 43/43/43 47/47/47 49/49/49
f 47/47/47 43/43/43 46/46/46
f 42/42/42 43/43/43 41/41/41
f 71/71/71 53/53/53 55/55/55
f 59/59/59 60/60/60 58/58/58 57/57/57
f 60/60/60 59/59/59 61/61/61 62/62/62
f 57/57/57 58/58/58 56/56/56 55/55/55
f 56/56/56 54/54/54 71/71/71
f 55/55/55 56/56/56 71/71/71
f 65/65/65 66/66/66 64/64/64 63/63/63
f 72/72/72 67/67/67 69/69/69
f 67/67/67 68/68/68 66/66/66 65/65/65
f 67/67/67 72/72/72 68/68/68
f 63/63/63 64/64/64 62/62/62 61/61/61
f 72/72/72 70/70/70 68/68/68
