# Rhino

v 140.9508514404297 -210.9020690917969 -891.8187866210938
v 58.94831466674805 -203.5764923095703 -890.4657592773438
v 140.9753875732422 -210.7632904052734 -891.0827026367188
v 58.97285842895508 -203.4377136230469 -889.7296752929688
v 141.0261077880859 -210.3206787109375 -890.40478515625
v 59.02358627319336 -202.9951019287109 -889.0517578125
v 141.0937347412109 -209.64599609375 -889.95947265625
v 59.09120559692383 -202.3204193115234 -888.6064453125
v 141.1615447998047 -208.9129333496094 -889.8190307617188
v 59.15900802612305 -201.5873565673828 -888.466064453125
v 141.2247467041016 -208.1794586181641 -889.95947265625
v 59.22221374511719 -200.8538818359375 -888.6064453125
v 141.2777862548828 -207.5034790039063 -890.40478515625
v 59.2752571105957 -200.1779022216797 -889.0517578125
v 141.3063201904297 -207.0588836669922 -891.0827026367188
v 59.30378723144531 -199.7333068847656 -889.7296752929688
v 141.3067626953125 -206.9179382324219 -891.8187866210938
v 59.30423355102539 -199.5923614501953 -890.4657592773438
v 100.3054962158203 -203.2551574707031 -891.1422729492188
v 99.94957733154297 -207.2392883300781 -891.1422729492188
v 141.3067626953125 -206.9179382324219 -891.8187866210938
v 141.3063201904297 -207.0588836669922 -891.0827026367188
v 141.2777862548828 -207.5034790039063 -890.40478515625
v 141.2247467041016 -208.1794586181641 -889.95947265625
v 141.1615447998047 -208.9129333496094 -889.8190307617188
v 141.0937347412109 -209.64599609375 -889.95947265625
v 141.0261077880859 -210.3206787109375 -890.40478515625
v 140.9753875732422 -210.7632904052734 -891.0827026367188
v 140.9508514404297 -210.9020690917969 -891.8187866210938
v 140.9512939453125 -210.7611389160156 -892.5548706054688
v 140.9798278808594 -210.3165435791016 -893.2327880859375
v 141.0328674316406 -209.6405639648438 -893.6781005859375
v 141.0960693359375 -208.9070892333984 -893.8185424804688
v 141.1638793945313 -208.1740264892578 -893.6781005859375
v 141.2314910888672 -207.4993438720703 -893.2327880859375
v 141.2822265625 -207.0567321777344 -892.5548706054688
v 58.94831466674805 -203.5764923095703 -890.4657592773438
v 58.97285842895508 -203.4377136230469 -889.7296752929688
v 59.02358627319336 -202.9951019287109 -889.0517578125
v 59.09120559692383 -202.3204193115234 -888.6064453125
v 59.15900802612305 -201.5873565673828 -888.466064453125
v 59.22221374511719 -200.8538818359375 -888.6064453125
v 59.2752571105957 -200.1779022216797 -889.0517578125
v 59.30378723144531 -199.7333068847656 -889.7296752929688
v 59.30423355102539 -199.5923614501953 -890.4657592773438
v 59.27968978881836 -199.7311553955078 -891.2018432617188
v 59.22896194458008 -200.1737670898438 -891.8798217773438
v 59.16134262084961 -200.8484497070313 -892.3250732421875
v 59.09354019165039 -201.5815124511719 -892.4655151367188
v 59.03033447265625 -202.3149871826172 -892.3250732421875
v 58.97729110717773 -202.990966796875 -891.8798217773438
v 58.94876098632813 -203.4355621337891 -891.2018432617188
v 141.3067626953125 -206.9179382324219 -891.8187866210938
v 59.30423355102539 -199.5923614501953 -890.4657592773438
v 141.2822265625 -207.0567321777344 -892.5548706054688
v 59.27968978881836 -199.7311553955078 -891.2018432617188
v 141.2314910888672 -207.4993438720703 -893.2327880859375
v 59.22896194458008 -200.1737670898438 -891.8798217773438
v 141.1638793945313 -208.1740264892578 -893.6781005859375
v 59.16134262084961 -200.8484497070313 -892.3250732421875
v 141.0960693359375 -208.9070892333984 -893.8185424804688
v 59.09354019165039 -201.5815124511719 -892.4655151367188
v 141.0328674316406 -209.6405639648438 -893.6781005859375
v 59.03033447265625 -202.3149871826172 -892.3250732421875
v 140.9798278808594 -210.3165435791016 -893.2327880859375
v 58.97729110717773 -202.990966796875 -891.8798217773438
v 140.9512939453125 -210.7611389160156 -892.5548706054688
v 58.94876098632813 -203.4355621337891 -891.2018432617188
v 140.9508514404297 -210.9020690917969 -891.8187866210938
v 58.94831466674805 -203.5764923095703 -890.4657592773438
v 100.3054962158203 -203.2551574707031 -891.1422729492188
v 99.94957733154297 -207.2392883300781 -891.1422729492188
vt 0 0
vt 0 0.9280622005462647
vt 0.008626011200249195 0
vt 0.008626011200249195 0.9280622005462647
vt 0.01725202240049839 0
vt 0.01725202240049839 0.9280622005462647
vt 0.02587803266942501 0
vt 0.02587803266942501 0.9280622005462647
vt 0.03450404480099678 0
vt 0.03450404480099678 0.9280622005462647
vt 0.0431300550699234 0
vt 0.0431300550699234 0.9280622005462647
vt 0.05175606533885002 0
vt 0.05175606533885002 0.9280622005462647
vt 0.06038207560777664 0
vt 0.06038207560777664 0.9280622005462647
vt 0.06900808960199356 0
vt 0.06900808960199356 0.9280622005462647
vt 0.06900808960199356 0.4640311002731323
vt 0 0.4640311002731323
vt 0.1156283691525459 0.2836313843727112
vt 0.114043153822422 0.2919421195983887
vt 0.1090155094861984 0.2995962500572205
vt 0.1013613864779472 0.3046239018440247
vt 0.09305065125226975 0.3062091171741486
vt 0.08473991602659226 0.3046239018440247
vt 0.07708579301834106 0.2995962500572205
vt 0.07205814868211746 0.2919421195983887
vt 0.07047293335199356 0.2836313843727112
vt 0.07205814868211746 0.2753206491470337
vt 0.07708579301834106 0.2676665186882019
vt 0.08473991602659226 0.2626388967037201
vt 0.09305065125226975 0.2610536813735962
vt 0.1013613864779472 0.2626388967037201
vt 0.1090155094861984 0.2676665186882019
vt 0.114043153822422 0.2753206491470337
vt 0.1156283691525459 0.02257771976292133
vt 0.114043153822422 0.03088845871388912
vt 0.1090155094861984 0.03854257985949516
vt 0.1013613864779472 0.04357022047042847
vt 0.09305065125226975 0.04515543952584267
vt 0.08473991602659226 0.04357022047042847
vt 0.07708579301834106 0.03854257985949516
vt 0.07205814868211746 0.03088845871388912
vt 0.07047293335199356 0.02257771976292133
vt 0.07205814868211746 0.01426698081195355
vt 0.07708579301834106 0.006612861528992653
vt 0.08473991602659226 0.001585220103152096
vt 0.09305065125226975 0
vt 0.1013613864779472 0.001585220103152096
vt 0.1090155094861984 0.006612861528992653
vt 0.114043153822422 0.01426698081195355
vt 0.99853515625 0.5221073627471924
vt 0.07047293335199356 0.5221073627471924
vt 0.99853515625 0.5309164524078369
vt 0.07047293335199356 0.5309164524078369
vt 0.99853515625 0.5397255420684815
vt 0.07047293335199356 0.5397255420684815
vt 0.99853515625 0.5485346913337708
vt 0.07047293335199356 0.5485346913337708
vt 0.99853515625 0.5573437809944153
vt 0.07047293335199356 0.5573437809944153
vt 0.99853515625 0.5661529302597046
vt 0.07047293335199356 0.5661529302597046
vt 0.99853515625 0.5749620199203491
vt 0.07047293335199356 0.5749620199203491
vt 0.99853515625 0.5837711691856384
vt 0.07047293335199356 0.5837711691856384
vt 0.99853515625 0.592580258846283
vt 0.07047293335199356 0.592580258846283
vt 0.5345040559768677 0.5221073627471924
vt 0.5345040559768677 0.592580258846283
vn -0.08897919952869415 -0.9960334897041321 \
 2.403973287795624e-13
vn -0.08897919952869415 -0.9960334897041321 \
 -2.443547209192432e-13
vn -0.07670728117227554 -0.9266384840011597 0.3680450022220612
vn -0.07670728117227554 -0.9266384840011597 0.3680450022220612
vn -0.05134470760822296 -0.7053359150886536 0.7070112824440002
vn -0.05134470760822296 -0.7053359150886536 0.7070112824440002
vn -0.01753509975969791 -0.367994099855423 0.9296627640724182
vn -0.01753509975969791 -0.367994099855423 0.9296627640724182
vn 0.01636681333184242 -0.001462105428799987 0.9998649954795837
vn 0.01636681333184242 -0.001462105428799987 0.9998649954795837
vn 0.04797044396400452 0.3652752041816711 0.9296627640724182
vn 0.04797044396400452 0.3652752041816711 0.9296627640724182
vn 0.07449087500572205 0.7032681703567505 0.7070112824440002
vn 0.07449087500572205 0.7032681703567505 0.7070112824440002
vn 0.08875635266304016 0.9255620837211609 0.3680450022220612
vn 0.08875635266304016 0.9255620837211609 0.3680450022220612
vn 0.08897919952869415 0.9960334897041321 -2.641226538695196e-13
vn 0.08897919952869415 0.9960334897041321 -2.191672001218906e-13
vn 0.08897919952869415 0.9960334897041321 -2.338728169459792e-13
vn -0.08897919952869415 -0.9960334897041321 \
 5.793325888459044e-15
vn 0.9958990216255188 -0.08896718174219132 -0.01643199101090431
vn 0.9958990216255188 -0.08896718174219132 -0.01643199101090431
vn 0.9958990216255188 -0.08896718174219132 -0.01643199101090431
vn 0.9958990216255188 -0.08896718174219132 -0.01643199101090431
vn 0.9958990216255188 -0.08896718174219132 -0.01643199101090431
vn 0.9958990216255188 -0.08896718174219132 -0.01643199101090431
vn 0.9958990216255188 -0.08896718174219132 -0.01643199101090431
vn 0.9958990216255188 -0.08896718174219132 -0.01643199101090431
vn 0.9958990216255188 -0.08896718174219132 -0.01643199101090431
vn 0.9958990216255188 -0.08896718174219132 -0.01643199101090431
vn 0.9958990216255188 -0.08896718174219132 -0.01643199101090431
vn 0.9958990216255188 -0.08896718174219132 -0.01643199101090431
vn 0.9958990216255188 -0.08896718174219132 -0.01643199101090431
vn 0.9958990216255188 -0.08896718174219132 -0.01643199101090431
vn 0.9958990216255188 -0.08896718174219132 -0.01643199101090431
vn 0.9958990216255188 -0.08896718174219132 -0.01643199101090431
vn -0.9958990216255188 0.08896718174219132 0.01643199101090431
vn -0.9958990216255188 0.08896718174219132 0.01643199101090431
vn -0.9958990216255188 0.08896718174219132 0.01643199101090431
vn -0.9958990216255188 0.08896718174219132 0.01643199101090431
vn -0.9958990216255188 0.08896718174219132 0.01643199101090431
vn -0.9958990216255188 0.08896718174219132 0.01643199101090431
vn -0.9958990216255188 0.08896718174219132 0.01643199101090431
vn -0.9958990216255188 0.08896718174219132 0.01643199101090431
vn -0.9958990216255188 0.08896718174219132 0.01643199101090431
vn -0.9958990216255188 0.08896718174219132 0.01643199101090431
vn -0.9958990216255188 0.08896718174219132 0.01643199101090431
vn -0.9958990216255188 0.08896718174219132 0.01643199101090431
vn -0.9958990216255188 0.08896718174219132 0.01643199101090431
vn -0.9958990216255188 0.08896718174219132 0.01643199101090431
vn -0.9958990216255188 0.08896718174219132 0.01643199101090431
vn -0.9958990216255188 0.08896718174219132 0.01643199101090431
vn 0.08897919952869415 0.9960334897041321 2.474575991166794e-13
vn 0.08897919952869415 0.9960334897041321 2.525876643261205e-13
vn 0.07670728117227554 0.9266384840011597 -0.3680450022220612
vn 0.07670728117227554 0.9266384840011597 -0.3680450022220612
vn 0.05134470760822296 0.7053359150886536 -0.7070112824440002
vn 0.05134470760822296 0.7053359150886536 -0.7070112824440002
vn 0.01753509975969791 0.367994099855423 -0.9296627640724182
vn 0.01753509975969791 0.367994099855423 -0.9296627640724182
vn -0.01636681333184242 0.001462105428799987 -0.9998649954795837
vn -0.01636681333184242 0.001462105428799987 -0.9998649954795837
vn -0.04797044396400452 -0.3652752041816711 -0.9296627640724182
vn -0.04797044396400452 -0.3652752041816711 -0.9296627640724182
vn -0.07449087500572205 -0.7032681703567505 -0.7070112824440002
vn -0.07449087500572205 -0.7032681703567505 -0.7070112824440002
vn -0.08875635266304016 -0.9255620837211609 -0.3680450022220612
vn -0.08875635266304016 -0.9255620837211609 -0.3680450022220612
vn -0.08897919952869415 -0.9960334897041321 \
 -2.615754292854822e-13
vn -0.08897919952869415 -0.9960334897041321 \
 2.584954548589397e-13
vn 0.08897919952869415 0.9960334897041321 2.45924808295328e-13
vn -0.08897919952869415 -0.9960334897041321 \
 -1.364360013855759e-15
f 20/20/20 1/1/1 3/3/3
f 7/7/7 8/8/8 6/6/6 5/5/5
f 8/8/8 7/7/7 9/9/9 10/10/10
f 5/5/5 6/6/6 4/4/4 3/3/3
f 4/4/4 2/2/2 20/20/20
f 3/3/3 4/4/4 20/20/20
f 13/13/13 14/14/14 12/12/12 11/11/11
f 19/19/19 15/15/15 17/17/17
f 15/15/15 16/16/16 14/14/14 13/13/13
f 15/15/15 19/19/19 16/16/16
f 11/11/11 12/12/12 10/10/10 9/9/9
f 19/19/19 18/18/18 16/16/16
f 32/32/32 30/30/30 31/31/31
f 27/27/27 30/30/30 32/32/32
f 27/27/27 32/32/32 21/21/21
f 28/28/28 29/29/29 30/30/30
f 27/27/27 28/28/28 30/30/30
f 26/26/26 27/27/27 25/25/25
f 34/34/34 32/32/32 33/33/33
f 32/32/32 35/35/35 21/21/21
f 35/35/35 36/36/36 21/21/21
f 27/27/27 21/21/21 25/25/25
f 22/22/22 24/24/24 25/25/25
f 24/24/24 22/22/22 23/23/23
f 22/22/22 25/25/25 21/21/21
f 35/35/35 32/32/32 34/34/34
f 48/48/48 46/46/46 47/47/47
f 46/46/46 48/48/48 49/49/49
f 45/45/45 46/46/46 49/49/49
f 42/42/42 44/44/44 45/45/45
f 44/44/44 42/42/42 43/43/43
f 41/41/41 42/42/42 45/45/45
f 41/41/41 45/45/45 49/49/49
f 49/49/49 51/51/51 52/52/52
f 52/52/52 37/37/37 49/49/49
f 49/49/49 37/37/37 41/41/41
f 39/39/39 40/40/40 41/41/41
f 37/37/37 39/39/39 41/41/41
f 39/39/39 37/37/37 38/38/38
f 49/49/49 50/50/50 51/51/51
f 71/71/71 53/53/53 55/55/55
f 59/59/59 60/60/60 58/58/58 57/57/57
f 60/60/60 59/59/59 61/61/61 62/62/62
f 57/57/57 58/58/58 56/56/56 55/55/55
f 56/56/56 54/54/54 71/71/71
f 55/55/55 56/56/56 71/71/71
f 65/65/65 66/66/66 64/64/64 63/63/63
f 72/72/72 67/67/67 69/69/69
f 67/67/67 68/68/68 66/66/66 65/65/65
f 67/67/67 72/72/72 68/68/68
f 63/63/63 64/64/64 62/62/62 61/61/61
f 72/72/72 70/70/70 68/68/68
