# Rhino

v 109.6439056396484 -202.7250061035156 -937.4308471679688
v 75.31929779052734 -218.848876953125 -949.7074584960938
v 109.3789749145508 -202.6943054199219 -936.7304077148438
v 75.05437469482422 -218.8181762695313 -949.0070190429688
v 109.0006103515625 -202.3799896240234 -936.0853271484375
v 74.67600250244141 -218.5038604736328 -948.3619995117188
v 108.5881805419922 -201.8246154785156 -935.66162109375
v 74.26358032226563 -217.9485015869141 -947.938232421875
v 108.2360305786133 -201.1766815185547 -935.528076171875
v 73.91142272949219 -217.3005523681641 -947.8046875
v 107.9621658325195 -200.4919586181641 -935.66162109375
v 73.63755798339844 -216.6158294677734 -947.938232421875
v 107.7980346679688 -199.8199462890625 -936.0853271484375
v 73.47343444824219 -215.9438171386719 -948.3619995117188
v 107.7976913452148 -199.3280639648438 -936.7304077148438
v 73.47308349609375 -215.4519348144531 -949.0070190429688
v 107.9432067871094 -199.1045532226563 -937.4308471679688
v 73.61860656738281 -215.2284240722656 -949.7074584960938
v 90.78090667724609 -207.1664886474609 -943.5691528320313
v 92.48159790039063 -210.7869415283203 -943.5691528320313
v 107.9432067871094 -199.1045532226563 -937.4308471679688
v 107.7976913452148 -199.3280639648438 -936.7304077148438
v 107.7980346679688 -199.8199462890625 -936.0853271484375
v 107.9621658325195 -200.4919586181641 -935.66162109375
v 108.2360305786133 -201.1766815185547 -935.528076171875
v 108.5881805419922 -201.8246154785156 -935.66162109375
v 109.0006103515625 -202.3799896240234 -936.0853271484375
v 109.3789749145508 -202.6943054199219 -936.7304077148438
v 109.6439056396484 -202.7250061035156 -937.4308471679688
v 109.789421081543 -202.5014953613281 -938.1312255859375
v 109.7890701293945 -202.0096130371094 -938.7763061523438
v 109.6249465942383 -201.3376007080078 -939.2000122070313
v 109.3510818481445 -200.6528778076172 -939.3336181640625
v 108.9989318847656 -200.0049438476563 -939.2000122070313
v 108.5865020751953 -199.4495697021484 -938.7763061523438
v 108.208137512207 -199.13525390625 -938.1312255859375
v 75.31929779052734 -218.848876953125 -949.7074584960938
v 75.05437469482422 -218.8181762695313 -949.0070190429688
v 74.67600250244141 -218.5038604736328 -948.3619995117188
v 74.26358032226563 -217.9485015869141 -947.938232421875
v 73.91142272949219 -217.3005523681641 -947.8046875
v 73.63755798339844 -216.6158294677734 -947.938232421875
v 73.47343444824219 -215.9438171386719 -948.3619995117188
v 73.47308349609375 -215.4519348144531 -949.0070190429688
v 73.61860656738281 -215.2284240722656 -949.7074584960938
v 73.88352966308594 -215.2591247558594 -950.4078369140625
v 74.26189422607422 -215.5734405517578 -951.0529174804688
v 74.67432403564453 -216.1288146972656 -951.4766235351563
v 75.02648162841797 -216.7767639160156 -951.6102294921875
v 75.30033874511719 -217.4614715576172 -951.4766235351563
v 75.46446990966797 -218.1334838867188 -951.0529174804688
v 75.46481323242188 -218.6253814697266 -950.4078369140625
v 107.9432067871094 -199.1045532226563 -937.4308471679688
v 73.61860656738281 -215.2284240722656 -949.7074584960938
v 108.208137512207 -199.13525390625 -938.1312255859375
v 73.88352966308594 -215.2591247558594 -950.4078369140625
v 108.5865020751953 -199.4495697021484 -938.7763061523438
v 74.26189422607422 -215.5734405517578 -951.0529174804688
v 108.9989318847656 -200.0049438476563 -939.2000122070313
v 74.67432403564453 -216.1288146972656 -951.4766235351563
v 109.3510818481445 -200.6528778076172 -939.3336181640625
v 75.02648162841797 -216.7767639160156 -951.6102294921875
v 109.6249465942383 -201.3376007080078 -939.2000122070313
v 75.30033874511719 -217.4614715576172 -951.4766235351563
v 109.7890701293945 -202.0096130371094 -938.7763061523438
v 75.46446990966797 -218.1334838867188 -951.0529174804688
v 109.789421081543 -202.5014953613281 -938.1312255859375
v 75.46481323242188 -218.6253814697266 -950.4078369140625
v 109.6439056396484 -202.7250061035156 -937.4308471679688
v 75.31929779052734 -218.848876953125 -949.7074584960938
v 90.78090667724609 -207.1664886474609 -943.5691528320313
v 92.48159790039063 -210.7869415283203 -943.5691528320313
vt 0 0
vt 0 0.8631286025047302
vt 0.01674271002411842 0
vt 0.01674271002411842 0.8631286025047302
vt 0.03348542004823685 0
vt 0.03348542004823685 0.8631286025047302
vt 0.05022813007235527 0
vt 0.05022813007235527 0.8631286025047302
vt 0.06697084009647369 0
vt 0.06697084009647369 0.8631286025047302
vt 0.08371355384588242 0
vt 0.08371355384588242 0.8631286025047302
vt 0.1004562601447105 0
vt 0.1004562601447105 0.8631286025047302
vt 0.1171989738941193 0
vt 0.1171989738941193 0.8631286025047302
vt 0.1339416801929474 0
vt 0.1339416801929474 0.8631286025047302
vt 0.1339416801929474 0.4315643012523651
vt 0 0.4315643012523651
vt 0.2221680879592896 0.2861981391906738
vt 0.2191222459077835 0.3021663725376129
vt 0.2094621509313583 0.3168729841709137
vt 0.1947555392980576 0.3265330791473389
vt 0.1787873059511185 0.3295789062976837
vt 0.1628190726041794 0.3265330791473389
vt 0.1481124609708786 0.3168729841709137
vt 0.1384523659944534 0.3021663725376129
vt 0.1354065239429474 0.2861981391906738
vt 0.1384523659944534 0.2702299058437347
vt 0.1481124609708786 0.255523294210434
vt 0.1628190726041794 0.2458631843328476
vt 0.1787873059511185 0.2428173422813416
vt 0.1947555392980576 0.2458631843328476
vt 0.2094621509313583 0.255523294210434
vt 0.2191222459077835 0.2702299058437347
vt 0.2221680879592896 0.04338077828288078
vt 0.2191222459077835 0.05934901162981987
vt 0.2094621509313583 0.07405561953783035
vt 0.1947555392980576 0.08371572196483612
vt 0.1787873059511185 0.08676155656576157
vt 0.1628190726041794 0.08371572196483612
vt 0.1481124609708786 0.07405561953783035
vt 0.1384523659944534 0.05934901162981987
vt 0.1354065239429474 0.04338077828288078
vt 0.1384523659944534 0.0274125449359417
vt 0.1481124609708786 0.01270593609660864
vt 0.1628190726041794 0.003045838326215744
vt 0.1787873059511185 0
vt 0.1947555392980576 0.003045838326215744
vt 0.2094621509313583 0.01270593609660864
vt 0.2191222459077835 0.0274125449359417
vt 0.99853515625 0.4856346845626831
vt 0.1354065239429474 0.4856346845626831
vt 0.99853515625 0.5025604963302612
vt 0.1354065239429474 0.5025604963302612
vt 0.99853515625 0.5194863080978394
vt 0.1354065239429474 0.5194863080978394
vt 0.99853515625 0.5364121198654175
vt 0.1354065239429474 0.5364121198654175
vt 0.99853515625 0.5533379316329956
vt 0.1354065239429474 0.5533379316329956
vt 0.99853515625 0.5702638030052185
vt 0.1354065239429474 0.5702638030052185
vt 0.99853515625 0.5871896147727966
vt 0.1354065239429474 0.5871896147727966
vt 0.99853515625 0.6041154265403748
vt 0.1354065239429474 0.6041154265403748
vt 0.99853515625 0.6210412383079529
vt 0.1354065239429474 0.6210412383079529
vt 0.5669708251953125 0.4856346845626831
vt 0.5669708251953125 0.6210412383079529
vn 0.425173431634903 -0.9051119089126587 3.877324893444833e-13
vn 0.425173431634903 -0.9051119089126587 -1.174110721841037e-13
vn 0.2927097976207733 -0.8897638916969299 0.3502016961574554
vn 0.2927097976207733 -0.8897638916969299 0.3502016961574554
vn 0.1035272479057312 -0.7326052784919739 0.6727344393730164
vn 0.1035272479057312 -0.7326052784919739 0.6727344393730164
vn -0.102687232196331 -0.4549212157726288 0.8845914602279663
vn -0.102687232196331 -0.4549212157726288 0.8845914602279663
vn -0.2787638008594513 -0.1309484094381332 0.9513901472091675
vn -0.2787638008594513 -0.1309484094381332 0.9513901472091675
vn -0.4156954288482666 0.2114125937223434 0.8845914602279663
vn -0.4156954288482666 0.2114125937223434 0.8845914602279663
vn -0.4977588057518005 0.5474162697792053 0.6727344393730164
vn -0.4977588057518005 0.5474162697792053 0.6727344393730164
vn -0.4979327619075775 0.7933610081672669 0.3502016961574554
vn -0.4979327619075775 0.7933610081672669 0.3502016961574554
vn -0.425173431634903 0.9051119089126587 2.510226455951919e-13
vn -0.425173431634903 0.9051119089126587 1.045401016187136e-13
vn -0.425173431634903 0.9051119089126587 1.819655537360632e-13
vn 0.425173431634903 -0.9051119089126587 1.171840402491853e-13
vn 0.8611145615577698 0.4045058190822601 0.3079882264137268
vn 0.8611145615577698 0.4045058190822601 0.3079882264137268
vn 0.8611145615577698 0.4045058190822601 0.3079882264137268
vn 0.8611145615577698 0.4045058190822601 0.3079882264137268
vn 0.8611145615577698 0.4045058190822601 0.3079882264137268
vn 0.8611145615577698 0.4045058190822601 0.3079882264137268
vn 0.8611145615577698 0.4045058190822601 0.3079882264137268
vn 0.8611145615577698 0.4045058190822601 0.3079882264137268
vn 0.8611145615577698 0.4045058190822601 0.3079882264137268
vn 0.8611145615577698 0.4045058190822601 0.3079882264137268
vn 0.8611145615577698 0.4045058190822601 0.3079882264137268
vn 0.8611145615577698 0.4045058190822601 0.3079882264137268
vn 0.8611145615577698 0.4045058190822601 0.3079882264137268
vn 0.8611145615577698 0.4045058190822601 0.3079882264137268
vn 0.8611145615577698 0.4045058190822601 0.3079882264137268
vn 0.8611145615577698 0.4045058190822601 0.3079882264137268
vn -0.8611145615577698 -0.4045058190822601 -0.3079882264137268
vn -0.8611145615577698 -0.4045058190822601 -0.3079882264137268
vn -0.8611145615577698 -0.4045058190822601 -0.3079882264137268
vn -0.8611145615577698 -0.4045058190822601 -0.3079882264137268
vn -0.8611145615577698 -0.4045058190822601 -0.3079882264137268
vn -0.8611145615577698 -0.4045058190822601 -0.3079882264137268
vn -0.8611145615577698 -0.4045058190822601 -0.3079882264137268
vn -0.8611145615577698 -0.4045058190822601 -0.3079882264137268
vn -0.8611145615577698 -0.4045058190822601 -0.3079882264137268
vn -0.8611145615577698 -0.4045058190822601 -0.3079882264137268
vn -0.8611145615577698 -0.4045058190822601 -0.3079882264137268
vn -0.8611145615577698 -0.4045058190822601 -0.3079882264137268
vn -0.8611145615577698 -0.4045058190822601 -0.3079882264137268
vn -0.8611145615577698 -0.4045058190822601 -0.3079882264137268
vn -0.8611145615577698 -0.4045058190822601 -0.3079882264137268
vn -0.8611145615577698 -0.4045058190822601 -0.3079882264137268
vn -0.425173431634903 0.9051119089126587 2.310610504199871e-14
vn -0.425173431634903 0.9051119089126587 7.574609749106884e-14
vn -0.2927097976207733 0.8897638916969299 -0.3502016961574554
vn -0.2927097976207733 0.8897638916969299 -0.3502016961574554
vn -0.1035272479057312 0.7326052784919739 -0.6727344393730164
vn -0.1035272479057312 0.7326052784919739 -0.6727344393730164
vn 0.102687232196331 0.4549212157726288 -0.8845914602279663
vn 0.102687232196331 0.4549212157726288 -0.8845914602279663
vn 0.2787638008594513 0.1309484094381332 -0.9513901472091675
vn 0.2787638008594513 0.1309484094381332 -0.9513901472091675
vn 0.4156954288482666 -0.2114125937223434 -0.8845914602279663
vn 0.4156954288482666 -0.2114125937223434 -0.8845914602279663
vn 0.4977588057518005 -0.5474162697792053 -0.6727344393730164
vn 0.4977588057518005 -0.5474162697792053 -0.6727344393730164
vn 0.4979327619075775 -0.7933610081672669 -0.3502016961574554
vn 0.4979327619075775 -0.7933610081672669 -0.3502016961574554
vn 0.425173431634903 -0.9051119089126587 -2.411266173708848e-13
vn 0.425173431634903 -0.9051119089126587 -1.270296259674175e-13
vn -0.425173431634903 0.9051119089126587 6.503131366741854e-14
vn 0.425173431634903 -0.9051119089126587 -1.760813717055498e-13
f 20/20/20 1/1/1 3/3/3
f 7/7/7 8/8/8 6/6/6 5/5/5
f 8/8/8 7/7/7 9/9/9 10/10/10
f 5/5/5 6/6/6 4/4/4 3/3/3
f 4/4/4 2/2/2 20/20/20
f 3/3/3 4/4/4 20/20/20
f 13/13/13 14/14/14 12/12/12 11/11/11
f 19/19/19 15/15/15 17/17/17
f 15/15/15 16/16/16 14/14/14 13/13/13
f 15/15/15 19/19/19 16/16/16
f 11/11/11 12/12/12 10/10/10 9/9/9
f 19/19/19 18/18/18 16/16/16
f 31/31/31 28/28/28 30/30/30
f 32/32/32 28/28/28 31/31/31
f 33/33/33 27/27/27 32/32/32
f 28/28/28 29/29/29 30/30/30
f 27/27/27 28/28/28 32/32/32
f 26/26/26 27/27/27 25/25/25
f 34/34/34 27/27/27 33/33/33
f 35/35/35 22/22/22 34/34/34
f 22/22/22 35/35/35 36/36/36
f 36/36/36 21/21/21 22/22/22
f 25/25/25 27/27/27 24/24/24
f 24/24/24 22/22/22 23/23/23
f 27/27/27 22/22/22 24/24/24
f 22/22/22 27/27/27 34/34/34
f 47/47/47 52/52/52 46/46/46
f 51/51/51 47/47/47 48/48/48
f 37/37/37 45/45/45 46/46/46
f 37/37/37 44/44/44 45/45/45
f 43/43/43 39/39/39 42/42/42
f 39/39/39 43/43/43 44/44/44
f 49/49/49 50/50/50 48/48/48
f 47/47/47 51/51/51 52/52/52
f 52/52/52 37/37/37 46/46/46
f 37/37/37 38/38/38 44/44/44
f 40/40/40 41/41/41 42/42/42
f 39/39/39 40/40/40 42/42/42
f 44/44/44 38/38/38 39/39/39
f 48/48/48 50/50/50 51/51/51
f 71/71/71 53/53/53 55/55/55
f 59/59/59 60/60/60 58/58/58 57/57/57
f 60/60/60 59/59/59 61/61/61 62/62/62
f 57/57/57 58/58/58 56/56/56 55/55/55
f 56/56/56 54/54/54 71/71/71
f 55/55/55 56/56/56 71/71/71
f 65/65/65 66/66/66 64/64/64 63/63/63
f 72/72/72 67/67/67 69/69/69
f 67/67/67 68/68/68 66/66/66 65/65/65
f 67/67/67 72/72/72 68/68/68
f 63/63/63 64/64/64 62/62/62 61/61/61
f 72/72/72 70/70/70 68/68/68
