# Rhino

v 108.7453308105469 -236.9481353759766 -885.2353515625
v 54.45585632324219 -195.5073699951172 -868.4676513671875
v 108.5205993652344 -236.9532623291016 -885.9503173828125
v 54.23112869262695 -195.5124816894531 -869.1825561523438
v 108.1218719482422 -237.2091827392578 -886.6088256835938
v 53.83240127563477 -195.7684020996094 -869.841064453125
v 107.6260681152344 -237.6837005615234 -887.0413208007813
v 53.33659744262695 -196.2429351806641 -870.2735595703125
v 107.1527633666992 -238.2485656738281 -887.1776733398438
v 52.8632926940918 -196.8078002929688 -870.4099731445313
v 106.7326889038086 -238.8540802001953 -887.0413208007813
v 52.44321823120117 -197.4132995605469 -870.2735595703125
v 106.4057006835938 -239.4574584960938 -886.6088256835938
v 52.11622619628906 -198.0166778564453 -869.841064453125
v 106.2639694213867 -239.9095611572266 -885.9503173828125
v 51.9744987487793 -198.4687805175781 -869.1825561523438
v 106.3182907104492 -240.127685546875 -885.2353515625
v 52.0288200378418 -198.6869049072266 -868.4676513671875
v 88.2218017578125 -226.3140869140625 -879.6461181640625
v 70.12531280517578 -212.5005035400391 -874.056884765625
v 72.55234527587891 -209.3209533691406 -874.056884765625
v 90.64884185791016 -223.1345520019531 -879.6461181640625
v 106.3182907104492 -240.127685546875 -885.2353515625
v 106.2639694213867 -239.9095611572266 -885.9503173828125
v 106.4057006835938 -239.4574584960938 -886.6088256835938
v 106.7326889038086 -238.8540802001953 -887.0413208007813
v 107.1527633666992 -238.2485656738281 -887.1776733398438
v 107.6260681152344 -237.6837005615234 -887.0413208007813
v 108.1218719482422 -237.2091827392578 -886.6088256835938
v 108.5205993652344 -236.9532623291016 -885.9503173828125
v 108.7453308105469 -236.9481353759766 -885.2353515625
v 108.7996520996094 -237.166259765625 -884.5203857421875
v 108.6579208374023 -237.6183624267578 -883.8619384765625
v 108.3309326171875 -238.2217407226563 -883.429443359375
v 107.9108505249023 -238.8272399902344 -883.2930297851563
v 107.4375534057617 -239.3921203613281 -883.429443359375
v 106.9417495727539 -239.8666381835938 -883.8619384765625
v 106.5430145263672 -240.12255859375 -884.5203857421875
v 54.45585632324219 -195.5073699951172 -868.4676513671875
v 54.23112869262695 -195.5124816894531 -869.1825561523438
v 53.83240127563477 -195.7684020996094 -869.841064453125
v 53.33659744262695 -196.2429351806641 -870.2735595703125
v 52.8632926940918 -196.8078002929688 -870.4099731445313
v 52.44321823120117 -197.4132995605469 -870.2735595703125
v 52.11622619628906 -198.0166778564453 -869.841064453125
v 51.9744987487793 -198.4687805175781 -869.1825561523438
v 52.0288200378418 -198.6869049072266 -868.4676513671875
v 52.25354385375977 -198.6817932128906 -867.752685546875
v 52.65227508544922 -198.4258575439453 -867.0941772460938
v 53.14807891845703 -197.9513397216797 -866.6616821289063
v 53.62137985229492 -197.386474609375 -866.5253295898438
v 54.04145812988281 -196.7809753417969 -866.6616821289063
v 54.36845016479492 -196.1775817871094 -867.0941772460938
v 54.51017761230469 -195.7254943847656 -867.752685546875
v 106.3182907104492 -240.127685546875 -885.2353515625
v 52.0288200378418 -198.6869049072266 -868.4676513671875
v 106.5430145263672 -240.12255859375 -884.5203857421875
v 52.25354385375977 -198.6817932128906 -867.752685546875
v 106.9417495727539 -239.8666381835938 -883.8619384765625
v 52.65227508544922 -198.4258575439453 -867.0941772460938
v 107.4375534057617 -239.3921203613281 -883.429443359375
v 53.14807891845703 -197.9513397216797 -866.6616821289063
v 107.9108505249023 -238.8272399902344 -883.2930297851563
v 53.62137985229492 -197.386474609375 -866.5253295898438
v 108.3309326171875 -238.2217407226563 -883.429443359375
v 54.04145812988281 -196.7809753417969 -866.6616821289063
v 108.6579208374023 -237.6183624267578 -883.8619384765625
v 54.36845016479492 -196.1775817871094 -867.0941772460938
v 108.7996520996094 -237.166259765625 -884.5203857421875
v 54.51017761230469 -195.7254943847656 -867.752685546875
v 108.7453308105469 -236.9481353759766 -885.2353515625
v 54.45585632324219 -195.5073699951172 -868.4676513671875
v 70.12531280517578 -212.5005035400391 -874.056884765625
v 88.2218017578125 -226.3140869140625 -879.6461181640625
v 90.64884185791016 -223.1345520019531 -879.6461181640625
v 72.55234527587891 -209.3209533691406 -874.056884765625
v 79.39828491210938 -219.4021759033203 -876.1365356445313
v 80.29281616210938 -218.6717224121094 -875.0455322265625
v 80.76612091064453 -218.1068572998047 -874.9091796875
v 81.18619537353516 -217.5013580322266 -875.0455322265625
v 81.51318359375 -216.8979797363281 -875.4780883789063
v 81.65491485595703 -216.4458770751953 -876.1365356445313
vt 0.99853515625 0.5158966779708862
vt 0.08152994513511658 0.5158966779708862
vt 0.99853515625 0.5260879397392273
vt 0.08152994513511658 0.5260879397392273
vt 0.99853515625 0.5362792015075684
vt 0.08152994513511658 0.5362792015075684
vt 0.99853515625 0.5464704632759094
vt 0.08152994513511658 0.5464704632759094
vt 0.99853515625 0.5566616654396057
vt 0.08152994513511658 0.5566616654396057
vt 0.99853515625 0.5668529272079468
vt 0.08152994513511658 0.5668529272079468
vt 0.99853515625 0.5770441889762878
vt 0.08152994513511658 0.5770441889762878
vt 0.99853515625 0.5872353911399841
vt 0.08152994513511658 0.5872353911399841
vt 0.99853515625 0.5974266529083252
vt 0.08152994513511658 0.5974266529083252
vt 0.6928667426109314 0.5974266529083252
vt 0.3871983289718628 0.5974266529083252
vt 0.3871983289718628 0.5158966779708862
vt 0.6928667426109314 0.5158966779708862
vt 0.08152994513511658 0.02612010203301907
vt 0.08336388319730759 0.01650543138384819
vt 0.08918034285306931 0.007650401443243027
vt 0.09803537279367447 0.001833936898037791
vt 0.1076500490307808 0
vt 0.1172647178173065 0.001833936898037791
vt 0.1261197477579117 0.007650401443243027
vt 0.1319362074136734 0.01650543138384819
vt 0.133770152926445 0.02612010203301907
vt 0.1319362074136734 0.03573477268218994
vt 0.1261197477579117 0.0445898063480854
vt 0.1172647178173065 0.05040626972913742
vt 0.1076500490307808 0.05224020406603813
vt 0.09803537279367447 0.05040626972913742
vt 0.08918034285306931 0.0445898063480854
vt 0.08336388319730759 0.03573477268218994
vt 0.1076500490307808 0.2579483389854431
vt 0.1172647178173065 0.2597822844982147
vt 0.1261197477579117 0.2655987441539764
vt 0.1319362074136734 0.2744537889957428
vt 0.133770152926445 0.2840684652328491
vt 0.1319362074136734 0.2936831414699554
vt 0.1261197477579117 0.3025381565093994
vt 0.1172647178173065 0.3083546161651611
vt 0.1076500490307808 0.3101885616779327
vt 0.09803537279367447 0.3083546161651611
vt 0.08918034285306931 0.3025381565093994
vt 0.08336387574672699 0.2936831414699554
vt 0.08152994513511658 0.2840684652328491
vt 0.08336387574672699 0.2744537889957428
vt 0.08918034285306931 0.2655987441539764
vt 0.09803537279367447 0.2597822844982147
vt 0 0
vt 0 0.9170052409172058
vt 0.01000813767313957 0
vt 0.01000813767313957 0.9170052409172058
vt 0.02001627534627914 0
vt 0.02001627534627914 0.9170052409172058
vt 0.03002441301941872 0
vt 0.03002441301941872 0.9170052409172058
vt 0.04003255069255829 0
vt 0.04003255069255829 0.9170052409172058
vt 0.05004068836569786 0
vt 0.05004068836569786 0.9170052409172058
vt 0.06004882603883743 0
vt 0.06004882603883743 0.9170052409172058
vt 0.07005695998668671 0
vt 0.07005695998668671 0.9170052409172058
vt 0.08006510138511658 0
vt 0.08006510138511658 0.9170052409172058
vt 0 0.6113368272781372
vt 0 0.3056684136390686
vt 0.08006510138511658 0.3056684136390686
vt 0.08006510138511658 0.6113368272781372
vt 0.01000813767313957 0.4585026204586029
vt 0.03002441301941872 0.4585026204586029
vt 0.04003255069255829 0.4585026204586029
vt 0.05004068836569786 0.4585026204586029
vt 0.06004882603883743 0.4585026204586029
vt 0.07005695998668671 0.4585026204586029
vn 0.6067596673965454 0.7948853373527527 2.281477415842781e-13
vn 0.6067596673965454 0.7948853373527527 9.499862105733642e-14
vn 0.4943960905075073 0.7923264503479004 -0.357479065656662
vn 0.4943960905075073 0.7923264503479004 -0.357479065656662
vn 0.2950317561626434 0.6643642783164978 -0.6867141723632813
vn 0.2950317561626434 0.6643642783164978 -0.6867141723632813
vn 0.04712990298867226 0.4271033406257629 -0.9029737114906311
vn 0.04712990298867226 0.4271033406257629 -0.9029737114906311
vn -0.1895217746496201 0.1446676254272461 -0.9711605310440064
vn -0.1895217746496201 0.1446676254272461 -0.9711605310440064
vn -0.3995601534843445 -0.1580828279256821 -0.9029737114906311
vn -0.3995601534843445 -0.1580828279256821 -0.9029737114906311
vn -0.5630559921264648 -0.4597733616828919 -0.6867141723632813
vn -0.5630559921264648 -0.4597733616828919 -0.6867141723632813
vn -0.6339200139045715 -0.6858236789703369 -0.357479065656662
vn -0.6339200139045715 -0.6858236789703369 -0.357479065656662
vn -0.6067596673965454 -0.7948853373527527 6.484815803916785e-14
vn -0.6067596673965454 -0.7948853373527527 \
 -1.010872836175805e-13
vn -0.6067596673965454 -0.7948853373527527 4.73232564246473e-15
vn -0.6067596673965454 -0.7948853373527527 \
 -4.499178807293447e-14
vn 0.6067596673965454 0.7948853373527527 1.362659984849302e-13
vn 0.6067596673965454 0.7948853373527527 1.862676679564856e-13
vn 0.7719612717628479 -0.5892610549926758 -0.2384265512228012
vn 0.7719612717628479 -0.5892610549926758 -0.2384265512228012
vn 0.7719612717628479 -0.5892610549926758 -0.2384265512228012
vn 0.7719612717628479 -0.5892610549926758 -0.2384265512228012
vn 0.7719612717628479 -0.5892610549926758 -0.2384265512228012
vn 0.7719612717628479 -0.5892610549926758 -0.2384265512228012
vn 0.7719612717628479 -0.5892610549926758 -0.2384265512228012
vn 0.7719612717628479 -0.5892610549926758 -0.2384265512228012
vn 0.7719612717628479 -0.5892610549926758 -0.2384265512228012
vn 0.7719612717628479 -0.5892610549926758 -0.2384265512228012
vn 0.7719612717628479 -0.5892610549926758 -0.2384265512228012
vn 0.7719612717628479 -0.5892610549926758 -0.2384265512228012
vn 0.7719612717628479 -0.5892610549926758 -0.2384265512228012
vn 0.7719612717628479 -0.5892610549926758 -0.2384265512228012
vn 0.7719612717628479 -0.5892610549926758 -0.2384265512228012
vn 0.7719612717628479 -0.5892610549926758 -0.2384265512228012
vn -0.7719612717628479 0.5892610549926758 0.2384265512228012
vn -0.7719612717628479 0.5892610549926758 0.2384265512228012
vn -0.7719612717628479 0.5892610549926758 0.2384265512228012
vn -0.7719612717628479 0.5892610549926758 0.2384265512228012
vn -0.7719612717628479 0.5892610549926758 0.2384265512228012
vn -0.7719612717628479 0.5892610549926758 0.2384265512228012
vn -0.7719612717628479 0.5892610549926758 0.2384265512228012
vn -0.7719612717628479 0.5892610549926758 0.2384265512228012
vn -0.7719612717628479 0.5892610549926758 0.2384265512228012
vn -0.7719612717628479 0.5892610549926758 0.2384265512228012
vn -0.7719612717628479 0.5892610549926758 0.2384265512228012
vn -0.7719612717628479 0.5892610549926758 0.2384265512228012
vn -0.7719612717628479 0.5892610549926758 0.2384265512228012
vn -0.7719612717628479 0.5892610549926758 0.2384265512228012
vn -0.7719612717628479 0.5892610549926758 0.2384265512228012
vn -0.7719612717628479 0.5892610549926758 0.2384265512228012
vn -0.6067596673965454 -0.7948853373527527 \
 -2.309223233638857e-13
vn -0.6067596673965454 -0.7948853373527527 \
 -4.900220786324509e-14
vn -0.4943960905075073 -0.7923264503479004 0.357479065656662
vn -0.4943960905075073 -0.7923264503479004 0.357479065656662
vn -0.2950317561626434 -0.6643642783164978 0.6867141723632813
vn -0.2950317561626434 -0.6643642783164978 0.6867141723632813
vn -0.04712990298867226 -0.4271033406257629 0.9029737114906311
vn -0.04712990298867226 -0.4271033406257629 0.9029737114906311
vn 0.1895217746496201 -0.1446676254272461 0.9711605310440064
vn 0.1895217746496201 -0.1446676254272461 0.9711605310440064
vn 0.3995601534843445 0.1580828279256821 0.9029737114906311
vn 0.3995601534843445 0.1580828279256821 0.9029737114906311
vn 0.5630559921264648 0.4597733616828919 0.6867141723632813
vn 0.5630559921264648 0.4597733616828919 0.6867141723632813
vn 0.6339200139045715 0.6858236789703369 0.357479065656662
vn 0.6339200139045715 0.6858236789703369 0.357479065656662
vn 0.6067596673965454 0.7948853373527527 -7.149174237634434e-14
vn 0.6067596673965454 0.7948853373527527 5.490590214473137e-14
vn -0.6067596673965454 -0.7948853373527527 \
 -1.193906085106278e-13
vn -0.6067596673965454 -0.7948853373527527 \
 -1.859484788369059e-13
vn 0.6067596673965454 0.7948853373527527 -3.284872374109682e-14
vn 0.6067596673965454 0.7948853373527527 9.270362255620057e-15
vn -0.4943960905075073 -0.7923264503479004 0.357479065656662
vn -0.04712990298867226 -0.4271033406257629 0.9029737114906311
vn 0.1895217746496201 -0.1446676254272461 0.9711605310440064
vn 0.3995601534843445 0.1580828279256821 0.9029737114906311
vn 0.5630559921264648 0.4597733616828919 0.6867141723632813
vn 0.6339200139045715 0.6858236789703369 0.357479065656662
f 22/22/22 1/1/1 3/3/3
f 7/7/7 8/8/8 6/6/6 5/5/5
f 8/8/8 7/7/7 9/9/9 10/10/10
f 5/5/5 6/6/6 4/4/4 3/3/3
f 21/21/21 22/22/22 3/3/3
f 4/4/4 2/2/2 21/21/21
f 4/4/4 21/21/21 3/3/3
f 13/13/13 14/14/14 12/12/12 11/11/11
f 19/19/19 15/15/15 17/17/17
f 15/15/15 16/16/16 14/14/14 13/13/13
f 16/16/16 15/15/15 19/19/19 20/20/20
f 11/11/11 12/12/12 10/10/10 9/9/9
f 18/18/18 16/16/16 20/20/20
f 25/25/25 30/30/30 24/24/24
f 28/28/28 25/25/25 26/26/26
f 31/31/31 23/23/23 24/24/24
f 38/38/38 33/33/33 37/37/37
f 37/37/37 33/33/33 36/36/36
f 23/23/23 32/32/32 38/38/38
f 28/28/28 26/26/26 27/27/27
f 25/25/25 29/29/29 30/30/30
f 30/30/30 31/31/31 24/24/24
f 31/31/31 32/32/32 23/23/23
f 34/34/34 35/35/35 36/36/36
f 33/33/33 34/34/34 36/36/36
f 38/38/38 32/32/32 33/33/33
f 25/25/25 28/28/28 29/29/29
f 40/40/40 54/54/54 39/39/39
f 40/40/40 41/41/41 42/42/42
f 40/40/40 46/46/46 51/51/51
f 51/51/51 53/53/53 54/54/54
f 53/53/53 51/51/51 52/52/52
f 51/51/51 54/54/54 40/40/40
f 45/45/45 40/40/40 42/42/42
f 45/45/45 43/43/43 44/44/44
f 45/45/45 46/46/46 40/40/40
f 46/46/46 47/47/47 51/51/51
f 50/50/50 51/51/51 49/49/49
f 49/49/49 47/47/47 48/48/48
f 51/51/51 47/47/47 49/49/49
f 43/43/43 45/45/45 42/42/42
f 74/74/74 55/55/55 57/57/57 77/77/77
f 78/78/78 77/77/77 59/59/59
f 63/63/63 79/79/79 78/78/78 61/61/61
f 78/78/78 59/59/59 61/61/61
f 57/57/57 59/59/59 77/77/77
f 73/73/73 74/74/74 77/77/77
f 56/56/56 73/73/73 58/58/58
f 58/58/58 73/73/73 77/77/77
f 62/62/62 78/78/78 79/79/79 64/64/64
f 78/78/78 62/62/62 60/60/60
f 77/77/77 60/60/60 58/58/58
f 77/77/77 78/78/78 60/60/60
f 79/79/79 63/63/63 65/65/65 80/80/80
f 80/80/80 65/65/65 67/67/67 81/81/81
f 64/64/64 79/79/79 80/80/80 66/66/66
f 71/71/71 75/75/75 82/82/82 69/69/69
f 69/69/69 82/82/82 81/81/81 67/67/67
f 81/81/81 68/68/68 66/66/66 80/80/80
f 70/70/70 82/82/82 76/76/76 72/72/72
f 75/75/75 76/76/76 82/82/82
f 82/82/82 70/70/70 68/68/68 81/81/81
