# Rhino

v 92.05526733398438 -229.9304351806641 -922.8301391601563
v 124.6311874389648 -221.7179260253906 -918.3527221679688
v 92.11948394775391 -229.7857666015625 -923.562744140625
v 124.6953964233398 -221.5732574462891 -919.0852661132813
v 92.12239074707031 -229.6016082763672 -923.9216918945313
v 124.6983108520508 -221.3890991210938 -919.4442138671875
v 92.10224914550781 -229.3459167480469 -924.244140625
v 124.6781692504883 -221.1334075927734 -919.7666625976563
v 92.05960845947266 -229.0326995849609 -924.5083618164063
v 124.6355209350586 -220.8201904296875 -920.0309448242188
v 91.99777984619141 -228.6830444335938 -924.6998901367188
v 124.5736999511719 -220.4705200195313 -920.2224731445313
v 91.83860015869141 -227.9672241210938 -924.854736328125
v 124.4145202636719 -219.7547149658203 -920.3772583007813
v 91.64198303222656 -227.254638671875 -924.731201171875
v 124.217903137207 -219.0421295166016 -920.2537841796875
v 91.53067016601563 -226.9092407226563 -924.554931640625
v 124.1065902709961 -218.6967315673828 -920.0775146484375
v 91.41876220703125 -226.6019744873047 -924.3043212890625
v 123.9946823120117 -218.3894653320313 -919.8268432617188
v 91.3133544921875 -226.3536376953125 -923.992919921875
v 123.889274597168 -218.14111328125 -919.5154418945313
v 91.22074890136719 -226.1777038574219 -923.641845703125
v 123.7966690063477 -217.9651794433594 -919.1644287109375
v 91.08866882324219 -226.0499267578125 -922.915283203125
v 123.6645889282227 -217.83740234375 -918.4378051757813
v 101.9473114013672 -223.3124084472656 -921.4227905273438
v 112.8059463500977 -220.5749053955078 -919.9302978515625
v 113.7725448608398 -224.4554290771484 -919.84521484375
v 102.9139099121094 -227.1929321289063 -921.3377075195313
v 108.4074401855469 -225.6795043945313 -921.323974609375
v 108.3902130126953 -225.2396697998047 -922.0054321289063
v 108.3475646972656 -224.9264373779297 -922.2696533203125
v 108.2857437133789 -224.5767822265625 -922.461181640625
v 108.1265640258789 -223.8609771728516 -922.6160278320313
v 107.9299392700195 -223.1483764648438 -922.4924926757813
v 107.8186340332031 -222.802978515625 -922.3162231445313
v 107.7067184448242 -222.4957275390625 -922.0655517578125
v 107.6013107299805 -222.2473754882813 -921.7542114257813
v 107.5087051391602 -222.0714416503906 -921.4031372070313
v 107.4563140869141 -221.9967346191406 -921.1589965820313
v 91.08866882324219 -226.0499267578125 -922.915283203125
v 91.22074890136719 -226.1777038574219 -923.641845703125
v 91.3133544921875 -226.3536376953125 -923.992919921875
v 91.41876220703125 -226.6019744873047 -924.3043212890625
v 91.53067016601563 -226.9092407226563 -924.554931640625
v 91.64198303222656 -227.254638671875 -924.731201171875
v 91.83860015869141 -227.9672241210938 -924.854736328125
v 91.99777984619141 -228.6830444335938 -924.6998901367188
v 92.05960845947266 -229.0326995849609 -924.5083618164063
v 92.10224914550781 -229.3459167480469 -924.244140625
v 92.12239074707031 -229.6016082763672 -923.9216918945313
v 92.11948394775391 -229.7857666015625 -923.562744140625
v 92.05526733398438 -229.9304351806641 -922.8301391601563
v 91.92318725585938 -229.8026580810547 -922.1035766601563
v 91.83058166503906 -229.6267242431641 -921.7525024414063
v 91.72517395019531 -229.3783874511719 -921.441162109375
v 91.61326599121094 -229.0711212158203 -921.1904907226563
v 91.501953125 -228.7257232666016 -921.0142211914063
v 91.30533599853516 -228.0131378173828 -920.8906860351563
v 91.14615631103516 -227.2973175048828 -921.0455322265625
v 91.08432769775391 -226.9476623535156 -921.237060546875
v 91.04168701171875 -226.6344451904297 -921.5012817382813
v 91.02154541015625 -226.3787536621094 -921.82373046875
v 91.02445220947266 -226.1945953369141 -922.1826782226563
v 124.6311874389648 -221.7179260253906 -918.3527221679688
v 124.6953964233398 -221.5732574462891 -919.0852661132813
v 124.6983108520508 -221.3890991210938 -919.4442138671875
v 124.6781692504883 -221.1334075927734 -919.7666625976563
v 124.6355209350586 -220.8201904296875 -920.0309448242188
v 124.5736999511719 -220.4705200195313 -920.2224731445313
v 124.4145202636719 -219.7547149658203 -920.3772583007813
v 124.217903137207 -219.0421295166016 -920.2537841796875
v 124.1065902709961 -218.6967315673828 -920.0775146484375
v 123.9946823120117 -218.3894653320313 -919.8268432617188
v 123.889274597168 -218.14111328125 -919.5154418945313
v 123.7966690063477 -217.9651794433594 -919.1644287109375
v 123.6645889282227 -217.83740234375 -918.4378051757813
v 123.6003723144531 -217.9820861816406 -917.7052612304688
v 123.5974655151367 -218.1662445068359 -917.3463134765625
v 123.6175994873047 -218.4219207763672 -917.0238647460938
v 123.6602478027344 -218.7351531982422 -916.7596435546875
v 123.7220764160156 -219.0848083496094 -916.5680541992188
v 123.8812484741211 -219.8006134033203 -916.4132690429688
v 124.0778732299805 -220.5132141113281 -916.5367431640625
v 124.1891784667969 -220.8586120605469 -916.7130737304688
v 124.3010940551758 -221.1658630371094 -916.9636840820313
v 124.4065017700195 -221.4142150878906 -917.2750854492188
v 124.4991073608398 -221.5901489257813 -917.6261596679688
v 91.08866882324219 -226.0499267578125 -922.915283203125
v 123.6645889282227 -217.83740234375 -918.4378051757813
v 91.02445220947266 -226.1945953369141 -922.1826782226563
v 123.6003723144531 -217.9820861816406 -917.7052612304688
v 91.02154541015625 -226.3787536621094 -921.82373046875
v 123.5974655151367 -218.1662445068359 -917.3463134765625
v 91.04168701171875 -226.6344451904297 -921.5012817382813
v 123.6175994873047 -218.4219207763672 -917.0238647460938
v 91.08432769775391 -226.9476623535156 -921.237060546875
v 123.6602478027344 -218.7351531982422 -916.7596435546875
v 91.14615631103516 -227.2973175048828 -921.0455322265625
v 123.7220764160156 -219.0848083496094 -916.5680541992188
v 91.30533599853516 -228.0131378173828 -920.8906860351563
v 123.8812484741211 -219.8006134033203 -916.4132690429688
v 91.501953125 -228.7257232666016 -921.0142211914063
v 124.0778732299805 -220.5132141113281 -916.5367431640625
v 91.61326599121094 -229.0711212158203 -921.1904907226563
v 124.1891784667969 -220.8586120605469 -916.7130737304688
v 91.72517395019531 -229.3783874511719 -921.441162109375
v 124.3010940551758 -221.1658630371094 -916.9636840820313
v 91.83058166503906 -229.6267242431641 -921.7525024414063
v 124.4065017700195 -221.4142150878906 -917.2750854492188
v 91.92318725585938 -229.8026580810547 -922.1035766601563
v 124.4991073608398 -221.5901489257813 -917.6261596679688
v 92.05526733398438 -229.9304351806641 -922.8301391601563
v 124.6311874389648 -221.7179260253906 -918.3527221679688
v 112.8059463500977 -220.5749053955078 -919.9302978515625
v 101.9473114013672 -223.3124084472656 -921.4227905273438
v 102.9139099121094 -227.1929321289063 -921.3377075195313
v 113.7725448608398 -224.4554290771484 -919.84521484375
v 107.3124160766602 -222.0883331298828 -919.9439697265625
v 107.3296432495117 -222.5281829833984 -919.2625732421875
v 107.3722915649414 -222.8414001464844 -918.9983520507813
v 107.4341125488281 -223.1910705566406 -918.8068237304688
v 107.5932922363281 -223.9068756103516 -918.6519775390625
v 107.7899169921875 -224.6194610595703 -918.7754516601563
v 107.9012222290039 -224.9648590087891 -918.9517822265625
v 108.0131301879883 -225.2721252441406 -919.202392578125
v 108.118537902832 -225.5204772949219 -919.5137939453125
v 108.2111434936523 -225.6964111328125 -919.8648681640625
v 108.263542175293 -225.7711181640625 -920.1090087890625
vt 0 0
vt 0 0.8426350951194763
vt 0.01930439844727516 0
vt 0.01930439844727516 0.8426350951194763
vt 0.02895659767091274 0
vt 0.02895659767091274 0.8426350951194763
vt 0.03860879689455032 0
vt 0.03860879689455032 0.8426350951194763
vt 0.04826099798083305 0
vt 0.04826099798083305 0.8426350951194763
vt 0.05791319534182549 0
vt 0.05791319534182549 0.8426350951194763
vt 0.07721759378910065 0
vt 0.07721759378910065 0.8426350951194763
vt 0.09652199596166611 0
vt 0.09652199596166611 0.8426350951194763
vt 0.1061741933226585 0
vt 0.1061741933226585 0.8426350951194763
vt 0.115826390683651 0
vt 0.115826390683651 0.8426350951194763
vt 0.125478595495224 0
vt 0.125478595495224 0.8426350951194763
vt 0.1351307928562164 0
vt 0.1351307928562164 0.8426350951194763
vt 0.1544351875782013 0
vt 0.1544351875782013 0.8426350951194763
vt 0.1544351875782013 0.2808783948421478
vt 0.1544351875782013 0.5617567896842957
vt 0 0.5617567896842957
vt 0 0.2808783948421478
vt 0.01930439844727516 0.4213175475597382
vt 0.03860879689455032 0.4213175475597382
vt 0.04826099798083305 0.4213175475597382
vt 0.05791319534182549 0.4213175475597382
vt 0.07721759378910065 0.4213175475597382
vt 0.09652199596166611 0.4213175475597382
vt 0.1061741933226585 0.4213175475597382
vt 0.115826390683651 0.4213175475597382
vt 0.125478595495224 0.4213175475597382
vt 0.1351307928562164 0.4213175475597382
vt 0.1415655910968781 0.4213175475597382
vt 0.1559000313282013 0.2854857742786408
vt 0.1597900390625 0.2672299742698669
vt 0.1646025478839874 0.2584093511104584
vt 0.1712418496608734 0.2505854368209839
vt 0.1793434768915176 0.2442879974842072
vt 0.1883624941110611 0.2398584634065628
vt 0.2067684233188629 0.2367554754018784
vt 0.2250242382287979 0.2406454831361771
vt 0.2338448613882065 0.2454579770565033
vt 0.2416687607765198 0.2520972788333893
vt 0.2479662150144577 0.2601989209651947
vt 0.2523957490921021 0.2692179381847382
vt 0.2554987370967865 0.2876238524913788
vt 0.2516087293624878 0.305879682302475
vt 0.2467962205410004 0.3147003054618835
vt 0.2401569187641144 0.322524219751358
vt 0.2320552915334702 0.3288216590881348
vt 0.2230362743139267 0.3332511782646179
vt 0.2046303451061249 0.3363541662693024
vt 0.1863745152950287 0.3324641585350037
vt 0.1775539070367813 0.3276516795158386
vt 0.1697299927473068 0.3210123479366303
vt 0.1634325534105301 0.3129107356071472
vt 0.1590030193328857 0.3038917183876038
vt 0.1559000313282013 0.05086839199066162
vt 0.1590030193328857 0.03246245533227921
vt 0.1634325534105301 0.0234434437006712
vt 0.1697299927473068 0.01534182019531727
vt 0.1775539070367813 0.008702508173882961
vt 0.1863745152950287 0.003890006337314844
vt 0.2046303451061249 0
vt 0.2230362743139267 0.003102988004684448
vt 0.2320552915334702 0.00753252673894167
vt 0.2401569187641144 0.01382996421307325
vt 0.2467962205410004 0.02165387757122517
vt 0.2516087293624878 0.03047448955476284
vt 0.2554987370967865 0.04873030632734299
vt 0.2523957490921021 0.067136250436306
vt 0.2479662150144577 0.07615525275468826
vt 0.2416687607765198 0.08425687998533249
vt 0.2338448613882065 0.09089619666337967
vt 0.2250242382287979 0.0957086980342865
vt 0.2067684233188629 0.09959869831800461
vt 0.1883624941110611 0.09649571031332016
vt 0.1793434768915176 0.09206617623567581
vt 0.1712418496608734 0.08576873689889908
vt 0.1646025478839874 0.07794482260942459
vt 0.1597900390625 0.06912421435117722
vt 0.99853515625 0.4735109508037567
vt 0.1559000313282013 0.4735109508037567
vt 0.99853515625 0.4929984509944916
vt 0.1559000313282013 0.4929984509944916
vt 0.99853515625 0.5027421712875366
vt 0.1559000313282013 0.5027421712875366
vt 0.99853515625 0.5124859213829041
vt 0.1559000313282013 0.5124859213829041
vt 0.99853515625 0.5222297310829163
vt 0.1559000313282013 0.5222297310829163
vt 0.99853515625 0.5319734811782837
vt 0.1559000313282013 0.5319734811782837
vt 0.99853515625 0.5514609813690186
vt 0.1559000313282013 0.5514609813690186
vt 0.99853515625 0.5709484815597534
vt 0.1559000313282013 0.5709484815597534
vt 0.99853515625 0.5806922316551209
vt 0.1559000313282013 0.5806922316551209
vt 0.99853515625 0.5904359817504883
vt 0.1559000313282013 0.5904359817504883
vt 0.99853515625 0.6001797318458557
vt 0.1559000313282013 0.6001797318458557
vt 0.99853515625 0.6099234819412231
vt 0.1559000313282013 0.6099234819412231
vt 0.99853515625 0.629410982131958
vt 0.1559000313282013 0.629410982131958
vt 0.4367783963680267 0.4735109508037567
vt 0.7176567912101746 0.4735109508037567
vt 0.7176567912101746 0.629410982131958
vt 0.4367783963680267 0.629410982131958
vt 0.5772175788879395 0.4929984509944916
vt 0.5772175788879395 0.5124859213829041
vt 0.5772175788879395 0.5222297310829163
vt 0.5772175788879395 0.5319734811782837
vt 0.5772175788879395 0.5514609813690186
vt 0.5772175788879395 0.5709484815597534
vt 0.5772175788879395 0.5806922316551209
vt 0.5772175788879395 0.5904359817504883
vt 0.5772175788879395 0.6001797318458557
vt 0.5772175788879395 0.6099234819412231
vt 0.5772175788879395 0.6164193153381348
vn 0.2416495382785797 -0.9701303839683533 0.02127395197749138
vn 0.2416495382785797 -0.9701303839683533 0.02127395197749138
vn 0.2737562358379364 -0.8977915644645691 -0.3450041711330414
vn 0.2737562358379364 -0.8977915644645691 -0.3450041711330414
vn 0.2752119898796082 -0.8057149052619934 -0.5244824886322022
vn 0.2752119898796082 -0.8057149052619934 -0.5244824886322022
vn 0.2651414573192596 -0.6778708696365356 -0.6857048273086548
vn 0.2651414573192596 -0.6778708696365356 -0.6857048273086548
vn 0.2438188046216965 -0.5212593078613281 -0.8178271055221558
vn 0.2438188046216965 -0.5212593078613281 -0.8178271055221558
vn 0.2129065990447998 -0.3464294373989105 -0.9135958552360535
vn 0.2129065990447998 -0.3464294373989105 -0.9135958552360535
vn 0.1333170980215073 0.01147617027163506 -0.9910069704055786
vn 0.1333170980215073 0.01147617027163506 -0.9910069704055786
vn 0.03500676900148392 0.367770254611969 -0.9292575120925903
vn 0.03500676900148392 0.367770254611969 -0.9292575120925903
vn -0.02064716443419457 0.54047030210495 -0.8411096930503845
vn -0.02064716443419457 0.54047030210495 -0.8411096930503845
vn -0.07660259306430817 0.6941006183624268 -0.7157906889915466
vn -0.07660259306430817 0.6941006183624268 -0.7157906889915466
vn -0.1293071508407593 0.8182746171951294 -0.5600948929786682
vn -0.1293071508407593 0.8182746171951294 -0.5600948929786682
vn -0.1756095886230469 0.9062401652336121 -0.3845646977424622
vn -0.1756095886230469 0.9062401652336121 -0.3845646977424622
vn -0.2416495382785797 0.9701303839683533 -0.02127395197749138
vn -0.2416495382785797 0.9701303839683533 -0.02127395197749138
vn -0.2416495382785797 0.9701303839683533 -0.02127395197749138
vn -0.2416495382785797 0.9701303839683533 -0.02127395197749138
vn 0.2416495382785797 -0.9701303839683533 0.02127395197749138
vn 0.2416495382785797 -0.9701303839683533 0.02127395197749138
vn 0.2737562358379364 -0.8977915644645691 -0.3450041711330414
vn 0.2651414573192596 -0.6778708696365356 -0.6857048273086548
vn 0.2438188046216965 -0.5212593078613281 -0.8178271055221558
vn 0.2129065990447998 -0.3464294373989105 -0.9135958552360535
vn 0.1333170980215073 0.01147617027163506 -0.9910069704055786
vn 0.03500676900148392 0.367770254611969 -0.9292575120925903
vn -0.02064716443419457 0.54047030210495 -0.8411096930503845
vn -0.07660259306430817 0.6941006183624268 -0.7157906889915466
vn -0.1293071508407593 0.8182746171951294 -0.5600948929786682
vn -0.1756095886230469 0.9062401652336121 -0.3845646977424622
vn -0.2018062174320221 0.9435964226722717 -0.2624881267547607
vn -0.9611618518829346 -0.2423125505447388 -0.1321081817150116
vn -0.9611618518829346 -0.2423125505447388 -0.1321081817150116
vn -0.9611618518829346 -0.2423125505447388 -0.1321081817150116
vn -0.9611618518829346 -0.2423125505447388 -0.1321081817150116
vn -0.9611618518829346 -0.2423125505447388 -0.1321081817150116
vn -0.9611618518829346 -0.2423125505447388 -0.1321081817150116
vn -0.9611618518829346 -0.2423125505447388 -0.1321081817150116
vn -0.9611618518829346 -0.2423125505447388 -0.1321081817150116
vn -0.9611618518829346 -0.2423125505447388 -0.1321081817150116
vn -0.9611618518829346 -0.2423125505447388 -0.1321081817150116
vn -0.9611618518829346 -0.2423125505447388 -0.1321081817150116
vn -0.9611618518829346 -0.2423125505447388 -0.1321081817150116
vn -0.9611618518829346 -0.2423125505447388 -0.1321081817150116
vn -0.9611618518829346 -0.2423125505447388 -0.1321081817150116
vn -0.9611618518829346 -0.2423125505447388 -0.1321081817150116
vn -0.9611618518829346 -0.2423125505447388 -0.1321081817150116
vn -0.9611618518829346 -0.2423125505447388 -0.1321081817150116
vn -0.9611618518829346 -0.2423125505447388 -0.1321081817150116
vn -0.9611618518829346 -0.2423125505447388 -0.1321081817150116
vn -0.9611618518829346 -0.2423125505447388 -0.1321081817150116
vn -0.9611618518829346 -0.2423125505447388 -0.1321081817150116
vn -0.9611618518829346 -0.2423125505447388 -0.1321081817150116
vn -0.9611618518829346 -0.2423125505447388 -0.1321081817150116
vn -0.9611618518829346 -0.2423125505447388 -0.1321081817150116
vn 0.9611618518829346 0.2423125505447388 0.1321081817150116
vn 0.9611618518829346 0.2423125505447388 0.1321081817150116
vn 0.9611618518829346 0.2423125505447388 0.1321081817150116
vn 0.9611618518829346 0.2423125505447388 0.1321081817150116
vn 0.9611618518829346 0.2423125505447388 0.1321081817150116
vn 0.9611618518829346 0.2423125505447388 0.1321081817150116
vn 0.9611618518829346 0.2423125505447388 0.1321081817150116
vn 0.9611618518829346 0.2423125505447388 0.1321081817150116
vn 0.9611618518829346 0.2423125505447388 0.1321081817150116
vn 0.9611618518829346 0.2423125505447388 0.1321081817150116
vn 0.9611618518829346 0.2423125505447388 0.1321081817150116
vn 0.9611618518829346 0.2423125505447388 0.1321081817150116
vn 0.9611618518829346 0.2423125505447388 0.1321081817150116
vn 0.9611618518829346 0.2423125505447388 0.1321081817150116
vn 0.9611618518829346 0.2423125505447388 0.1321081817150116
vn 0.9611618518829346 0.2423125505447388 0.1321081817150116
vn 0.9611618518829346 0.2423125505447388 0.1321081817150116
vn 0.9611618518829346 0.2423125505447388 0.1321081817150116
vn 0.9611618518829346 0.2423125505447388 0.1321081817150116
vn 0.9611618518829346 0.2423125505447388 0.1321081817150116
vn 0.9611618518829346 0.2423125505447388 0.1321081817150116
vn 0.9611618518829346 0.2423125505447388 0.1321081817150116
vn 0.9611618518829346 0.2423125505447388 0.1321081817150116
vn 0.9611618518829346 0.2423125505447388 0.1321081817150116
vn -0.2416495382785797 0.9701303839683533 -0.02127395197749138
vn -0.2416495382785797 0.9701303839683533 -0.02127395197749138
vn -0.2737562358379364 0.8977915644645691 0.3450041711330414
vn -0.2737562358379364 0.8977915644645691 0.3450041711330414
vn -0.2752119898796082 0.8057149052619934 0.5244824886322022
vn -0.2752119898796082 0.8057149052619934 0.5244824886322022
vn -0.2651414573192596 0.6778708696365356 0.6857048273086548
vn -0.2651414573192596 0.6778708696365356 0.6857048273086548
vn -0.2438188046216965 0.5212593078613281 0.8178271055221558
vn -0.2438188046216965 0.5212593078613281 0.8178271055221558
vn -0.2129065990447998 0.3464294373989105 0.9135958552360535
vn -0.2129065990447998 0.3464294373989105 0.9135958552360535
vn -0.1333170980215073 -0.01147617027163506 0.9910069704055786
vn -0.1333170980215073 -0.01147617027163506 0.9910069704055786
vn -0.03500676900148392 -0.367770254611969 0.9292575120925903
vn -0.03500676900148392 -0.367770254611969 0.9292575120925903
vn 0.02064716443419457 -0.54047030210495 0.8411096930503845
vn 0.02064716443419457 -0.54047030210495 0.8411096930503845
vn 0.07660259306430817 -0.6941006183624268 0.7157906889915466
vn 0.07660259306430817 -0.6941006183624268 0.7157906889915466
vn 0.1293071508407593 -0.8182746171951294 0.5600948929786682
vn 0.1293071508407593 -0.8182746171951294 0.5600948929786682
vn 0.1756095886230469 -0.9062401652336121 0.3845646977424622
vn 0.1756095886230469 -0.9062401652336121 0.3845646977424622
vn 0.2416495382785797 -0.9701303839683533 0.02127395197749138
vn 0.2416495382785797 -0.9701303839683533 0.02127395197749138
vn -0.2416495382785797 0.9701303839683533 -0.02127395197749138
vn -0.2416495382785797 0.9701303839683533 -0.02127395197749138
vn 0.2416495382785797 -0.9701303839683533 0.02127395197749138
vn 0.2416495382785797 -0.9701303839683533 0.02127395197749138
vn -0.2737562358379364 0.8977915644645691 0.3450041711330414
vn -0.2651414573192596 0.6778708696365356 0.6857048273086548
vn -0.2438188046216965 0.5212593078613281 0.8178271055221558
vn -0.2129065990447998 0.3464294373989105 0.9135958552360535
vn -0.1333170980215073 -0.01147617027163506 0.9910069704055786
vn -0.03500676900148392 -0.367770254611969 0.9292575120925903
vn 0.02064716443419457 -0.54047030210495 0.8411096930503845
vn 0.07660259306430817 -0.6941006183624268 0.7157906889915466
vn 0.1293071508407593 -0.8182746171951294 0.5600948929786682
vn 0.1756095886230469 -0.9062401652336121 0.3845646977424622
vn 0.2018062174320221 -0.9435964226722717 0.2624881267547607
f 30/30/30 1/1/1 3/3/3 31/31/31
f 5/5/5 31/31/31 3/3/3
f 32/32/32 31/31/31 5/5/5
f 29/29/29 30/30/30 31/31/31
f 32/32/32 7/7/7 9/9/9 33/33/33
f 11/11/11 34/34/34 33/33/33 9/9/9
f 13/13/13 35/35/35 34/34/34 11/11/11
f 5/5/5 7/7/7 32/32/32
f 6/6/6 31/31/31 32/32/32
f 4/4/4 2/2/2 29/29/29
f 31/31/31 6/6/6 4/4/4
f 32/32/32 8/8/8 6/6/6
f 31/31/31 4/4/4 29/29/29
f 34/34/34 12/12/12 10/10/10 33/33/33
f 12/12/12 34/34/34 35/35/35 14/14/14
f 33/33/33 10/10/10 8/8/8 32/32/32
f 35/35/35 13/13/13 15/15/15 36/36/36
f 17/17/17 37/37/37 36/36/36 15/15/15
f 37/37/37 17/17/17 19/19/19 38/38/38
f 37/37/37 18/18/18 16/16/16 36/36/36
f 14/14/14 35/35/35 36/36/36 16/16/16
f 21/21/21 39/39/39 38/38/38 19/19/19
f 23/23/23 40/40/40 39/39/39 21/21/21
f 23/23/23 25/25/25 41/41/41
f 25/25/25 27/27/27 41/41/41
f 38/38/38 20/20/20 18/18/18 37/37/37
f 20/20/20 38/38/38 39/39/39 22/22/22
f 41/41/41 24/24/24 40/40/40
f 23/23/23 41/41/41 40/40/40
f 27/27/27 28/28/28 41/41/41
f 28/28/28 26/26/26 41/41/41
f 40/40/40 24/24/24 22/22/22 39/39/39
f 41/41/41 26/26/26 24/24/24
f 42/42/42 43/43/43 63/63/63
f 44/44/44 45/45/45 43/43/43
f 47/47/47 45/45/45 46/46/46
f 63/63/63 43/43/43 50/50/50
f 50/50/50 43/43/43 45/45/45
f 65/65/65 42/42/42 64/64/64
f 64/64/64 42/42/42 63/63/63
f 62/62/62 63/63/63 50/50/50
f 62/62/62 57/57/57 61/61/61
f 60/60/60 61/61/61 58/58/58
f 47/47/47 50/50/50 45/45/45
f 47/47/47 49/49/49 50/50/50
f 62/62/62 50/50/50 57/57/57
f 50/50/50 52/52/52 53/53/53
f 51/51/51 52/52/52 50/50/50
f 53/53/53 57/57/57 50/50/50
f 61/61/61 57/57/57 58/58/58
f 58/58/58 59/59/59 60/60/60
f 56/56/56 57/57/57 55/55/55
f 55/55/55 57/57/57 53/53/53
f 54/54/54 55/55/55 53/53/53
f 47/47/47 48/48/48 49/49/49
f 67/67/67 68/68/68 89/89/89
f 69/69/69 70/70/70 68/68/68
f 82/82/82 87/87/87 70/70/70
f 68/68/68 70/70/70 87/87/87
f 70/70/70 71/71/71 82/82/82
f 89/89/89 68/68/68 88/88/88
f 67/67/67 89/89/89 66/66/66
f 86/86/86 87/87/87 85/85/85
f 68/68/68 87/87/87 88/88/88
f 82/82/82 85/85/85 87/87/87
f 73/73/73 71/71/71 72/72/72
f 75/75/75 73/73/73 74/74/74
f 82/82/82 71/71/71 75/75/75
f 77/77/77 80/80/80 76/76/76
f 82/82/82 75/75/75 76/76/76
f 80/80/80 77/77/77 78/78/78
f 83/83/83 84/84/84 82/82/82
f 84/84/84 85/85/85 82/82/82
f 81/81/81 82/82/82 80/80/80
f 80/80/80 82/82/82 76/76/76
f 78/78/78 79/79/79 80/80/80
f 75/75/75 71/71/71 73/73/73
f 117/117/117 90/90/90 92/92/92
f 117/117/117 92/92/92 120/120/120
f 94/94/94 120/120/120 92/92/92
f 121/121/121 120/120/120 94/94/94
f 116/116/116 117/117/117 120/120/120
f 121/121/121 96/96/96 98/98/98 122/122/122
f 100/100/100 123/123/123 122/122/122 98/98/98
f 102/102/102 124/124/124 123/123/123 100/100/100
f 94/94/94 96/96/96 121/121/121
f 95/95/95 120/120/120 121/121/121
f 91/91/91 116/116/116 120/120/120 93/93/93
f 120/120/120 95/95/95 93/93/93
f 121/121/121 97/97/97 95/95/95
f 123/123/123 101/101/101 99/99/99 122/122/122
f 101/101/101 123/123/123 124/124/124 103/103/103
f 122/122/122 99/99/99 97/97/97 121/121/121
f 124/124/124 102/102/102 104/104/104 125/125/125
f 106/106/106 126/126/126 125/125/125 104/104/104
f 126/126/126 106/106/106 108/108/108 127/127/127
f 126/126/126 107/107/107 105/105/105 125/125/125
f 103/103/103 124/124/124 125/125/125 105/105/105
f 110/110/110 128/128/128 127/127/127 108/108/108
f 112/112/112 129/129/129 128/128/128 110/110/110
f 112/112/112 114/114/114 130/130/130
f 114/114/114 118/118/118 130/130/130
f 127/127/127 109/109/109 107/107/107 126/126/126
f 109/109/109 127/127/127 128/128/128 111/111/111
f 130/130/130 113/113/113 129/129/129
f 112/112/112 130/130/130 129/129/129
f 118/118/118 119/119/119 130/130/130
f 119/119/119 115/115/115 130/130/130
f 129/129/129 113/113/113 111/111/111 128/128/128
f 130/130/130 115/115/115 113/113/113
