# Rhino

v 93.82485198974609 -232.4292602539063 -894.3377685546875
v 125.5560455322266 -214.5759124755859 -909.2308349609375
v 93.51308441162109 -232.4435577392578 -895.0191650390625
v 125.244270324707 -214.5901947021484 -909.9122314453125
v 93.07097625732422 -232.1812896728516 -895.646728515625
v 124.8021697998047 -214.3279266357422 -910.539794921875
v 92.591552734375 -231.6730499267578 -896.0588989257813
v 124.3227462768555 -213.8197021484375 -910.9519653320313
v 92.18422698974609 -231.0575256347656 -896.1889038085938
v 123.915412902832 -213.2041625976563 -911.0819702148438
v 91.86956787109375 -230.3898468017578 -896.0588989257813
v 123.6007537841797 -212.5364837646484 -910.9519653320313
v 91.68404388427734 -229.7162475585938 -895.646728515625
v 123.4152297973633 -211.8628997802734 -910.539794921875
v 91.68937683105469 -229.2022399902344 -895.0191650390625
v 123.4205627441406 -211.348876953125 -909.9122314453125
v 91.86342620849609 -228.9431762695313 -894.3377685546875
v 123.5946197509766 -211.0898132324219 -909.2308349609375
v 107.7290267944336 -220.0164947509766 -901.7843017578125
v 109.6904525756836 -223.5025939941406 -901.7843017578125
v 91.86342620849609 -228.9431762695313 -894.3377685546875
v 91.68937683105469 -229.2022399902344 -895.0191650390625
v 91.68404388427734 -229.7162475585938 -895.646728515625
v 91.86956787109375 -230.3898468017578 -896.0588989257813
v 92.18422698974609 -231.0575256347656 -896.1889038085938
v 92.591552734375 -231.6730499267578 -896.0588989257813
v 93.07097625732422 -232.1812896728516 -895.646728515625
v 93.51308441162109 -232.4435577392578 -895.0191650390625
v 93.82485198974609 -232.4292602539063 -894.3377685546875
v 93.99890899658203 -232.1702117919922 -893.6563720703125
v 94.00424194335938 -231.6561889648438 -893.02880859375
v 93.81871795654297 -230.9826049804688 -892.6166381835938
v 93.50405883789063 -230.3149261474609 -892.4866333007813
v 93.09673309326172 -229.6993865966797 -892.6166381835938
v 92.61730194091797 -229.191162109375 -893.02880859375
v 92.17520141601563 -228.9288940429688 -893.6563720703125
v 125.5560455322266 -214.5759124755859 -909.2308349609375
v 125.244270324707 -214.5901947021484 -909.9122314453125
v 124.8021697998047 -214.3279266357422 -910.539794921875
v 124.3227462768555 -213.8197021484375 -910.9519653320313
v 123.915412902832 -213.2041625976563 -911.0819702148438
v 123.6007537841797 -212.5364837646484 -910.9519653320313
v 123.4152297973633 -211.8628997802734 -910.539794921875
v 123.4205627441406 -211.348876953125 -909.9122314453125
v 123.5946197509766 -211.0898132324219 -909.2308349609375
v 123.9063873291016 -211.0755310058594 -908.5494384765625
v 124.3484954833984 -211.3377990722656 -907.921875
v 124.8279190063477 -211.8460235595703 -907.5097045898438
v 125.2352447509766 -212.4615631103516 -907.3796997070313
v 125.5499114990234 -213.1292419433594 -907.5097045898438
v 125.7354278564453 -213.8028411865234 -907.921875
v 125.730094909668 -214.3168487548828 -908.5494384765625
v 91.86342620849609 -228.9431762695313 -894.3377685546875
v 123.5946197509766 -211.0898132324219 -909.2308349609375
v 92.17520141601563 -228.9288940429688 -893.6563720703125
v 123.9063873291016 -211.0755310058594 -908.5494384765625
v 92.61730194091797 -229.191162109375 -893.02880859375
v 124.3484954833984 -211.3377990722656 -907.921875
v 93.09673309326172 -229.6993865966797 -892.6166381835938
v 124.8279190063477 -211.8460235595703 -907.5097045898438
v 93.50405883789063 -230.3149261474609 -892.4866333007813
v 125.2352447509766 -212.4615631103516 -907.3796997070313
v 93.81871795654297 -230.9826049804688 -892.6166381835938
v 125.5499114990234 -213.1292419433594 -907.5097045898438
v 94.00424194335938 -231.6561889648438 -893.02880859375
v 125.7354278564453 -213.8028411865234 -907.921875
v 93.99890899658203 -232.1702117919922 -893.6563720703125
v 125.730094909668 -214.3168487548828 -908.5494384765625
v 93.82485198974609 -232.4292602539063 -894.3377685546875
v 125.5560455322266 -214.5759124755859 -909.2308349609375
v 107.7290267944336 -220.0164947509766 -901.7843017578125
v 109.6904525756836 -223.5025939941406 -901.7843017578125
vt 0.99853515625 0.4847611784934998
vt 0.1369616836309433 0.4847611784934998
vt 0.99853515625 0.5018813610076904
vt 0.1369616836309433 0.5018813610076904
vt 0.99853515625 0.5190016031265259
vt 0.1369616836309433 0.5190016031265259
vt 0.99853515625 0.5361217856407166
vt 0.1369616836309433 0.5361217856407166
vt 0.99853515625 0.553242027759552
vt 0.1369616836309433 0.553242027759552
vt 0.99853515625 0.5703622102737427
vt 0.1369616836309433 0.5703622102737427
vt 0.99853515625 0.5874824523925781
vt 0.1369616836309433 0.5874824523925781
vt 0.99853515625 0.6046026349067688
vt 0.1369616836309433 0.6046026349067688
vt 0.99853515625 0.6217228770256043
vt 0.1369616836309433 0.6217228770256043
vt 0.5677484273910523 0.6217228770256043
vt 0.5677484273910523 0.4847611784934998
vt 0.1808406859636307 0.2423805892467499
vt 0.1969923228025436 0.2454614043235779
vt 0.2118678390979767 0.2552324533462524
vt 0.2216388732194901 0.2701079547405243
vt 0.2247197031974793 0.2862595915794373
vt 0.2216388732194901 0.3024112284183502
vt 0.2118678390979767 0.3172867596149445
vt 0.1969923228025436 0.3270577788352966
vt 0.1808406859636307 0.3301385939121246
vt 0.1646890640258789 0.3270577788352966
vt 0.1498135477304459 0.3172867596149445
vt 0.1400424987077713 0.3024112284183502
vt 0.1369616836309433 0.2862595915794373
vt 0.1400424987077713 0.2701079547405243
vt 0.1498135477304459 0.2552324533462524
vt 0.1646890640258789 0.2454614043235779
vt 0.1369616836309433 0.04387900978326798
vt 0.1400424987077713 0.02772738039493561
vt 0.1498135477304459 0.01285186503082514
vt 0.1646890640258789 0.00308081996627152
vt 0.1808406859636307 0
vt 0.1969923228025436 0.00308081996627152
vt 0.2118678390979767 0.01285186503082514
vt 0.2216388881206513 0.02772738039493561
vt 0.2247197031974793 0.04387900978326798
vt 0.2216388881206513 0.06003063917160034
vt 0.2118678390979767 0.07490615546703339
vt 0.1969923228025436 0.08467720448970795
vt 0.1808406859636307 0.08775801956653595
vt 0.1646890640258789 0.08467720448970795
vt 0.1498135477304459 0.07490615546703339
vt 0.1400424987077713 0.06003063917160034
vt 0 0
vt 0 0.8615734577178955
vt 0.01693710498511791 0
vt 0.01693710498511791 0.8615734577178955
vt 0.03387420997023583 0
vt 0.03387420997023583 0.8615734577178955
vt 0.05081131309270859 0
vt 0.05081131309270859 0.8615734577178955
vt 0.06774841994047165 0
vt 0.06774841994047165 0.8615734577178955
vt 0.08468552678823471 0
vt 0.08468552678823471 0.8615734577178955
vt 0.1016226261854172 0
vt 0.1016226261854172 0.8615734577178955
vt 0.1185597330331802 0
vt 0.1185597330331802 0.8615734577178955
vt 0.1354968398809433 0
vt 0.1354968398809433 0.8615734577178955
vt 0 0.4307867288589478
vt 0.1354968398809433 0.4307867288589478
vn 0.4903564751148224 -0.8715219497680664 -1.395614987508356e-13
vn 0.4903564751148224 -0.8715219497680664 -1.423052485311632e-13
vn 0.3344718217849731 -0.8786673545837402 -0.340693861246109
vn 0.3344718217849731 -0.8786673545837402 -0.340693861246109
vn 0.1134186536073685 -0.7475327253341675 -0.6544700264930725
vn 0.1134186536073685 -0.7475327253341675 -0.6544700264930725
vn -0.1262937188148499 -0.4934169054031372 -0.8605751991271973
vn -0.1262937188148499 -0.4934169054031372 -0.8605751991271973
vn -0.3299582898616791 -0.1856490075588226 -0.9255603551864624
vn -0.3299582898616791 -0.1856490075588226 -0.9255603551864624
vn -0.4872889816761017 0.1481883525848389 -0.8605751991271973
vn -0.4872889816761017 0.1481883525848389 -0.8605751991271973
vn -0.5800501108169556 0.4849854111671448 -0.6544700264930725
vn -0.5800501108169556 0.4849854111671448 -0.6544700264930725
vn -0.5773836374282837 0.7419945001602173 -0.340693861246109
vn -0.5773836374282837 0.7419945001602173 -0.340693861246109
vn -0.4903564751148224 0.8715219497680664 1.532802612050008e-13
vn -0.4903564751148224 0.8715219497680664 1.190295827397173e-13
vn -0.4903564751148224 0.8715219497680664 1.315614284180811e-13
vn 0.4903564751148224 -0.8715219497680664 -1.795508186575034e-13
vn -0.8066461682319641 -0.4538545310497284 0.3786000907421112
vn -0.8066461682319641 -0.4538545310497284 0.3786000907421112
vn -0.8066461682319641 -0.4538545310497284 0.3786000907421112
vn -0.8066461682319641 -0.4538545310497284 0.3786000907421112
vn -0.8066461682319641 -0.4538545310497284 0.3786000907421112
vn -0.8066461682319641 -0.4538545310497284 0.3786000907421112
vn -0.8066461682319641 -0.4538545310497284 0.3786000907421112
vn -0.8066461682319641 -0.4538545310497284 0.3786000907421112
vn -0.8066461682319641 -0.4538545310497284 0.3786000907421112
vn -0.8066461682319641 -0.4538545310497284 0.3786000907421112
vn -0.8066461682319641 -0.4538545310497284 0.3786000907421112
vn -0.8066461682319641 -0.4538545310497284 0.3786000907421112
vn -0.8066461682319641 -0.4538545310497284 0.3786000907421112
vn -0.8066461682319641 -0.4538545310497284 0.3786000907421112
vn -0.8066461682319641 -0.4538545310497284 0.3786000907421112
vn -0.8066461682319641 -0.4538545310497284 0.3786000907421112
vn 0.8066461682319641 0.4538545310497284 -0.3786000907421112
vn 0.8066461682319641 0.4538545310497284 -0.3786000907421112
vn 0.8066461682319641 0.4538545310497284 -0.3786000907421112
vn 0.8066461682319641 0.4538545310497284 -0.3786000907421112
vn 0.8066461682319641 0.4538545310497284 -0.3786000907421112
vn 0.8066461682319641 0.4538545310497284 -0.3786000907421112
vn 0.8066461682319641 0.4538545310497284 -0.3786000907421112
vn 0.8066461682319641 0.4538545310497284 -0.3786000907421112
vn 0.8066461682319641 0.4538545310497284 -0.3786000907421112
vn 0.8066461682319641 0.4538545310497284 -0.3786000907421112
vn 0.8066461682319641 0.4538545310497284 -0.3786000907421112
vn 0.8066461682319641 0.4538545310497284 -0.3786000907421112
vn 0.8066461682319641 0.4538545310497284 -0.3786000907421112
vn 0.8066461682319641 0.4538545310497284 -0.3786000907421112
vn 0.8066461682319641 0.4538545310497284 -0.3786000907421112
vn 0.8066461682319641 0.4538545310497284 -0.3786000907421112
vn -0.4903564751148224 0.8715219497680664 -2.566796872705696e-13
vn -0.4903564751148224 0.8715219497680664 -2.403404894806699e-13
vn -0.3344718217849731 0.8786673545837402 0.340693861246109
vn -0.3344718217849731 0.8786673545837402 0.340693861246109
vn -0.1134186536073685 0.7475327253341675 0.6544700264930725
vn -0.1134186536073685 0.7475327253341675 0.6544700264930725
vn 0.1262937188148499 0.4934169054031372 0.8605751991271973
vn 0.1262937188148499 0.4934169054031372 0.8605751991271973
vn 0.3299582898616791 0.1856490075588226 0.9255603551864624
vn 0.3299582898616791 0.1856490075588226 0.9255603551864624
vn 0.4872889816761017 -0.1481883525848389 0.8605751991271973
vn 0.4872889816761017 -0.1481883525848389 0.8605751991271973
vn 0.5800501108169556 -0.4849854111671448 0.6544700264930725
vn 0.5800501108169556 -0.4849854111671448 0.6544700264930725
vn 0.5773836374282837 -0.7419945001602173 0.340693861246109
vn 0.5773836374282837 -0.7419945001602173 0.340693861246109
vn 0.4903564751148224 -0.8715219497680664 2.605332941572891e-13
vn 0.4903564751148224 -0.8715219497680664 2.569571617115629e-13
vn -0.4903564751148224 0.8715219497680664 -2.575717417130363e-13
vn 0.4903564751148224 -0.8715219497680664 2.587374758888927e-13
f 20/20/20 1/1/1 3/3/3
f 7/7/7 8/8/8 6/6/6 5/5/5
f 8/8/8 7/7/7 9/9/9 10/10/10
f 5/5/5 6/6/6 4/4/4 3/3/3
f 4/4/4 2/2/2 20/20/20
f 3/3/3 4/4/4 20/20/20
f 13/13/13 14/14/14 12/12/12 11/11/11
f 19/19/19 15/15/15 17/17/17
f 15/15/15 16/16/16 14/14/14 13/13/13
f 15/15/15 19/19/19 16/16/16
f 11/11/11 12/12/12 10/10/10 9/9/9
f 19/19/19 18/18/18 16/16/16
f 22/22/22 26/26/26 21/21/21
f 26/26/26 22/22/22 23/23/23
f 32/32/32 33/33/33 21/21/21
f 35/35/35 36/36/36 21/21/21
f 35/35/35 33/33/33 34/34/34
f 35/35/35 21/21/21 33/33/33
f 23/23/23 24/24/24 26/26/26
f 21/21/21 26/26/26 28/28/28
f 26/26/26 27/27/27 28/28/28
f 32/32/32 21/21/21 28/28/28
f 31/31/31 32/32/32 28/28/28
f 30/30/30 31/31/31 28/28/28
f 30/30/30 28/28/28 29/29/29
f 25/25/25 26/26/26 24/24/24
f 40/40/40 38/38/38 39/39/39
f 52/52/52 38/38/38 40/40/40
f 51/51/51 40/40/40 43/43/43
f 52/52/52 37/37/37 38/38/38
f 40/40/40 51/51/51 52/52/52
f 51/51/51 45/45/45 50/50/50
f 42/42/42 40/40/40 41/41/41
f 51/51/51 43/43/43 45/45/45
f 43/43/43 44/44/44 45/45/45
f 49/49/49 50/50/50 45/45/45
f 47/47/47 48/48/48 49/49/49
f 49/49/49 46/46/46 47/47/47
f 46/46/46 49/49/49 45/45/45
f 42/42/42 43/43/43 40/40/40
f 71/71/71 53/53/53 55/55/55
f 59/59/59 60/60/60 58/58/58 57/57/57
f 60/60/60 59/59/59 61/61/61 62/62/62
f 57/57/57 58/58/58 56/56/56 55/55/55
f 56/56/56 54/54/54 71/71/71
f 55/55/55 56/56/56 71/71/71
f 65/65/65 66/66/66 64/64/64 63/63/63
f 72/72/72 67/67/67 69/69/69
f 67/67/67 68/68/68 66/66/66 65/65/65
f 67/67/67 72/72/72 68/68/68
f 63/63/63 64/64/64 62/62/62 61/61/61
f 72/72/72 70/70/70 68/68/68
