# Rhino

v 133.1459655761719 -173.7667388916016 -874.3004150390625
v 55.80154800415039 -195.6591339111328 -878.2611083984375
v 133.0745239257813 -173.6475982666016 -873.56396484375
v 55.73011016845703 -195.5399932861328 -877.5245971679688
v 132.9225463867188 -173.2338256835938 -872.8829345703125
v 55.57812118530273 -195.126220703125 -876.8436279296875
v 132.7175598144531 -172.5911712646484 -872.4323120117188
v 55.37314224243164 -194.4835662841797 -876.3930053710938
v 132.5104522705078 -171.8859710693359 -872.2857666015625
v 55.1660270690918 -193.7783660888672 -876.2464599609375
v 132.3159790039063 -171.1746826171875 -872.419677734375
v 54.9715576171875 -193.0670776367188 -876.38037109375
v 132.1510925292969 -170.5127410888672 -872.8587036132813
v 54.80667495727539 -192.4051361083984 -876.8193969726563
v 132.0601501464844 -170.0695953369141 -873.5320434570313
v 54.71572113037109 -191.9619903564453 -877.4927368164063
v 132.0549774169922 -169.9185485839844 -874.26611328125
v 54.7105598449707 -191.8109436035156 -878.226806640625
v 93.38277435302734 -180.86474609375 -876.2464599609375
v 94.47376251220703 -184.7129364013672 -876.28076171875
v 132.0549774169922 -169.9185485839844 -874.26611328125
v 132.0601501464844 -170.0695953369141 -873.5320434570313
v 132.1510925292969 -170.5127410888672 -872.8587036132813
v 132.3159790039063 -171.1746826171875 -872.419677734375
v 132.5104522705078 -171.8859710693359 -872.2857666015625
v 132.7175598144531 -172.5911712646484 -872.4323120117188
v 132.9225463867188 -173.2338256835938 -872.8829345703125
v 133.0745239257813 -173.6475982666016 -873.56396484375
v 133.1459655761719 -173.7667388916016 -874.3004150390625
v 133.1408081054688 -173.6157073974609 -875.0344848632813
v 133.0498504638672 -173.1725616455078 -875.7078247070313
v 132.8849792480469 -172.5106201171875 -876.1468505859375
v 132.6905059814453 -171.7993316650391 -876.28076171875
v 132.4833831787109 -171.0941162109375 -876.1342163085938
v 132.2784118652344 -170.4514770507813 -875.68359375
v 132.1264190673828 -170.0377044677734 -875.0026245117188
v 55.80154800415039 -195.6591339111328 -878.2611083984375
v 55.73011016845703 -195.5399932861328 -877.5245971679688
v 55.57812118530273 -195.126220703125 -876.8436279296875
v 55.37314224243164 -194.4835662841797 -876.3930053710938
v 55.1660270690918 -193.7783660888672 -876.2464599609375
v 54.9715576171875 -193.0670776367188 -876.38037109375
v 54.80667495727539 -192.4051361083984 -876.8193969726563
v 54.71572113037109 -191.9619903564453 -877.4927368164063
v 54.7105598449707 -191.8109436035156 -878.226806640625
v 54.78199768066406 -191.9300994873047 -878.9632568359375
v 54.93399047851563 -192.3438720703125 -879.644287109375
v 55.13896560668945 -192.9865112304688 -880.0949096679688
v 55.3460807800293 -193.6917114257813 -880.241455078125
v 55.54055404663086 -194.4030151367188 -880.1075439453125
v 55.70543670654297 -195.06494140625 -879.6685180664063
v 55.79638671875 -195.5080871582031 -878.9951782226563
v 132.0549774169922 -169.9185485839844 -874.26611328125
v 54.7105598449707 -191.8109436035156 -878.226806640625
v 132.1264190673828 -170.0377044677734 -875.0026245117188
v 54.78199768066406 -191.9300994873047 -878.9632568359375
v 132.2784118652344 -170.4514770507813 -875.68359375
v 54.93399047851563 -192.3438720703125 -879.644287109375
v 132.4833831787109 -171.0941162109375 -876.1342163085938
v 55.13896560668945 -192.9865112304688 -880.0949096679688
v 132.6905059814453 -171.7993316650391 -876.28076171875
v 55.3460807800293 -193.6917114257813 -880.241455078125
v 132.8849792480469 -172.5106201171875 -876.1468505859375
v 55.54055404663086 -194.4030151367188 -880.1075439453125
v 133.0498504638672 -173.1725616455078 -875.7078247070313
v 55.70543670654297 -195.06494140625 -879.6685180664063
v 133.1408081054688 -173.6157073974609 -875.0344848632813
v 55.79638671875 -195.5080871582031 -878.9951782226563
v 133.1459655761719 -173.7667388916016 -874.3004150390625
v 55.80154800415039 -195.6591339111328 -878.2611083984375
v 93.38277435302734 -180.86474609375 -876.2464599609375
v 94.47376251220703 -184.7129364013672 -876.28076171875
vt 0 0
vt 0 0.9265510439872742
vt 0.008814907632768154 0
vt 0.008814907632768154 0.9265510439872742
vt 0.01762981526553631 0
vt 0.01762981526553631 0.9265510439872742
vt 0.02644472196698189 0
vt 0.02644472196698189 0.9265510439872742
vt 0.03525963053107262 0
vt 0.03525963053107262 0.9265510439872742
vt 0.04407453536987305 0
vt 0.04407453536987305 0.9265510439872742
vt 0.05288944393396378 0
vt 0.05288944393396378 0.9265510439872742
vt 0.0617043524980545 0
vt 0.0617043524980545 0.9265510439872742
vt 0.07051926106214523 0
vt 0.07051926106214523 0.9265510439872742
vt 0.07051926106214523 0.4632755219936371
vt 0 0.4632755219936371
vt 0.094847172498703 0.04612202197313309
vt 0.08637243509292603 0.04443000629544258
vt 0.07859855145215988 0.03922764211893082
vt 0.0735303983092308 0.03136560693383217
vt 0.07198410481214523 0.02286307141184807
vt 0.07367611676454544 0.01438833214342594
vt 0.0788784846663475 0.006614448968321085
vt 0.08674051612615585 0.001546292216517031
vt 0.09524305164813995 0
vt 0.1037177890539169 0.001692013349384069
vt 0.1114916726946831 0.006894377991557121
vt 0.1165598332881928 0.01475641690194607
vt 0.1181061267852783 0.02325895056128502
vt 0.1164141073822975 0.031733687967062
vt 0.1112117469310761 0.03950757160782814
vt 0.1033497080206871 0.04457572847604752
vt 0.1181061267852783 0.2834881246089935
vt 0.1165598332881928 0.2919906675815582
vt 0.1114916726946831 0.2998526990413666
vt 0.1037177890539169 0.3050550520420075
vt 0.09524305164813995 0.3067470788955689
vt 0.08674051612615585 0.3052007853984833
vt 0.07887847721576691 0.3001326322555542
vt 0.07367611676454544 0.2923587560653687
vt 0.07198410481214523 0.2838840186595917
vt 0.07353039085865021 0.275381475687027
vt 0.07859855145215988 0.2675194442272186
vt 0.08637243509292603 0.2623170614242554
vt 0.094847172498703 0.2606250643730164
vt 0.1033497080206871 0.2621713578701019
vt 0.1112117469310761 0.267239511013031
vt 0.1164141073822975 0.2750133872032166
vt 0.99853515625 0.5212501287460327
vt 0.07198410481214523 0.5212501287460327
vt 0.99853515625 0.5302481055259705
vt 0.07198410481214523 0.5302481055259705
vt 0.99853515625 0.539246141910553
vt 0.07198410481214523 0.539246141910553
vt 0.99853515625 0.5482441186904907
vt 0.07198410481214523 0.5482441186904907
vt 0.99853515625 0.5572421550750732
vt 0.07198410481214523 0.5572421550750732
vt 0.99853515625 0.5662401914596558
vt 0.07198410481214523 0.5662401914596558
vt 0.99853515625 0.5752381682395935
vt 0.07198410481214523 0.5752381682395935
vt 0.99853515625 0.584236204624176
vt 0.07198410481214523 0.584236204624176
vt 0.99853515625 0.5932341814041138
vt 0.07198410481214523 0.5932341814041138
vt 0.5352596044540405 0.5212501287460327
vt 0.5352596044540405 0.5932341814041138
vn 0.2727472186088562 -0.9620475172996521 -0.00857259426265955
vn 0.2727472186088562 -0.9620475172996521 -0.00857259426265955
vn 0.2370280623435974 -0.9024739265441895 0.3596644401550293
vn 0.2370280623435974 -0.9024739265441895 0.3596644401550293
vn 0.1610323041677475 -0.6955870985984802 0.7001622319221497
vn 0.1610323041677475 -0.6955870985984802 0.7001622319221497
vn 0.0585440993309021 -0.3742649555206299 0.9254719614982605
vn 0.0585440993309021 -0.3742649555206299 0.9254719614982605
vn -0.04501316323876381 -0.02166120335459709 0.9987515211105347
vn -0.04501316323876381 -0.02166120335459709 0.9987515211105347
vn -0.1422495245933533 0.3339842855930328 0.9317830204963684
vn -0.1422495245933533 0.3339842855930328 0.9317830204963684
vn -0.2246905267238617 0.6649535298347473 0.7122856974601746
vn -0.2246905267238617 0.6649535298347473 0.7122856974601746
vn -0.270166277885437 0.8865271806716919 0.3756058514118195
vn -0.270166277885437 0.8865271806716919 0.3756058514118195
vn -0.2727472186088562 0.9620475172996521 0.00857259426265955
vn -0.2727472186088562 0.9620475172996521 0.00857259426265955
vn -0.2727472186088562 0.9620475172996521 0.00857259426265955
vn 0.2727472186088562 -0.9620475172996521 -0.00857259426265955
vn 0.9610321521759033 0.2720208168029785 0.04921283572912216
vn 0.9610321521759033 0.2720208168029785 0.04921283572912216
vn 0.9610321521759033 0.2720208168029785 0.04921283572912216
vn 0.9610321521759033 0.2720208168029785 0.04921283572912216
vn 0.9610321521759033 0.2720208168029785 0.04921283572912216
vn 0.9610321521759033 0.2720208168029785 0.04921283572912216
vn 0.9610321521759033 0.2720208168029785 0.04921283572912216
vn 0.9610321521759033 0.2720208168029785 0.04921283572912216
vn 0.9610321521759033 0.2720208168029785 0.04921283572912216
vn 0.9610321521759033 0.2720208168029785 0.04921283572912216
vn 0.9610321521759033 0.2720208168029785 0.04921283572912216
vn 0.9610321521759033 0.2720208168029785 0.04921283572912216
vn 0.9610321521759033 0.2720208168029785 0.04921283572912216
vn 0.9610321521759033 0.2720208168029785 0.04921283572912216
vn 0.9610321521759033 0.2720208168029785 0.04921283572912216
vn 0.9610321521759033 0.2720208168029785 0.04921283572912216
vn -0.9610321521759033 -0.2720208168029785 -0.04921283572912216
vn -0.9610321521759033 -0.2720208168029785 -0.04921283572912216
vn -0.9610321521759033 -0.2720208168029785 -0.04921283572912216
vn -0.9610321521759033 -0.2720208168029785 -0.04921283572912216
vn -0.9610321521759033 -0.2720208168029785 -0.04921283572912216
vn -0.9610321521759033 -0.2720208168029785 -0.04921283572912216
vn -0.9610321521759033 -0.2720208168029785 -0.04921283572912216
vn -0.9610321521759033 -0.2720208168029785 -0.04921283572912216
vn -0.9610321521759033 -0.2720208168029785 -0.04921283572912216
vn -0.9610321521759033 -0.2720208168029785 -0.04921283572912216
vn -0.9610321521759033 -0.2720208168029785 -0.04921283572912216
vn -0.9610321521759033 -0.2720208168029785 -0.04921283572912216
vn -0.9610321521759033 -0.2720208168029785 -0.04921283572912216
vn -0.9610321521759033 -0.2720208168029785 -0.04921283572912216
vn -0.9610321521759033 -0.2720208168029785 -0.04921283572912216
vn -0.9610321521759033 -0.2720208168029785 -0.04921283572912216
vn -0.2727472186088562 0.9620475172996521 0.00857259426265955
vn -0.2727472186088562 0.9620475172996521 0.00857259426265955
vn -0.2370280623435974 0.9024739265441895 -0.3596644401550293
vn -0.2370280623435974 0.9024739265441895 -0.3596644401550293
vn -0.1610323041677475 0.6955870985984802 -0.7001622319221497
vn -0.1610323041677475 0.6955870985984802 -0.7001622319221497
vn -0.0585440993309021 0.3742649555206299 -0.9254719614982605
vn -0.0585440993309021 0.3742649555206299 -0.9254719614982605
vn 0.04501316323876381 0.02166120335459709 -0.9987515211105347
vn 0.04501316323876381 0.02166120335459709 -0.9987515211105347
vn 0.1422495245933533 -0.3339842855930328 -0.9317830204963684
vn 0.1422495245933533 -0.3339842855930328 -0.9317830204963684
vn 0.2246905267238617 -0.6649535298347473 -0.7122856974601746
vn 0.2246905267238617 -0.6649535298347473 -0.7122856974601746
vn 0.270166277885437 -0.8865271806716919 -0.3756058514118195
vn 0.270166277885437 -0.8865271806716919 -0.3756058514118195
vn 0.2727472186088562 -0.9620475172996521 -0.00857259426265955
vn 0.2727472186088562 -0.9620475172996521 -0.00857259426265955
vn -0.2727472186088562 0.9620475172996521 0.00857259426265955
vn 0.2727472186088562 -0.9620475172996521 -0.00857259426265955
f 20/20/20 1/1/1 3/3/3
f 7/7/7 8/8/8 6/6/6 5/5/5
f 8/8/8 7/7/7 9/9/9 10/10/10
f 5/5/5 6/6/6 4/4/4 3/3/3
f 4/4/4 2/2/2 20/20/20
f 3/3/3 4/4/4 20/20/20
f 13/13/13 14/14/14 12/12/12 11/11/11
f 19/19/19 15/15/15 17/17/17
f 15/15/15 16/16/16 14/14/14 13/13/13
f 15/15/15 19/19/19 16/16/16
f 11/11/11 12/12/12 10/10/10 9/9/9
f 19/19/19 18/18/18 16/16/16
f 32/32/32 29/29/29 30/30/30
f 30/30/30 31/31/31 32/32/32
f 21/21/21 25/25/25 29/29/29
f 27/27/27 28/28/28 29/29/29
f 27/27/27 25/25/25 26/26/26
f 27/27/27 29/29/29 25/25/25
f 35/35/35 29/29/29 32/32/32
f 32/32/32 34/34/34 35/35/35
f 21/21/21 29/29/29 35/35/35
f 36/36/36 21/21/21 35/35/35
f 22/22/22 23/23/23 24/24/24
f 25/25/25 22/22/22 24/24/24
f 25/25/25 21/21/21 22/22/22
f 34/34/34 32/32/32 33/33/33
f 47/47/47 44/44/44 46/46/46
f 47/47/47 48/48/48 49/49/49
f 49/49/49 42/42/42 47/47/47
f 44/44/44 45/45/45 46/46/46
f 44/44/44 42/42/42 43/43/43
f 44/44/44 47/47/47 42/42/42
f 42/42/42 49/49/49 37/37/37
f 52/52/52 50/50/50 51/51/51
f 52/52/52 37/37/37 49/49/49
f 42/42/42 37/37/37 39/39/39
f 39/39/39 40/40/40 41/41/41
f 39/39/39 41/41/41 42/42/42
f 39/39/39 37/37/37 38/38/38
f 50/50/50 52/52/52 49/49/49
f 71/71/71 53/53/53 55/55/55
f 59/59/59 60/60/60 58/58/58 57/57/57
f 60/60/60 59/59/59 61/61/61 62/62/62
f 57/57/57 58/58/58 56/56/56 55/55/55
f 56/56/56 54/54/54 71/71/71
f 55/55/55 56/56/56 71/71/71
f 65/65/65 66/66/66 64/64/64 63/63/63
f 72/72/72 67/67/67 69/69/69
f 67/67/67 68/68/68 66/66/66 65/65/65
f 68/68/68 67/67/67 72/72/72 70/70/70
f 63/63/63 64/64/64 62/62/62 61/61/61
