# Rhino

v 75.41242218017578 -223.5934753417969 -886.4283447265625
v 134.9208831787109 -214.2182006835938 -895.1386108398438
v 75.53833770751953 -223.7157897949219 -885.6997680664063
v 135.0467987060547 -214.3405303955078 -894.4099731445313
v 75.7034912109375 -224.140625 -885.0286865234375
v 135.2119445800781 -214.7653656005859 -893.7389526367188
v 75.87196350097656 -224.8004760742188 -884.5879516601563
v 135.3804168701172 -215.4252014160156 -893.2981567382813
v 76.00637817382813 -225.5245666503906 -884.448974609375
v 135.5148468017578 -216.1492919921875 -893.1591796875
v 76.10110473632813 -226.2549133300781 -884.5879516601563
v 135.6095581054688 -216.879638671875 -893.2981567382813
v 76.14366149902344 -226.9345855712891 -885.0286865234375
v 135.6521301269531 -217.559326171875 -893.7389526367188
v 76.11713409423828 -227.3896331787109 -885.6997680664063
v 135.6255950927734 -218.0143585205078 -894.4099731445313
v 76.03491973876953 -227.5447387695313 -886.4283447265625
v 135.5433807373047 -218.1694641113281 -895.1386108398438
v 95.87107849121094 -224.4196472167969 -889.331787109375
v 115.7072296142578 -221.2945556640625 -892.2351684570313
v 115.0847244262695 -217.3432922363281 -892.2351684570313
v 95.24857330322266 -220.4683837890625 -889.331787109375
v 105.2925643920898 -219.0281524658203 -890.0548706054688
v 105.6261901855469 -220.1128387451172 -888.9430541992188
v 105.760612487793 -220.8369293212891 -888.8040771484375
v 105.8553314208984 -221.5672760009766 -888.9430541992188
v 105.8978958129883 -222.2469635009766 -889.3837890625
v 105.8713607788086 -222.7019958496094 -890.0548706054688
v 76.03491973876953 -227.5447387695313 -886.4283447265625
v 76.11713409423828 -227.3896331787109 -885.6997680664063
v 76.14366149902344 -226.9345855712891 -885.0286865234375
v 76.10110473632813 -226.2549133300781 -884.5879516601563
v 76.00637817382813 -225.5245666503906 -884.448974609375
v 75.87196350097656 -224.8004760742188 -884.5879516601563
v 75.7034912109375 -224.140625 -885.0286865234375
v 75.53833770751953 -223.7157897949219 -885.6997680664063
v 75.41242218017578 -223.5934753417969 -886.4283447265625
v 75.33020782470703 -223.7485809326172 -887.156982421875
v 75.30368041992188 -224.20361328125 -887.8280029296875
v 75.34624481201172 -224.88330078125 -888.268798828125
v 75.44096374511719 -225.6136474609375 -888.4077758789063
v 75.57537841796875 -226.3377380371094 -888.268798828125
v 75.74385070800781 -226.9975738525391 -887.8280029296875
v 75.90900421142578 -227.4224243164063 -887.156982421875
v 134.9208831787109 -214.2182006835938 -895.1386108398438
v 135.0467987060547 -214.3405303955078 -894.4099731445313
v 135.2119445800781 -214.7653656005859 -893.7389526367188
v 135.3804168701172 -215.4252014160156 -893.2981567382813
v 135.5148468017578 -216.1492919921875 -893.1591796875
v 135.6095581054688 -216.879638671875 -893.2981567382813
v 135.6521301269531 -217.559326171875 -893.7389526367188
v 135.6255950927734 -218.0143585205078 -894.4099731445313
v 135.5433807373047 -218.1694641113281 -895.1386108398438
v 135.4174652099609 -218.0471496582031 -895.8671875
v 135.2523040771484 -217.622314453125 -896.5382690429688
v 135.0838470458984 -216.9624633789063 -896.9790649414063
v 134.9494171142578 -216.2383728027344 -897.1180419921875
v 134.8547058105469 -215.5080261230469 -896.9790649414063
v 134.8121337890625 -214.8283538818359 -896.5382690429688
v 134.8386688232422 -214.3733062744141 -895.8671875
v 76.03491973876953 -227.5447387695313 -886.4283447265625
v 135.5433807373047 -218.1694641113281 -895.1386108398438
v 75.90900421142578 -227.4224243164063 -887.156982421875
v 135.4174652099609 -218.0471496582031 -895.8671875
v 75.74385070800781 -226.9975738525391 -887.8280029296875
v 135.2523040771484 -217.622314453125 -896.5382690429688
v 75.57537841796875 -226.3377380371094 -888.268798828125
v 135.0838470458984 -216.9624633789063 -896.9790649414063
v 75.44096374511719 -225.6136474609375 -888.4077758789063
v 134.9494171142578 -216.2383728027344 -897.1180419921875
v 75.34624481201172 -224.88330078125 -888.268798828125
v 134.8547058105469 -215.5080261230469 -896.9790649414063
v 75.30368041992188 -224.20361328125 -887.8280029296875
v 134.8121337890625 -214.8283538818359 -896.5382690429688
v 75.33020782470703 -223.7485809326172 -887.156982421875
v 134.8386688232422 -214.3733062744141 -895.8671875
v 75.41242218017578 -223.5934753417969 -886.4283447265625
v 134.9208831787109 -214.2182006835938 -895.1386108398438
v 115.7072296142578 -221.2945556640625 -892.2351684570313
v 95.87107849121094 -224.4196472167969 -889.331787109375
v 95.24857330322266 -220.4683837890625 -889.331787109375
v 115.0847244262695 -217.3432922363281 -892.2351684570313
vt 0.99853515625 0.5094430446624756
vt 0.09301967173814774 0.5094430446624756
vt 0.99853515625 0.5210704803466797
vt 0.09301967173814774 0.5210704803466797
vt 0.99853515625 0.5326979160308838
vt 0.09301967173814774 0.5326979160308838
vt 0.99853515625 0.5443254113197327
vt 0.09301967173814774 0.5443254113197327
vt 0.99853515625 0.5559528470039368
vt 0.09301967173814774 0.5559528470039368
vt 0.99853515625 0.5675803422927856
vt 0.09301967173814774 0.5675803422927856
vt 0.99853515625 0.5792077779769898
vt 0.09301967173814774 0.5792077779769898
vt 0.99853515625 0.5908352136611939
vt 0.09301967173814774 0.5908352136611939
vt 0.99853515625 0.6024627089500427
vt 0.09301967173814774 0.6024627089500427
vt 0.6966966390609741 0.6024627089500427
vt 0.3948581516742706 0.6024627089500427
vt 0.3948581516742706 0.5094430446624756
vt 0.6966966390609741 0.5094430446624756
vt 0.545777440071106 0.5210704803466797
vt 0.545777440071106 0.5443254113197327
vt 0.545777440071106 0.5559528470039368
vt 0.545777440071106 0.5675803422927856
vt 0.545777440071106 0.5792077779769898
vt 0.545777440071106 0.5908352136611939
vt 0.1526219099760056 0.2845226228237152
vt 0.1505295336246491 0.2954922616481781
vt 0.1438933610916138 0.305595189332962
vt 0.1337904334068298 0.3122313618659973
vt 0.1228207945823669 0.314323753118515
vt 0.1118511632084847 0.3122313618659973
vt 0.1017482206225395 0.305595189332962
vt 0.09511206299066544 0.2954922616481781
vt 0.09301967173814774 0.2845226228237152
vt 0.09511206299066544 0.2735529839992523
vt 0.1017482206225395 0.2634500563144684
vt 0.1118511632084847 0.2568138837814331
vt 0.1228207945823669 0.2547215223312378
vt 0.1337904334068298 0.2568138837814331
vt 0.1438933610916138 0.2634500563144684
vt 0.1505295336246491 0.2735529839992523
vt 0.1526219099760056 0.02980111911892891
vt 0.1505295336246491 0.0407707504928112
vt 0.1438933610916138 0.05087369307875633
vt 0.1337904334068298 0.05750985071063042
vt 0.1228207945823669 0.05960223823785782
vt 0.1118511632084847 0.05750985071063042
vt 0.1017482206225395 0.05087369307875633
vt 0.09511206299066544 0.0407707504928112
vt 0.09301967173814774 0.02980111911892891
vt 0.09511206299066544 0.01883148588240147
vt 0.1017482206225395 0.008728546090424061
vt 0.1118511632084847 0.002092387294396758
vt 0.1228207945823669 0
vt 0.1337904334068298 0.002092387294396758
vt 0.1438933610916138 0.008728546090424061
vt 0.1505295336246491 0.01883148588240147
vt 0 0
vt 0 0.9055154919624329
vt 0.01144435349851847 0
vt 0.01144435349851847 0.9055154919624329
vt 0.02288870699703693 0
vt 0.02288870699703693 0.9055154919624329
vt 0.03433306142687798 0
vt 0.03433306142687798 0.9055154919624329
vt 0.04577741399407387 0
vt 0.04577741399407387 0.9055154919624329
vt 0.05722177028656006 0
vt 0.05722177028656006 0.9055154919624329
vt 0.06866612285375595 0
vt 0.06866612285375595 0.9055154919624329
vt 0.08011047542095184 0
vt 0.08011047542095184 0.9055154919624329
vt 0.09155482798814774 0
vt 0.09155482798814774 0.9055154919624329
vt 0 0.6036770343780518
vt 0 0.3018385171890259
vt 0.09155482798814774 0.3018385171890259
vt 0.09155482798814774 0.6036770343780518
vn -0.1556255519390106 0.9878160953521729 2.026870967071492e-13
vn -0.1556255519390106 0.9878160953521729 -3.082599551052639e-13
vn -0.09266685694456101 0.9266572594642639 0.3643064498901367
vn -0.09266685694456101 0.9266572594642639 0.3643064498901367
vn -0.01009092573076487 0.7142385840415955 0.6998295783996582
vn -0.01009092573076487 0.7142385840415955 0.6998295783996582
vn 0.0741451233625412 0.3843160569667816 0.920219361782074
vn 0.0741451233625412 0.3843160569667816 0.920219361782074
vn 0.1413548290729523 0.02226975746452808 0.9897084832191467
vn 0.1413548290729523 0.02226975746452808 0.9897084832191467
vn 0.188715010881424 -0.342903733253479 0.920219361782074
vn 0.188715010881424 -0.342903733253479 0.920219361782074
vn 0.2099968492984772 -0.6827443838119507 0.6998295783996582
vn 0.2099968492984772 -0.6827443838119507 0.6998295783996582
vn 0.1967307925224304 -0.9102624654769898 0.3643064498901367
vn 0.1967307925224304 -0.9102624654769898 0.3643064498901367
vn 0.1556255519390106 -0.9878160953521729 -1.708526169933583e-13
vn 0.1556255519390106 -0.9878160953521729 2.934968620135064e-13
vn 0.1556255519390106 -0.9878160953521729 -1.288899542650768e-14
vn 0.1556255519390106 -0.9878160953521729 1.598929322277343e-13
vn -0.1556255519390106 0.9878160953521729 -1.098982016500827e-13
vn -0.1556255519390106 0.9878160953521729 1.294450657773894e-14
vn -0.09266685694456101 0.9266572594642639 0.3643064498901367
vn 0.0741451233625412 0.3843160569667816 0.920219361782074
vn 0.1413548290729523 0.02226975746452808 0.9897084832191467
vn 0.188715010881424 -0.342903733253479 0.920219361782074
vn 0.2099968492984772 -0.6827443838119507 0.6998295783996582
vn 0.1967307925224304 -0.9102624654769898 0.3643064498901367
vn -0.977649986743927 -0.1540239304304123 0.1430983245372772
vn -0.977649986743927 -0.1540239304304123 0.1430983245372772
vn -0.977649986743927 -0.1540239304304123 0.1430983245372772
vn -0.977649986743927 -0.1540239304304123 0.1430983245372772
vn -0.977649986743927 -0.1540239304304123 0.1430983245372772
vn -0.977649986743927 -0.1540239304304123 0.1430983245372772
vn -0.977649986743927 -0.1540239304304123 0.1430983245372772
vn -0.977649986743927 -0.1540239304304123 0.1430983245372772
vn -0.977649986743927 -0.1540239304304123 0.1430983245372772
vn -0.977649986743927 -0.1540239304304123 0.1430983245372772
vn -0.977649986743927 -0.1540239304304123 0.1430983245372772
vn -0.977649986743927 -0.1540239304304123 0.1430983245372772
vn -0.977649986743927 -0.1540239304304123 0.1430983245372772
vn -0.977649986743927 -0.1540239304304123 0.1430983245372772
vn -0.977649986743927 -0.1540239304304123 0.1430983245372772
vn -0.977649986743927 -0.1540239304304123 0.1430983245372772
vn 0.977649986743927 0.1540239304304123 -0.1430983245372772
vn 0.977649986743927 0.1540239304304123 -0.1430983245372772
vn 0.977649986743927 0.1540239304304123 -0.1430983245372772
vn 0.977649986743927 0.1540239304304123 -0.1430983245372772
vn 0.977649986743927 0.1540239304304123 -0.1430983245372772
vn 0.977649986743927 0.1540239304304123 -0.1430983245372772
vn 0.977649986743927 0.1540239304304123 -0.1430983245372772
vn 0.977649986743927 0.1540239304304123 -0.1430983245372772
vn 0.977649986743927 0.1540239304304123 -0.1430983245372772
vn 0.977649986743927 0.1540239304304123 -0.1430983245372772
vn 0.977649986743927 0.1540239304304123 -0.1430983245372772
vn 0.977649986743927 0.1540239304304123 -0.1430983245372772
vn 0.977649986743927 0.1540239304304123 -0.1430983245372772
vn 0.977649986743927 0.1540239304304123 -0.1430983245372772
vn 0.977649986743927 0.1540239304304123 -0.1430983245372772
vn 0.977649986743927 0.1540239304304123 -0.1430983245372772
vn 0.1556255519390106 -0.9878160953521729 -1.853767925838815e-13
vn 0.1556255519390106 -0.9878160953521729 -1.796041071942811e-13
vn 0.09266685694456101 -0.9266572594642639 -0.3643064498901367
vn 0.09266685694456101 -0.9266572594642639 -0.3643064498901367
vn 0.01009092573076487 -0.7142385840415955 -0.6998295783996582
vn 0.01009092573076487 -0.7142385840415955 -0.6998295783996582
vn -0.0741451233625412 -0.3843160569667816 -0.920219361782074
vn -0.0741451233625412 -0.3843160569667816 -0.920219361782074
vn -0.1413548290729523 -0.02226975746452808 -0.9897084832191467
vn -0.1413548290729523 -0.02226975746452808 -0.9897084832191467
vn -0.188715010881424 0.342903733253479 -0.920219361782074
vn -0.188715010881424 0.342903733253479 -0.920219361782074
vn -0.2099968492984772 0.6827443838119507 -0.6998295783996582
vn -0.2099968492984772 0.6827443838119507 -0.6998295783996582
vn -0.1967307925224304 0.9102624654769898 -0.3643064498901367
vn -0.1967307925224304 0.9102624654769898 -0.3643064498901367
vn -0.1556255519390106 0.9878160953521729 1.854268827242503e-13
vn -0.1556255519390106 0.9878160953521729 1.642244554320854e-13
vn 0.1556255519390106 -0.9878160953521729 -2.218225603201063e-13
vn 0.1556255519390106 -0.9878160953521729 -1.838529328779259e-13
vn -0.1556255519390106 0.9878160953521729 1.518264680644421e-13
vn -0.1556255519390106 0.9878160953521729 1.648299552403643e-13
f 22/22/22 1/1/1 3/3/3 23/23/23
f 24/24/24 23/23/23 5/5/5 7/7/7
f 9/9/9 25/25/25 24/24/24 7/7/7
f 3/3/3 5/5/5 23/23/23
f 21/21/21 22/22/22 23/23/23
f 2/2/2 21/21/21 4/4/4
f 4/4/4 21/21/21 23/23/23
f 8/8/8 24/24/24 25/25/25 10/10/10
f 24/24/24 8/8/8 6/6/6
f 23/23/23 6/6/6 4/4/4
f 23/23/23 24/24/24 6/6/6
f 25/25/25 9/9/9 11/11/11 26/26/26
f 26/26/26 11/11/11 13/13/13 27/27/27
f 10/10/10 25/25/25 26/26/26 12/12/12
f 17/17/17 19/19/19 28/28/28 15/15/15
f 15/15/15 28/28/28 27/27/27 13/13/13
f 27/27/27 14/14/14 12/12/12 26/26/26
f 16/16/16 28/28/28 20/20/20 18/18/18
f 19/19/19 20/20/20 28/28/28
f 28/28/28 16/16/16 14/14/14 27/27/27
f 36/36/36 37/37/37 29/29/29
f 43/43/43 38/38/38 39/39/39
f 37/37/37 38/38/38 44/44/44
f 35/35/35 32/32/32 34/34/34
f 34/34/34 32/32/32 33/33/33
f 36/36/36 30/30/30 35/35/35
f 40/40/40 43/43/43 39/39/39
f 40/40/40 42/42/42 43/43/43
f 43/43/43 44/44/44 38/38/38
f 37/37/37 44/44/44 29/29/29
f 31/31/31 32/32/32 35/35/35
f 30/30/30 31/31/31 35/35/35
f 36/36/36 29/29/29 30/30/30
f 41/41/41 42/42/42 40/40/40
f 55/55/55 52/52/52 54/54/54
f 55/55/55 56/56/56 57/57/57
f 57/57/57 52/52/52 55/55/55
f 52/52/52 53/53/53 54/54/54
f 51/51/51 49/49/49 50/50/50
f 49/49/49 51/51/51 52/52/52
f 47/47/47 52/52/52 57/57/57
f 45/45/45 58/58/58 59/59/59
f 59/59/59 60/60/60 45/45/45
f 57/57/57 45/45/45 47/47/47
f 47/47/47 48/48/48 49/49/49
f 47/47/47 49/49/49 52/52/52
f 47/47/47 45/45/45 46/46/46
f 45/45/45 57/57/57 58/58/58
f 80/80/80 61/61/61 63/63/63
f 67/67/67 68/68/68 66/66/66 65/65/65
f 68/68/68 67/67/67 69/69/69 70/70/70
f 65/65/65 66/66/66 64/64/64 63/63/63
f 79/79/79 80/80/80 63/63/63
f 64/64/64 62/62/62 79/79/79
f 64/64/64 79/79/79 63/63/63
f 73/73/73 74/74/74 72/72/72 71/71/71
f 81/81/81 75/75/75 77/77/77
f 75/75/75 76/76/76 74/74/74 73/73/73
f 76/76/76 75/75/75 81/81/81 82/82/82
f 71/71/71 72/72/72 70/70/70 69/69/69
f 78/78/78 76/76/76 82/82/82
