# Rhino

v 121.9181900024414 -232.2714385986328 -879.7197265625
v 49.65205383300781 -206.3072814941406 -864.5995483398438
v 122.0995254516602 -232.1873779296875 -878.9973754882813
v 49.83338928222656 -206.2232208251953 -863.877197265625
v 122.3733901977539 -231.8125457763672 -878.3321533203125
v 50.10725021362305 -205.848388671875 -863.2119750976563
v 122.6836166381836 -231.2035522460938 -877.8951416015625
v 50.41748428344727 -205.2393798828125 -862.7750244140625
v 122.9580688476563 -230.5198974609375 -877.7573852539063
v 50.69193649291992 -204.5557250976563 -862.63720703125
v 123.1814651489258 -229.8178863525391 -877.8951416015625
v 50.91532897949219 -203.8537292480469 -862.7750244140625
v 123.3297424316406 -229.1507110595703 -878.3321533203125
v 51.0636100769043 -203.1865386962891 -863.2119750976563
v 123.3570556640625 -228.6872863769531 -878.9973754882813
v 51.09092330932617 -202.7231292724609 -863.877197265625
v 123.2706832885742 -228.5070343017578 -879.7197265625
v 51.00455093383789 -202.5428771972656 -864.5995483398438
v 87.13761901855469 -215.5249633789063 -872.1596069335938
v 85.78512573242188 -219.2893676757813 -872.1596069335938
v 123.2706832885742 -228.5070343017578 -879.7197265625
v 123.3570556640625 -228.6872863769531 -878.9973754882813
v 123.3297424316406 -229.1507110595703 -878.3321533203125
v 123.1814651489258 -229.8178863525391 -877.8951416015625
v 122.9580688476563 -230.5198974609375 -877.7573852539063
v 122.6836166381836 -231.2035522460938 -877.8951416015625
v 122.3733901977539 -231.8125457763672 -878.3321533203125
v 122.0995254516602 -232.1873779296875 -878.9973754882813
v 121.9181900024414 -232.2714385986328 -879.7197265625
v 121.8318176269531 -232.0912017822266 -880.4420166015625
v 121.859130859375 -231.6277770996094 -881.1072998046875
v 122.0074157714844 -230.9606018066406 -881.5442504882813
v 122.2308044433594 -230.2585906982422 -881.6820068359375
v 122.505256652832 -229.5749359130859 -881.5442504882813
v 122.8154907226563 -228.9659423828125 -881.1072998046875
v 123.08935546875 -228.5910949707031 -880.4420166015625
v 49.65205383300781 -206.3072814941406 -864.5995483398438
v 49.83338928222656 -206.2232208251953 -863.877197265625
v 50.10725021362305 -205.848388671875 -863.2119750976563
v 50.41748428344727 -205.2393798828125 -862.7750244140625
v 50.69193649291992 -204.5557250976563 -862.63720703125
v 50.91532897949219 -203.8537292480469 -862.7750244140625
v 51.0636100769043 -203.1865386962891 -863.2119750976563
v 51.09092330932617 -202.7231292724609 -863.877197265625
v 51.00455093383789 -202.5428771972656 -864.5995483398438
v 50.82321929931641 -202.6269378662109 -865.3218383789063
v 50.54935455322266 -203.0017852783203 -865.9871215820313
v 50.2391242980957 -203.6107788085938 -866.424072265625
v 49.96466827392578 -204.29443359375 -866.5618896484375
v 49.74127578735352 -204.9964294433594 -866.424072265625
v 49.59299468994141 -205.6636199951172 -865.9871215820313
v 49.5656852722168 -206.1270446777344 -865.3218383789063
v 123.2706832885742 -228.5070343017578 -879.7197265625
v 51.00455093383789 -202.5428771972656 -864.5995483398438
v 123.08935546875 -228.5910949707031 -880.4420166015625
v 50.82321929931641 -202.6269378662109 -865.3218383789063
v 122.8154907226563 -228.9659423828125 -881.1072998046875
v 50.54935455322266 -203.0017852783203 -865.9871215820313
v 122.505256652832 -229.5749359130859 -881.5442504882813
v 50.2391242980957 -203.6107788085938 -866.424072265625
v 122.2308044433594 -230.2585906982422 -881.6820068359375
v 49.96466827392578 -204.29443359375 -866.5618896484375
v 122.0074157714844 -230.9606018066406 -881.5442504882813
v 49.74127578735352 -204.9964294433594 -866.424072265625
v 121.859130859375 -231.6277770996094 -881.1072998046875
v 49.59299468994141 -205.6636199951172 -865.9871215820313
v 121.8318176269531 -232.0912017822266 -880.4420166015625
v 49.5656852722168 -206.1270446777344 -865.3218383789063
v 121.9181900024414 -232.2714385986328 -879.7197265625
v 49.65205383300781 -206.3072814941406 -864.5995483398438
v 87.13761901855469 -215.5249633789063 -872.1596069335938
v 85.78512573242188 -219.2893676757813 -872.1596069335938
vt 0 0
vt 0 0.9246623516082764
vt 0.009050993248820305 0
vt 0.009050993248820305 0.9246623516082764
vt 0.01810198649764061 0
vt 0.01810198649764061 0.9246623516082764
vt 0.02715297974646092 0
vt 0.02715297974646092 0.9246623516082764
vt 0.03620397299528122 0
vt 0.03620397299528122 0.9246623516082764
vt 0.04525496438145638 0
vt 0.04525496438145638 0.9246623516082764
vt 0.05430595949292183 0
vt 0.05430595949292183 0.9246623516082764
vt 0.06335695087909699 0
vt 0.06335695087909699 0.9246623516082764
vt 0.07240794599056244 0
vt 0.07240794599056244 0.9246623516082764
vt 0.07240794599056244 0.4623311758041382
vt 0 0.4623311758041382
vt 0.1212066859006882 0.2837657928466797
vt 0.1195449903607369 0.2924774587154388
vt 0.1142747923731804 0.3005008399486542
vt 0.1062514111399651 0.3057710230350494
vt 0.09753973782062531 0.3074327111244202
vt 0.08882805705070496 0.3057710230350494
vt 0.08080467581748962 0.3005008399486542
vt 0.07553448528051376 0.2924774587154388
vt 0.07387278974056244 0.2837657928466797
vt 0.07553448528051376 0.2750540971755981
vt 0.08080467581748962 0.2670307159423828
vt 0.08882805705070496 0.2617605328559876
vt 0.09753973782062531 0.2600988447666168
vt 0.1062514111399651 0.2617605328559876
vt 0.1142747923731804 0.2670307159423828
vt 0.1195449903607369 0.2750540971755981
vt 0.1212066859006882 0.02366694621741772
vt 0.1195449903607369 0.03237862512469292
vt 0.1142747923731804 0.04040200635790825
vt 0.1062514111399651 0.04567219689488411
vt 0.09753973782062531 0.04733389243483543
vt 0.08882805705070496 0.04567219689488411
vt 0.08080467581748962 0.04040200635790825
vt 0.07553448528051376 0.03237862512469292
vt 0.07387278974056244 0.02366694621741772
vt 0.07553448528051376 0.01495526917278767
vt 0.08080467581748962 0.006931888405233622
vt 0.08882805705070496 0.001661696587689221
vt 0.09753973782062531 0
vt 0.1062514111399651 0.001661696587689221
vt 0.1142747923731804 0.006931888405233622
vt 0.1195449903607369 0.01495526917278767
vt 0.99853515625 0.5201976895332336
vt 0.07387278974056244 0.5201976895332336
vt 0.99853515625 0.5294317603111267
vt 0.07387278974056244 0.5294317603111267
vt 0.99853515625 0.5386658906936646
vt 0.07387278974056244 0.5386658906936646
vt 0.99853515625 0.5478999614715576
vt 0.07387278974056244 0.5478999614715576
vt 0.99853515625 0.5571340322494507
vt 0.07387278974056244 0.5571340322494507
vt 0.99853515625 0.5663681626319885
vt 0.07387278974056244 0.5663681626319885
vt 0.99853515625 0.5756022334098816
vt 0.07387278974056244 0.5756022334098816
vt 0.99853515625 0.5848363637924194
vt 0.07387278974056244 0.5848363637924194
vt 0.99853515625 0.5940704345703125
vt 0.07387278974056244 0.5940704345703125
vt 0.5362039804458618 0.5201976895332336
vt 0.5362039804458618 0.5940704345703125
vn -0.3381239771842957 -0.9411015510559082 5.166118319807969e-14
vn -0.3381239771842957 -0.9411015510559082 \
 -4.931820197454778e-14
vn -0.2474578320980072 -0.8990707397460938 0.3611598908901215
vn -0.2474578320980072 -0.8990707397460938 0.3611598908901215
vn -0.1105257049202919 -0.7116504907608032 0.6937850117683411
vn -0.1105257049202919 -0.7116504907608032 0.6937850117683411
vn 0.04458968713879585 -0.4071521759033203 0.91227126121521
vn 0.04458968713879585 -0.4071521759033203 0.91227126121521
vn 0.1818170100450516 -0.06532417982816696 0.9811602234840393
vn 0.1818170100450516 -0.06532417982816696 0.9811602234840393
vn 0.2935129702091217 0.2856768667697907 0.91227126121521
vn 0.2935129702091217 0.2856768667697907 0.91227126121521
vn 0.3676537871360779 0.6192681193351746 0.6937850117683411
vn 0.3676537871360779 0.6192681193351746 0.6937850117683411
vn 0.3813095986843109 0.850979745388031 0.3611598908901215
vn 0.3813095986843109 0.850979745388031 0.3611598908901215
vn 0.3381239771842957 0.9411015510559082 1.161548071268448e-13
vn 0.3381239771842957 0.9411015510559082 5.004267603059796e-14
vn 0.3381239771842957 0.9411015510559082 7.483597075363946e-14
vn -0.3381239771842957 -0.9411015510559082 \
 -1.078998002057574e-14
vn 0.923371434211731 -0.3317537605762482 -0.1931959539651871
vn 0.923371434211731 -0.3317537605762482 -0.1931959539651871
vn 0.923371434211731 -0.3317537605762482 -0.1931959539651871
vn 0.923371434211731 -0.3317537605762482 -0.1931959539651871
vn 0.923371434211731 -0.3317537605762482 -0.1931959539651871
vn 0.923371434211731 -0.3317537605762482 -0.1931959539651871
vn 0.923371434211731 -0.3317537605762482 -0.1931959539651871
vn 0.923371434211731 -0.3317537605762482 -0.1931959539651871
vn 0.923371434211731 -0.3317537605762482 -0.1931959539651871
vn 0.923371434211731 -0.3317537605762482 -0.1931959539651871
vn 0.923371434211731 -0.3317537605762482 -0.1931959539651871
vn 0.923371434211731 -0.3317537605762482 -0.1931959539651871
vn 0.923371434211731 -0.3317537605762482 -0.1931959539651871
vn 0.923371434211731 -0.3317537605762482 -0.1931959539651871
vn 0.923371434211731 -0.3317537605762482 -0.1931959539651871
vn 0.923371434211731 -0.3317537605762482 -0.1931959539651871
vn -0.923371434211731 0.3317537605762482 0.1931959539651871
vn -0.923371434211731 0.3317537605762482 0.1931959539651871
vn -0.923371434211731 0.3317537605762482 0.1931959539651871
vn -0.923371434211731 0.3317537605762482 0.1931959539651871
vn -0.923371434211731 0.3317537605762482 0.1931959539651871
vn -0.923371434211731 0.3317537605762482 0.1931959539651871
vn -0.923371434211731 0.3317537605762482 0.1931959539651871
vn -0.923371434211731 0.3317537605762482 0.1931959539651871
vn -0.923371434211731 0.3317537605762482 0.1931959539651871
vn -0.923371434211731 0.3317537605762482 0.1931959539651871
vn -0.923371434211731 0.3317537605762482 0.1931959539651871
vn -0.923371434211731 0.3317537605762482 0.1931959539651871
vn -0.923371434211731 0.3317537605762482 0.1931959539651871
vn -0.923371434211731 0.3317537605762482 0.1931959539651871
vn -0.923371434211731 0.3317537605762482 0.1931959539651871
vn -0.923371434211731 0.3317537605762482 0.1931959539651871
vn 0.3381239771842957 0.9411015510559082 1.187752424625793e-13
vn 0.3381239771842957 0.9411015510559082 -4.130736551422043e-13
vn 0.2474578320980072 0.8990707397460938 -0.3611598908901215
vn 0.2474578320980072 0.8990707397460938 -0.3611598908901215
vn 0.1105257049202919 0.7116504907608032 -0.6937850117683411
vn 0.1105257049202919 0.7116504907608032 -0.6937850117683411
vn -0.04458968713879585 0.4071521759033203 -0.91227126121521
vn -0.04458968713879585 0.4071521759033203 -0.91227126121521
vn -0.1818170100450516 0.06532417982816696 -0.9811602234840393
vn -0.1818170100450516 0.06532417982816696 -0.9811602234840393
vn -0.2935129702091217 -0.2856768667697907 -0.91227126121521
vn -0.2935129702091217 -0.2856768667697907 -0.91227126121521
vn -0.3676537871360779 -0.6192681193351746 -0.6937850117683411
vn -0.3676537871360779 -0.6192681193351746 -0.6937850117683411
vn -0.3813095986843109 -0.850979745388031 -0.3611598908901215
vn -0.3813095986843109 -0.850979745388031 -0.3611598908901215
vn -0.3381239771842957 -0.9411015510559082 \
 -1.437464920315754e-13
vn -0.3381239771842957 -0.9411015510559082 4.086497579127574e-13
vn 0.3381239771842957 0.9411015510559082 -1.391109449855321e-13
vn -0.3381239771842957 -0.9411015510559082 1.261907245364569e-13
f 20/20/20 1/1/1 3/3/3
f 7/7/7 8/8/8 6/6/6 5/5/5
f 8/8/8 7/7/7 9/9/9 10/10/10
f 5/5/5 6/6/6 4/4/4 3/3/3
f 4/4/4 2/2/2 20/20/20
f 3/3/3 4/4/4 20/20/20
f 13/13/13 14/14/14 12/12/12 11/11/11
f 19/19/19 15/15/15 17/17/17
f 15/15/15 16/16/16 14/14/14 13/13/13
f 15/15/15 19/19/19 16/16/16
f 11/11/11 12/12/12 10/10/10 9/9/9
f 19/19/19 18/18/18 16/16/16
f 30/30/30 36/36/36 29/29/29
f 35/35/35 30/30/30 31/31/31
f 29/29/29 22/22/22 28/28/28
f 27/27/27 24/24/24 26/26/26
f 26/26/26 24/24/24 25/25/25
f 28/28/28 22/22/22 27/27/27
f 31/31/31 32/32/32 34/34/34
f 31/31/31 34/34/34 35/35/35
f 35/35/35 36/36/36 30/30/30
f 29/29/29 36/36/36 21/21/21
f 23/23/23 24/24/24 27/27/27
f 23/23/23 27/27/27 22/22/22
f 29/29/29 21/21/21 22/22/22
f 34/34/34 32/32/32 33/33/33
f 44/44/44 45/45/45 37/37/37
f 52/52/52 46/46/46 47/47/47
f 45/45/45 46/46/46 37/37/37
f 43/43/43 39/39/39 42/42/42
f 42/42/42 40/40/40 41/41/41
f 44/44/44 39/39/39 43/43/43
f 48/48/48 51/51/51 47/47/47
f 48/48/48 50/50/50 51/51/51
f 51/51/51 52/52/52 47/47/47
f 46/46/46 52/52/52 37/37/37
f 39/39/39 40/40/40 42/42/42
f 38/38/38 39/39/39 44/44/44
f 44/44/44 37/37/37 38/38/38
f 49/49/49 50/50/50 48/48/48
f 71/71/71 53/53/53 55/55/55
f 59/59/59 60/60/60 58/58/58 57/57/57
f 60/60/60 59/59/59 61/61/61 62/62/62
f 57/57/57 58/58/58 56/56/56 55/55/55
f 56/56/56 54/54/54 71/71/71
f 55/55/55 56/56/56 71/71/71
f 65/65/65 66/66/66 64/64/64 63/63/63
f 72/72/72 67/67/67 69/69/69
f 67/67/67 68/68/68 66/66/66 65/65/65
f 68/68/68 67/67/67 72/72/72 70/70/70
f 63/63/63 64/64/64 62/62/62 61/61/61
